SplineFontDB: 3.0
FontName: Quicksand-Regular
FullName: Quicksand Regular
FamilyName: Quicksand
Weight: Normal
Copyright: Copyright (c) 2011, Andrew Paglinawan (www.andrewpaglinawan.com), with Reserved Font Name "Quicksand".
Version: 001.001
ItalicAngle: 0
UnderlinePosition: -50
UnderlineWidth: 50
Ascent: 800
Descent: 200
LayerCount: 2
Layer: 0 0 "Back"  1
Layer: 1 0 "Fore"  0
NeedsXUIDChange: 1
FSType: 0
OS2Version: 0
OS2_WeightWidthSlopeOnly: 0
OS2_UseTypoMetrics: 0
CreationTime: 1318372931
ModificationTime: 1318373070
OS2TypoAscent: 0
OS2TypoAOffset: 1
OS2TypoDescent: 0
OS2TypoDOffset: 1
OS2TypoLinegap: 0
OS2WinAscent: 0
OS2WinAOffset: 1
OS2WinDescent: 0
OS2WinDOffset: 1
HheadAscent: 0
HheadAOffset: 1
HheadDescent: 0
HheadDOffset: 1
OS2Vendor: 'PfEd'
MarkAttachClasses: 1
DEI: 91125
GaspTable: 1 65535 15
Encoding: Custom
UnicodeInterp: none
NameList: Adobe Glyph List
DisplaySize: -48
AntiAlias: 1
FitToEm: 1
WinInfo: 50 25 10
BeginPrivate: 6
StdHW 4 [49]
StemSnapH 5 [49 ]
StdVW 4 [49]
StemSnapV 5 [49 ]
BlueValues 21 [0 0 505 505 700 700]
OtherBlues 11 [-205 -205]
EndPrivate
BeginChars: 280 200

StartChar: B
Encoding: 66 66 0
Width: 594
Flags: MW
HStem: 0 49<123.667 328 153 328 153 328> 351 50<153 284 284 301.333 153 328 153 284> 651 49<153 284 153 153>
VStem: 104 49<49 49 49 351 401 651> 409 49<508.333 542.667> 479 49<200 200>
LayerCount: 2
Fore
SplineSet
104 24 m 2
 104 676 l 2
 104 682.666992188 106.333007812 688.333007812 111 693 c 0
 115.666992188 697.666992188 121.333007812 700 128 700 c 2
 284 700 l 2
 332 700 373 683 407 649 c 0
 441 615 458 572.166992188 458 520.5 c 0
 458 468.833007812 435.666992188 425 391 389 c 1
 431 375 463.833007812 350.833007812 489.5 316.5 c 0
 515.166992188 282.166992188 528 243.333007812 528 200 c 0
 528 144.666992188 508.5 97.5 469.5 58.5 c 0
 430.5 19.5 383.333007812 0 328 0 c 2
 127 0 l 2
 120.333007812 0 114.833007812 2.3330078125 110.5 7 c 0
 106.166992188 11.6669921875 104 17.3330078125 104 24 c 2
153 49 m 1
 328 49 l 2
 369.333007812 49 404.666992188 63.6669921875 434 93 c 0
 463.333007812 122.333007812 478.333007812 158 479 200 c 1
 478.333007812 241.333007812 463.333007812 276.833007812 434 306.5 c 0
 404.666992188 336.166992188 369.333007812 351 328 351 c 2
 153 351 l 1
 153 49 l 1
153 401 m 1
 284 401 l 2
 318.666992188 401 348.166992188 413.166992188 372.5 437.5 c 0
 396.833007812 461.833007812 409 491.166992188 409 525.5 c 0
 409 559.833007812 396.833007812 589.333007812 372.5 614 c 0
 348.166992188 638.666992188 318.666992188 651 284 651 c 2
 153 651 l 1
 153 401 l 1
EndSplineSet
EndChar

StartChar: C
Encoding: 67 67 1
Width: 771
Flags: MW
HStem: 0 49<387.667 469.333 387.667 479.333> 661 49<437 473.333>
VStem: 73 49<311.667 396.333 311.667 403.667>
LayerCount: 2
Fore
SplineSet
179.5 103.5 m 0
 108.5 172.5 73 256.166992188 73 354.5 c 0
 73 452.833007812 108.5 536.5 179.5 605.5 c 0
 250.5 674.5 336.333007812 709.333007812 437 710 c 0
 521 710 596.333007812 684.333007812 663 633 c 0
 668.333007812 628.333007812 671.5 622.5 672.5 615.5 c 0
 673.5 608.5 671.666992188 602.666992188 667 598 c 1
 663 592 657.5 588.666992188 650.5 588 c 0
 643.5 587.333007812 637.666992188 589 633 593 c 0
 575 638.333007812 509.666992188 661 437 661 c 0
 349.666992188 661 275.333007812 631 214 571 c 0
 152.666992188 511 122 438.666992188 122 354 c 0
 122 269.333007812 152.666992188 197.333007812 214 138 c 0
 275.333007812 78.6669921875 346.833007812 49 428.5 49 c 0
 510.166992188 49 577.666992188 71.6669921875 631 117 c 0
 637 121 643.5 122.5 650.5 121.5 c 0
 657.5 120.5 662.666992188 117 666 111 c 1
 670.666992188 106.333007812 672.666992188 100.333007812 672 93 c 0
 671.333007812 85.6669921875 668.333007812 80 663 76 c 0
 597 25.3330078125 521.666992188 0 437 0 c 0
 336.333007812 0 250.5 34.5 179.5 103.5 c 0
EndSplineSet
EndChar

StartChar: D
Encoding: 68 68 2
Width: 719
Flags: MW
HStem: 0 49<153 259 153 259 126 259> 651 49<153 259 153 153>
VStem: 104 49<49 49 49 651> 560 49<308 391>
LayerCount: 2
Fore
SplineSet
259 0 m 2
 126 0 l 2
 120 0.6669921875 114.833007812 3.1669921875 110.5 7.5 c 0
 106.166992188 11.8330078125 104 17.3330078125 104 24 c 2
 104 676 l 2
 104 682.666992188 106.333007812 688.333007812 111 693 c 0
 115.666992188 697.666992188 121.333007812 700 128 700 c 2
 259 700 l 2
 355.666992188 700 438.166992188 665.666992188 506.5 597 c 0
 574.833007812 528.333007812 609 445.666992188 609 349 c 0
 609 252.333007812 574.833007812 170 506.5 102 c 0
 438.166992188 34 355.666992188 0 259 0 c 2
153 49 m 1
 259 49 l 2
 342.333007812 49 413.333007812 78.3330078125 472 137 c 0
 530.666992188 195.666992188 560 266.5 560 349.5 c 0
 560 432.5 530.666992188 503.333007812 472 562 c 0
 413.333007812 620.666992188 342.333007812 650.333007812 259 651 c 2
 153 651 l 1
 153 49 l 1
EndSplineSet
EndChar

StartChar: E
Encoding: 69 69 3
Width: 593
Flags: MW
HStem: 0 49<153 488 153 488 126 488> 325 49<153 446 153 446> 651 49<153 488 153 153>
VStem: 104 49<49 325 374 651>
LayerCount: 2
Fore
SplineSet
104 24 m 2
 104 676 l 2
 104 682.666992188 106.333007812 688.333007812 111 693 c 0
 115.666992188 697.666992188 121.333007812 700 128 700 c 2
 488 700 l 2
 494.666992188 700 500.333007812 697.666992188 505 693 c 0
 509.666992188 688.333007812 512 682.5 512 675.5 c 0
 512 668.5 509.666992188 662.666992188 505 658 c 0
 500.333007812 653.333007812 494.666992188 651 488 651 c 2
 153 651 l 1
 153 374 l 1
 446 374 l 2
 452.666992188 374 458.333007812 371.5 463 366.5 c 0
 467.666992188 361.5 470 355.666992188 470 349 c 0
 470 342.333007812 467.666992188 336.666992188 463 332 c 0
 458.333007812 327.333007812 452.666992188 325 446 325 c 2
 153 325 l 1
 153 49 l 1
 488 49 l 2
 494.666992188 49 500.333007812 46.6669921875 505 42 c 0
 509.666992188 37.3330078125 512 31.5 512 24.5 c 0
 512 17.5 509.666992188 11.6669921875 505 7 c 0
 500.333007812 2.3330078125 494.666992188 0 488 0 c 2
 126 0 l 2
 120 0.6669921875 114.833007812 3.1669921875 110.5 7.5 c 0
 106.166992188 11.8330078125 104 17.3330078125 104 24 c 2
EndSplineSet
EndChar

StartChar: F
Encoding: 70 70 4
Width: 605
Flags: MW
HStem: 0 21G<124.667 131.333> 325 49<153 447 153 447> 651 49<153 489 153 153>
VStem: 104 49<24 325 374 651>
LayerCount: 2
Fore
SplineSet
104 24 m 2
 104 676 l 2
 104 690.666992188 111.666992188 698.666992188 127 700 c 1
 489 700 l 2
 495.666992188 700 501.333007812 697.666992188 506 693 c 0
 510.666992188 688.333007812 513 682.666992188 513 676 c 0
 513 669.333007812 510.666992188 663.5 506 658.5 c 0
 501.333007812 653.5 495.666992188 651 489 651 c 2
 153 651 l 1
 153 374 l 1
 447 374 l 2
 454.333007812 374 460.333007812 371.666992188 465 367 c 0
 469.666992188 362.333007812 472 356.5 472 349.5 c 0
 472 342.5 469.5 336.666992188 464.5 332 c 0
 459.5 327.333007812 453.666992188 325 447 325 c 2
 153 325 l 1
 153 24 l 2
 153 17.3330078125 150.5 11.6669921875 145.5 7 c 0
 140.5 2.3330078125 134.666992188 0 128 0 c 0
 121.333007812 0 115.666992188 2.3330078125 111 7 c 0
 106.333007812 11.6669921875 104 17.3330078125 104 24 c 2
EndSplineSet
EndChar

StartChar: G
Encoding: 71 71 5
Width: 814
Flags: MW
HStem: 0 49<437 471.333 393.333 480> 315 49<427.333 650 431 622> 661 49<393.333 474.333>
VStem: 73 49<312.667 397.333 312.667 404> 622 50<109 315 315 315>
LayerCount: 2
Fore
SplineSet
622 315 m 1
 431 315 l 2
 423.666992188 315 417.666992188 317.333007812 413 322 c 0
 408.333007812 326.666992188 406 332.5 406 339.5 c 0
 406 346.5 408.333007812 352.333007812 413 357 c 0
 417.666992188 361.666992188 423.666992188 364 431 364 c 2
 650 364 l 2
 656 363.333007812 661.166992188 360.666992188 665.5 356 c 0
 669.833007812 351.333007812 672 345.666992188 672 339 c 2
 672 95 l 1
 670.666992188 87 667.666992188 81 663 77 c 0
 598.333007812 25.6669921875 523 0 437 0 c 0
 336.333007812 0.6669921875 250.5 35.5 179.5 104.5 c 0
 108.5 173.5 73 257 73 355 c 0
 73 453 108.5 536.666992188 179.5 606 c 0
 250.5 675.333007812 336.333007812 710 437 710 c 0
 520.333007812 710 596 683.666992188 664 631 c 0
 668.666992188 627.666992188 671.333007812 622.5 672 615.5 c 0
 672.666992188 608.5 671 602.333007812 667 597 c 0
 657.666992188 585 646 583.666992188 632 593 c 1
 576.666992188 638.333007812 511.666992188 661 437 661 c 0
 349.666992188 661 275.333007812 631.166992188 214 571.5 c 0
 152.666992188 511.833007812 122 439.666992188 122 355 c 0
 122 270.333007812 152.666992188 198.166992188 214 138.5 c 0
 275.333007812 78.8330078125 349.666992188 49 437 49 c 0
 505.666992188 49 567.333007812 69 622 109 c 1
 622 315 l 1
EndSplineSet
EndChar

StartChar: H
Encoding: 72 72 6
Width: 709
Flags: MW
HStem: 0 21G<124.667 131.333 533.667 540.333> 326 48<153 513 153 513> 680 20G<124.667 131.333 533.667 540.333>
VStem: 104 49<24 326 374 676> 513 49<24 326 326 326 374 676>
LayerCount: 2
Fore
SplineSet
513 24 m 2
 513 326 l 1
 153 326 l 1
 153 24 l 2
 153 17.3330078125 150.5 11.6669921875 145.5 7 c 0
 140.5 2.3330078125 134.666992188 0 128 0 c 0
 121.333007812 0 115.666992188 2.3330078125 111 7 c 0
 106.333007812 11.6669921875 104 17.3330078125 104 24 c 2
 104 676 l 2
 104 682.666992188 106.333007812 688.333007812 111 693 c 0
 115.666992188 697.666992188 121.333007812 700 128 700 c 0
 134.666992188 700 140.5 697.666992188 145.5 693 c 0
 150.5 688.333007812 153 682.666992188 153 676 c 2
 153 374 l 1
 513 374 l 1
 513 676 l 2
 513 682.666992188 515.333007812 688.333007812 520 693 c 0
 524.666992188 697.666992188 530.333007812 700 537 700 c 0
 543.666992188 700 549.5 697.666992188 554.5 693 c 0
 559.5 688.333007812 562 682.666992188 562 676 c 2
 562 24 l 2
 562 17.3330078125 559.5 11.6669921875 554.5 7 c 0
 549.5 2.3330078125 543.666992188 0 537 0 c 0
 530.333007812 0 524.666992188 2.3330078125 520 7 c 0
 515.333007812 11.6669921875 513 17.3330078125 513 24 c 2
EndSplineSet
EndChar

StartChar: I
Encoding: 73 73 7
Width: 305
Flags: MW
HStem: 0 21G<131.667 138.333> 680 20G<131.667 138.333>
VStem: 111 49<24 676>
LayerCount: 2
Fore
SplineSet
111 24 m 2
 111 676 l 2
 111 682.666992188 113.333007812 688.333007812 118 693 c 0
 122.666992188 697.666992188 128.333007812 700 135 700 c 0
 141.666992188 700 147.5 697.666992188 152.5 693 c 0
 157.5 688.333007812 160 682.666992188 160 676 c 2
 160 24 l 2
 160 17.3330078125 157.5 11.6669921875 152.5 7 c 0
 147.5 2.3330078125 141.666992188 0 135 0 c 0
 128.333007812 0 122.666992188 2.3330078125 118 7 c 0
 113.333007812 11.6669921875 111 17.3330078125 111 24 c 2
EndSplineSet
EndChar

StartChar: J
Encoding: 74 74 8
Width: 594
Flags: MW
HStem: 0 49<272 298 272 304.667> 680 20G<481.667 488.333>
VStem: 461 48<237 676>
LayerCount: 2
Fore
SplineSet
46 164 m 0
 44 170.666992188 44.5 177 47.5 183 c 0
 50.5 189 55.3330078125 193 62 195 c 0
 68.6669921875 197 75 196.5 81 193.5 c 0
 87 190.5 90.6669921875 186 92 180 c 0
 104.666992188 140.666992188 127.5 108.833007812 160.5 84.5 c 0
 193.5 60.1669921875 230.666992188 48.3330078125 272 49 c 0
 324 49 368.5 67.3330078125 405.5 104 c 0
 442.5 140.666992188 461 185 461 237 c 2
 461 676 l 2
 461 682.666992188 463.333007812 688.333007812 468 693 c 0
 472.666992188 697.666992188 478.333007812 700 485 700 c 0
 491.666992188 700 497.333007812 697.666992188 502 693 c 0
 506.666992188 688.333007812 509 682.666992188 509 676 c 2
 509 237 l 2
 509 171 485.833007812 115 439.5 69 c 0
 393.166992188 23 337.333007812 0 272 0 c 0
 220 0 173.166992188 15.3330078125 131.5 46 c 0
 89.8330078125 76.6669921875 61.3330078125 116 46 164 c 0
EndSplineSet
EndChar

StartChar: K
Encoding: 75 75 9
Width: 715
Flags: MW
HStem: 0 21G<124.667 131.333 591.333 598.667>
VStem: 104 49<24 199 268 673>
LayerCount: 2
Fore
SplineSet
104 24 m 2
 104 673 l 2
 104 679.666992188 106.333007812 685.5 111 690.5 c 0
 115.666992188 695.5 121.333007812 698 128 698 c 0
 134.666992188 698 140.5 695.666992188 145.5 691 c 0
 150.5 686.333007812 153 680.333007812 153 673 c 2
 153 268 l 1
 576 691 l 2
 581.333007812 695.666992188 587.333007812 698 594 698 c 0
 600.666992188 698 606.333007812 695.666992188 611 691 c 0
 615.666992188 686.333007812 618 680.666992188 618 674 c 0
 618 667.333007812 615.333007812 661.333007812 610 656 c 2
 342 388 l 1
 616 40 l 2
 624.666992188 28 623.333007812 16.3330078125 612 5 c 0
 608 1.6669921875 602.333007812 0 595 0 c 0
 587.666992188 0 582 3 578 9 c 2
 307 353 l 1
 153 199 l 1
 153 24 l 2
 153 17.3330078125 150.5 11.6669921875 145.5 7 c 0
 140.5 2.3330078125 134.666992188 0 128 0 c 0
 121.333007812 0 115.666992188 2.3330078125 111 7 c 0
 106.333007812 11.6669921875 104 17.3330078125 104 24 c 2
EndSplineSet
EndChar

StartChar: L
Encoding: 76 76 10
Width: 563
Flags: MW
HStem: 0 49<124.667 488 153 488 153 488> 680 20G<124.667 131.333>
VStem: 104 49<49 676 49 676 49 679.333>
LayerCount: 2
Fore
SplineSet
488 0 m 2
 128 0 l 2
 121.333007812 0 115.666992188 2.3330078125 111 7 c 0
 106.333007812 11.6669921875 104 17.3330078125 104 24 c 2
 104 676 l 2
 104 682.666992188 106.333007812 688.333007812 111 693 c 0
 115.666992188 697.666992188 121.333007812 700 128 700 c 0
 134.666992188 700 140.5 697.666992188 145.5 693 c 0
 150.5 688.333007812 153 682.666992188 153 676 c 2
 153 49 l 1
 488 49 l 2
 494.666992188 49 500.5 46.5 505.5 41.5 c 0
 510.5 36.5 513 30.6669921875 513 24 c 0
 513 17.3330078125 510.5 11.6669921875 505.5 7 c 0
 500.5 2.3330078125 494.666992188 0 488 0 c 2
EndSplineSet
EndChar

StartChar: M
Encoding: 77 77 11
Width: 844
Flags: MW
HStem: 0 21G<125.667 132.333 664.667 671.333>
VStem: 104 49<24 599> 644 48<24 600 600 600>
LayerCount: 2
Fore
SplineSet
644 24 m 2
 644 600 l 1
 420 289 l 2
 415.333007812 281.666992188 408.666992188 278 400 278 c 2
 398 278 l 2
 388.666992188 278 381.666992188 281.666992188 377 289 c 2
 153 599 l 1
 153 24 l 2
 153 17.3330078125 150.666992188 11.6669921875 146 7 c 0
 141.333007812 2.3330078125 135.666992188 0 129 0 c 0
 122.333007812 0 116.5 2.3330078125 111.5 7 c 0
 106.5 11.6669921875 104 17.3330078125 104 24 c 2
 104 672 l 2
 104 680 107.333007812 686.333007812 114 691 c 1
 116 693 l 1
 129.333007812 701.666992188 140.666992188 699.666992188 150 687 c 2
 399 342 l 1
 647 687 l 2
 650.333007812 692.333007812 655.5 695.5 662.5 696.5 c 0
 669.5 697.5 675.666992188 696.333007812 681 693 c 1
 688.333007812 685.666992188 692 678.666992188 692 672 c 2
 692 24 l 2
 692 17.3330078125 689.666992188 11.6669921875 685 7 c 0
 680.333007812 2.3330078125 674.666992188 0 668 0 c 0
 661.333007812 0 655.666992188 2.3330078125 651 7 c 0
 646.333007812 11.6669921875 644 17.3330078125 644 24 c 2
EndSplineSet
EndChar

StartChar: N
Encoding: 78 78 12
Width: 771
Flags: MW
HStem: 0 21G<127.667 134.333 593.333 600.667>
VStem: 107 48<24 597> 574 49<99 669>
LayerCount: 2
Fore
SplineSet
575 13 m 1
 155 597 l 1
 155 24 l 2
 155 17.3330078125 152.666992188 11.6669921875 148 7 c 0
 143.333007812 2.3330078125 137.666992188 0 131 0 c 0
 124.333007812 0 118.666992188 2.3330078125 114 7 c 0
 109.333007812 11.6669921875 107 17.3330078125 107 24 c 2
 107 666 l 1
 103.666992188 676.666992188 105.666992188 684.666992188 113 690 c 0
 120.333007812 695.333007812 127.5 697.5 134.5 696.5 c 0
 141.5 695.5 146.666992188 692.333007812 150 687 c 2
 574 99 l 1
 574 669 l 2
 574 675.666992188 576.333007812 681.333007812 581 686 c 0
 585.666992188 690.666992188 591.333007812 693 598 693 c 0
 604.666992188 693 610.5 690.666992188 615.5 686 c 0
 620.5 681.333007812 623 675.666992188 623 669 c 2
 623 24 l 2
 623 17.3330078125 620.5 11.6669921875 615.5 7 c 0
 610.5 2.3330078125 604.333007812 0 597 0 c 0
 589.666992188 0 583.666992188 3 579 9 c 2
 575 13 l 1
EndSplineSet
EndChar

StartChar: O
Encoding: 79 79 13
Width: 850
Flags: MW
HStem: 0 49<369.667 448.333 369.667 457.333> 660 50<370 449>
VStem: 73 49<355 355> 696 50<355 355>
LayerCount: 2
Fore
SplineSet
73 355 m 1
 73.6669921875 453.666992188 106.666992188 537.5 172 606.5 c 0
 237.333007812 675.5 316.833007812 710 410.5 710 c 0
 504.166992188 710 583.333007812 675.5 648 606.5 c 0
 712.666992188 537.5 745.333007812 453.666992188 746 355 c 1
 745.333007812 256.333007812 712.666992188 172.5 648 103.5 c 0
 583.333007812 34.5 504.166992188 0 410.5 0 c 0
 316.833007812 0 237.333007812 34.5 172 103.5 c 0
 106.666992188 172.5 73.6669921875 256.333007812 73 355 c 1
206.5 572 m 0
 150.166992188 513.333007812 122 441.166992188 122 355.5 c 0
 122 269.833007812 150.166992188 197.333007812 206.5 138 c 0
 262.833007812 78.6669921875 330.333007812 49 409 49 c 0
 487.666992188 49 555 78.8330078125 611 138.5 c 0
 667 198.166992188 695.333007812 270.333007812 696 355 c 1
 695.333007812 441 667.166992188 513.333007812 611.5 572 c 0
 555.833007812 630.666992188 488.5 660 409.5 660 c 0
 330.5 660 262.833007812 630.666992188 206.5 572 c 0
EndSplineSet
EndChar

StartChar: P
Encoding: 80 80 14
Width: 583
Flags: MW
HStem: 0 21G<124.667 131.333> 300 48 651 49<153 326 153 153>
VStem: 104 49<24 299 348 651> 477 48<479.333 520.667>
LayerCount: 2
Fore
SplineSet
104 24 m 2
 104 676 l 2
 104 682.666992188 106.333007812 688.333007812 111 693 c 0
 115.666992188 697.666992188 121.333007812 700 128 700 c 2
 326 700 l 2
 380.666992188 700 427.5 680.5 466.5 641.5 c 0
 505.5 602.5 525 555.5 525 500.5 c 0
 525 445.5 505.5 398.5 466.5 359.5 c 0
 427.5 320.5 380.666992188 301 326 301 c 2
 153 299 l 1
 153 24 l 2
 153 17.3330078125 150.5 11.6669921875 145.5 7 c 0
 140.5 2.3330078125 134.666992188 0 128 0 c 0
 121.333007812 0 115.666992188 2.3330078125 111 7 c 0
 106.333007812 11.6669921875 104 17.3330078125 104 24 c 2
153 348 m 1
 326 348 l 2
 367.333007812 348.666992188 402.833007812 363.833007812 432.5 393.5 c 0
 462.166992188 423.166992188 477 458.666992188 477 500 c 0
 477 541.333007812 462.166992188 576.833007812 432.5 606.5 c 0
 402.833007812 636.166992188 367.333007812 651 326 651 c 2
 153 651 l 1
 153 348 l 1
EndSplineSet
EndChar

StartChar: Q
Encoding: 81 81 15
Width: 844
Flags: MW
HStem: -144 49<620 642 642 643> -65 113<379 404> 659 51<402 402>
VStem: 66 50<313.667 396.333 311.667 407.333> 688 50<317.667 396.333>
LayerCount: 2
Fore
SplineSet
804 -49 m 0
 808 -54.3330078125 809.666992188 -60.5 809 -67.5 c 0
 808.333007812 -74.5 805.666992188 -80.3330078125 801 -85 c 0
 749.666992188 -124.333007812 697 -144 643 -144 c 2
 642 -144 l 2
 590.666992188 -144 532.666992188 -125 468 -87 c 0
 442 -72.3330078125 416.5 -65 391.5 -65 c 0
 366.5 -65 344.666992188 -67.6669921875 326 -73 c 0
 307.333007812 -78.3330078125 295.666992188 -83 291 -87 c 1
 290 -87 l 1
 280.666992188 -91.6669921875 271.333007812 -91 262 -85 c 1
 261 -85 l 1
 257 -79 254.166992188 -74.1669921875 252.5 -70.5 c 0
 250.833007812 -66.8330078125 251 -61.8330078125 253 -55.5 c 0
 255 -49.1669921875 259 -44.3330078125 265 -41 c 2
 358 1 l 1
 274.666992188 12.3330078125 205.166992188 51.6669921875 149.5 119 c 0
 93.8330078125 186.333007812 66 266.833007812 66 360.5 c 0
 66 454.166992188 98.6669921875 535.666992188 164 605 c 0
 229.333007812 674.333007812 308.666992188 709.333007812 402 710 c 1
 495.333007812 709.333007812 574.666992188 674.333007812 640 605 c 0
 705.333007812 535.666992188 738 452 738 354 c 0
 738 281.333007812 719 215.5 681 156.5 c 0
 643 97.5 593.333007812 54 532 26 c 2
 431 -21 l 1
 454.333007812 -25.6669921875 474.666992188 -33 492 -43 c 0
 549.333007812 -77.6669921875 599 -95 641 -95 c 0
 683 -95 725.666992188 -78.3330078125 769 -45 c 0
 782.333007812 -35.6669921875 794 -37 804 -49 c 0
116 354 m 0
 116 269.333007812 144 197.166992188 200 137.5 c 0
 256 77.8330078125 323.333007812 48 402 48 c 0
 480.666992188 48 548 77.8330078125 604 137.5 c 0
 660 197.166992188 688 269.333007812 688 354 c 0
 688 438.666992188 660 510.666992188 604 570 c 0
 548 629.333007812 480.666992188 659 402 659 c 0
 323.333007812 659 256 629.333007812 200 570 c 0
 144 510.666992188 116 438.666992188 116 354 c 0
EndSplineSet
EndChar

StartChar: R
Encoding: 82 82 16
Width: 625
Flags: MW
HStem: 0 21G<110.667 117.333> 301 48<139 309 139 316> 651 49<139 312 139 139>
VStem: 90 49<24 301 349 651> 452 59
LayerCount: 2
Fore
SplineSet
516 11 m 2
 473.333007812 11 452 60 452 158 c 0
 452 200.666992188 433 236 395 264 c 0
 367.4609375 283.478515625 339.377929688 295.603515625 310.75 300.375 c 0
 310.25 300.791992188 309.666992188 301 309 301 c 2
 139 301 l 1
 139 24 l 2
 139 17.3330078125 136.5 11.6669921875 131.5 7 c 0
 126.5 2.3330078125 120.666992188 0 114 0 c 0
 107.333007812 0 101.666992188 2.3330078125 97 7 c 0
 92.3330078125 11.6669921875 90 17.3330078125 90 24 c 2
 90 676 l 2
 90 682 92.1669921875 687.333007812 96.5 692 c 0
 100.833007812 696.666992188 106 699.333007812 112 700 c 2
 312 700 l 2
 367.333007812 700 414.333007812 680.5 453 641.5 c 0
 491.666992188 602.5 511 555.333007812 511 500 c 0
 511 460.666992188 500.5 424.666992188 479.5 392 c 0
 458.5 359.333007812 430.666992188 335 396 319 c 1
 406 314 l 1
 432.666992188 298.666992188 455 278 473 252 c 0
 491 226 500 190.666992188 500 146 c 0
 500 101.333007812 506.333007812 72.6669921875 519 60 c 1
 533 61.3330078125 542 56 546 44 c 1
 549.333007812 28 544 17.3330078125 530 12 c 1
 528 12 l 1
 518 11 l 1
 516 11 l 2
420 395 m 0
 448.666992188 424.333007812 463 459.666992188 463 501 c 0
 463 542.333007812 448.166992188 577.666992188 418.5 607 c 0
 388.833007812 636.333007812 353.333007812 651 312 651 c 2
 139 651 l 1
 139 349 l 1
 316 349 l 1
 356.666992188 350.333007812 391.333007812 365.666992188 420 395 c 0
EndSplineSet
EndChar

StartChar: S
Encoding: 83 83 17
Width: 667
Flags: MW
HStem: -1 45<333 363.667 333 367.667> 666 44<303 343>
VStem: 89 44<528 546.333 528 554> 547 45<173.667 221 166 231.227>
LayerCount: 2
Fore
SplineSet
133 528 m 0
 134.337890625 461.08203125 201.671875 415.08203125 335 390 c 1
 337 390 l 1
 413.666992188 376 473 354.666992188 515 326 c 1
 566.333007812 292.666992188 592 248.5 592 193.5 c 0
 592 138.5 566.166992188 92.3330078125 514.5 55 c 0
 462.833007812 17.6669921875 402.333007812 -1 333 -1 c 0
 245 -0.3330078125 159 33.3330078125 75 100 c 0
 64.3330078125 109.333007812 63.3330078125 119.666992188 72 131 c 0
 76 135.666992188 81 138.333007812 87 139 c 0
 93 139.666992188 98.3330078125 138 103 134 c 0
 178.333007812 73.3330078125 255 43.3330078125 333 44 c 0
 394.333007812 44 445.666992188 59.3330078125 487 90 c 0
 527 118.666992188 547 153.333007812 547 194 c 0
 547 268.453125 474 319.453125 328 347 c 1
 326 347 l 1
 168 376.532226562 89 436.866210938 89 528 c 0
 89 580 112.833007812 623.333007812 160.5 658 c 0
 208.166992188 692.666992188 265 710 331 710 c 0
 359.666992188 710 388.5 705.166992188 417.5 695.5 c 0
 446.5 685.833007812 469 676.5 485 667.5 c 0
 501 658.5 521.666992188 645.666992188 547 629 c 0
 559 621 561 610.666992188 553 598 c 0
 545.583984375 586.134765625 535.583984375 584.134765625 523 592 c 0
 499 607.333007812 479.5 619.333007812 464.5 628 c 0
 449.5 636.666992188 429.5 645.166992188 404.5 653.5 c 0
 379.5 661.833007812 355 666 331 666 c 0
 275 666 227.333007812 652 188 624 c 1
 151.333007812 596.666992188 133 564.666992188 133 528 c 0
EndSplineSet
EndChar

StartChar: T
Encoding: 84 84 18
Width: 648
Flags: MW
HStem: 0 21G<305.667 312.333> 651 49<70.6665 544 74 285 333 333 333 544>
VStem: 285 48<24 651>
LayerCount: 2
Fore
SplineSet
285 24 m 2
 285 651 l 1
 74 651 l 2
 67.3330078125 651 61.6669921875 653.5 57 658.5 c 0
 52.3330078125 663.5 50 669.333007812 50 676 c 0
 50 682.666992188 52.3330078125 688.333007812 57 693 c 0
 61.6669921875 697.666992188 67.3330078125 700 74 700 c 2
 544 700 l 2
 550.666992188 700 556.333007812 697.666992188 561 693 c 0
 565.666992188 688.333007812 568 682.666992188 568 676 c 0
 568 669.333007812 565.666992188 663.5 561 658.5 c 0
 556.333007812 653.5 550.666992188 651 544 651 c 2
 333 651 l 1
 333 24 l 2
 333 17.3330078125 330.666992188 11.6669921875 326 7 c 0
 321.333007812 2.3330078125 315.666992188 0 309 0 c 0
 302.333007812 0 296.666992188 2.3330078125 292 7 c 0
 287.333007812 11.6669921875 285 17.3330078125 285 24 c 2
EndSplineSet
EndChar

StartChar: U
Encoding: 85 85 19
Width: 814
Flags: MW
HStem: 0 49<388 388> 680 20G<125.667 132.333 642.667 649.333>
VStem: 105 49<283 676> 622 49<283 676>
LayerCount: 2
Fore
SplineSet
105 283 m 2
 105 676 l 2
 105 682.666992188 107.333007812 688.333007812 112 693 c 0
 116.666992188 697.666992188 122.333007812 700 129 700 c 0
 135.666992188 700 141.5 697.666992188 146.5 693 c 0
 151.5 688.333007812 154 682.666992188 154 676 c 2
 154 283 l 2
 154 218.333007812 176.833007812 163.333007812 222.5 118 c 0
 268.166992188 72.6669921875 323 49.6669921875 387 49 c 1
 452.333007812 49.6669921875 507.833007812 72.6669921875 553.5 118 c 0
 599.166992188 163.333007812 622 218.333007812 622 283 c 2
 622 676 l 2
 622 682.666992188 624.333007812 688.333007812 629 693 c 0
 633.666992188 697.666992188 639.333007812 700 646 700 c 0
 652.666992188 700 658.5 697.666992188 663.5 693 c 0
 668.5 688.333007812 671 682.666992188 671 676 c 2
 671 283 l 2
 671 205 643.333007812 138.333007812 588 83 c 0
 532.666992188 27.6669921875 466 0 388 0 c 0
 310 0 243.333007812 27.6669921875 188 83 c 0
 132.666992188 138.333007812 105 205 105 283 c 2
EndSplineSet
EndChar

StartChar: V
Encoding: 86 86 20
Width: 750
Flags: W
HStem: 0 21G<351.667 355.333> 1 21G
LayerCount: 2
Fore
SplineSet
365 2 m 1x40
 361 0.6669921875 357.166992188 0 353.5 0 c 0x80
 349.833007812 0 347.333007812 0.6669921875 346 2 c 0
 340 4 336 8 334 14 c 0
 333.333007812 14 333 14.6669921875 333 16 c 2
 332 17 l 1
 61 662 l 2
 58.3330078125 668 58.3330078125 674.166992188 61 680.5 c 0
 63.6669921875 686.833007812 68 691.333007812 74 694 c 0
 80 696.666992188 86.1669921875 696.833007812 92.5 694.5 c 0
 98.8330078125 692.166992188 103.333007812 688 106 682 c 2
 356 86 l 1
 607 682 l 2
 609 688 613.166992188 692.166992188 619.5 694.5 c 0
 625.833007812 696.833007812 632 696.666992188 638 694 c 0
 644 691.333007812 648.333007812 686.833007812 651 680.5 c 0
 653.666992188 674.166992188 653.666992188 668 651 662 c 2
 380 22 l 1
 378.666992188 12 374 5.3330078125 366 2 c 1
 365 2 l 1x40
EndSplineSet
EndChar

StartChar: W
Encoding: 87 87 21
Width: 1102
Flags: MW
HStem: 0 21G<356 361.333 756.667 761 761 766>
LayerCount: 2
Fore
SplineSet
761 0 m 2
 752.333007812 0 745.666992188 4.6669921875 741 14 c 0
 741 15.3330078125 740.666992188 16.3330078125 740 17 c 2
 562 440 l 1
 383 17 l 1
 383 13.6669921875 380.666992188 9.6669921875 376 5 c 1
 369.333007812 1.6669921875 363.666992188 0 359 0 c 0
 353 0 347.916992188 2.0830078125 343.75 6.25 c 0
 339.583007812 10.4169921875 337 15 336 20 c 1
 66 662 l 2
 63.3330078125 668 63.1669921875 674.166992188 65.5 680.5 c 0
 67.8330078125 686.833007812 72 691.333007812 78 694 c 0
 84 696.666992188 90.1669921875 696.833007812 96.5 694.5 c 0
 102.833007812 692.166992188 107.333007812 688 110 682 c 2
 360 87 l 1
 538 508 l 1
 543.333007812 518 551.333007812 523 562 523 c 0
 572.666992188 523 580.666992188 518 586 508 c 1
 763 87 l 1
 1013 682 l 1
 1020.33300781 696.666992188 1031.33300781 700.666992188 1046 694 c 0
 1052 691.333007812 1056.16699219 686.833007812 1058.5 680.5 c 0
 1060.83300781 674.166992188 1060.66699219 668 1058 662 c 2
 786 16 l 2
 782 6.6669921875 775.333007812 1.3330078125 766 0 c 1
 761 0 l 2
EndSplineSet
EndChar

StartChar: X
Encoding: 88 88 22
Width: 722
Flags: MW
HStem: 0 21G<100.667 107.333 568 574>
LayerCount: 2
Fore
SplineSet
86 5 m 0
 72.6669921875 15 71.3330078125 26.3330078125 82 39 c 1
 307 348 l 1
 82 657 l 2
 77.3330078125 662.333007812 75.5 668.5 76.5 675.5 c 0
 77.5 682.5 80.6669921875 687.666992188 86 691 c 1
 91.3330078125 695.666992188 97.5 697.5 104.5 696.5 c 0
 111.5 695.5 116.666992188 692.333007812 120 687 c 2
 337 389 l 1
 554 687 l 1
 564.666992188 699.666992188 576 701 588 691 c 0
 593.333007812 687.666992188 596.666992188 682.5 598 675.5 c 0
 599.333007812 668.5 597.666992188 662.333007812 593 657 c 2
 367 348 l 1
 593 39 l 2
 597.666992188 33.6669921875 599.333007812 27.6669921875 598 21 c 0
 596.666992188 14.3330078125 593.333007812 9.1669921875 588 5.5 c 0
 582.666992188 1.8330078125 577 0 571 0 c 0
 565 0 559.333007812 3.6669921875 554 11 c 2
 337 308 l 1
 120 11 l 1
 116 3.6669921875 110.666992188 0 104 0 c 0
 97.3330078125 0 91.3330078125 1.6669921875 86 5 c 0
EndSplineSet
EndChar

StartChar: Y
Encoding: 89 89 23
Width: 604
Flags: MW
HStem: 0 21G<316.667 323.333>
VStem: 296 48<24 336 336 336>
LayerCount: 2
Fore
SplineSet
296 24 m 2
 296 336 l 1
 61 657 l 1
 52.3330078125 671 54 682.333007812 66 691 c 0
 71.3330078125 695.666992188 77.5 697.5 84.5 696.5 c 0
 91.5 695.5 96.6669921875 692.333007812 100 687 c 2
 319 386 l 1
 539 687 l 2
 542.333007812 692.333007812 547.5 695.5 554.5 696.5 c 0
 561.5 697.5 567.666992188 695.666992188 573 691 c 1
 578.333007812 687.666992188 581.5 682.5 582.5 675.5 c 0
 583.5 668.5 582 662.333007812 578 657 c 2
 344 338 l 1
 344 24 l 2
 344 17.3330078125 341.666992188 11.6669921875 337 7 c 0
 332.333007812 2.3330078125 326.666992188 0 320 0 c 0
 313.333007812 0 307.666992188 2.3330078125 303 7 c 0
 298.333007812 11.6669921875 296 17.3330078125 296 24 c 2
EndSplineSet
EndChar

StartChar: Z
Encoding: 90 90 24
Width: 667
Flags: W
HStem: 0 49<145 571 145 571> 1 21G<89 89> 648 48<94.6665 563 98 522>
LayerCount: 2
Fore
SplineSet
96 0 m 1xa0
 89 1 l 1x60
 74.240234375 8.3798828125 69.5732421875 19.046875 75 33 c 0
 77 37 79 40 81 42 c 2
 522 648 l 1
 98 648 l 2
 91.3330078125 648 85.6669921875 650.333007812 81 655 c 0
 76.3330078125 659.666992188 74 665.333007812 74 672 c 0
 74 678.666992188 76.3330078125 684.333007812 81 689 c 0
 85.6669921875 693.666992188 91.3330078125 696 98 696 c 2
 563 696 l 1
 572.23046875 698.76953125 581.23046875 695.76953125 590 687 c 0
 598 677.666992188 598 667.666992188 590 657 c 2
 145 49 l 1
 571 49 l 2
 577.666992188 49 583.333007812 46.6669921875 588 42 c 0
 592.666992188 37.3330078125 595 31.5 595 24.5 c 0
 595 17.5 592.666992188 11.6669921875 588 7 c 0
 583.333007812 2.3330078125 577.666992188 0 571 0 c 2
 96 0 l 1xa0
EndSplineSet
EndChar

StartChar: ampersand
Encoding: 38 38 25
Width: 696
Flags: W
HStem: 0 49<253.333 302.667 253.333 309.333> 272 49<389.667 429.333> 507 193<249.667 420.333> 651 49<256.333 289.667>
VStem: 49 49<204.333 246.333 204.333 248> 104 49<510.333 544 507 555.667> 242 49<187 207.333> 393 49<527.667 547.667> 458 49<204.333 235.333>
LayerCount: 2
Fore
SplineSet
565 367 m 0xdf80
 567.545898438 325.423828125 546.545898438 295.090820312 502 276 c 1
 505.333007812 259.333007812 507 243.666992188 507 229 c 0
 507 165.666992188 484.5 111.666992188 439.5 67 c 0
 394.5 22.3330078125 340.666992188 0 278 0 c 0
 215.333007812 0 161.5 22.3330078125 116.5 67 c 0
 71.5 111.666992188 49 165.666992188 49 229 c 0
 49 267 57.8330078125 302.666992188 75.5 336 c 0
 93.1669921875 369.333007812 117.333007812 396.666992188 148 418 c 1
 118.666992188 449.333007812 104 487.666992188 104 533 c 0
 104 578.333007812 120.5 617.5 153.5 650.5 c 0
 186.5 683.5 226.333007812 700 273 700 c 0
 319.666992188 700 359.5 683.5 392.5 650.5 c 0
 425.5 617.5 442 577.666992188 442 531 c 0
 442 524.333007812 439.5 518.666992188 434.5 514 c 0
 429.5 509.333007812 423.666992188 507 417 507 c 0xef80
 410.333007812 507 404.666992188 509.333007812 400 514 c 0
 395.333007812 518.666992188 393 524.333007812 393 531 c 0
 393 564.333007812 381.333007812 592.666992188 358 616 c 0
 334.666992188 639.333007812 306.333007812 651 273 651 c 0
 239.666992188 651 211.333007812 639.333007812 188 616 c 0
 164.666992188 592.666992188 153 562.5 153 525.5 c 0
 153 488.5 170 458 204 434 c 0
 214.666992188 425.333007812 217.333007812 415.666992188 212 405 c 1
 211.333007812 401 209 397.5 205 394.5 c 0
 201 391.5 197.666992188 389.666992188 195 389 c 0
 165.666992188 373 142.166992188 351 124.5 323 c 0
 106.833007812 295 98 263.666992188 98 229 c 0
 98 179.666992188 115.666992188 137.333007812 151 102 c 0
 186.333007812 66.6669921875 228.666992188 49 278 49 c 0
 327.333007812 49 369.666992188 66.6669921875 405 102 c 0
 440.333007812 137.333007812 458 179.666992188 458 229 c 0
 458 241.666992188 456.333007812 255.333007812 453 270 c 1
 445.666992188 271.333007812 435.666992188 272 423 272 c 0
 335 272 291 244.666992188 291 190 c 0
 291 184 292 177 294 169 c 0
 297.333007812 153 292 142.666992188 278 138 c 0
 276 137.333007812 273.666992188 137 271 137 c 0
 258.333007812 137 250.333007812 142.666992188 247 154 c 1
 243.666992188 157.333007812 242 169.333007812 242 190 c 0
 242 224.666992188 253.666992188 253 277 275 c 0
 307.666992188 305.666992188 356.333007812 321 423 321 c 0
 439 321 450.666992188 320.333007812 458 319 c 1
 474 319 l 1
 485.333007812 321 494.666992188 324.666992188 502 330 c 1
 511.333007812 339.333007812 516 350.5 516 363.5 c 0
 516 376.5 515.333007812 386.333007812 514 393 c 0
 512 399.666992188 512.833007812 405.833007812 516.5 411.5 c 0
 520.166992188 417.166992188 525.333007812 420.666992188 532 422 c 0
 546.666992188 425.333007812 556.666992188 419.333007812 562 404 c 1
 564 390 565 377.666992188 565 367 c 0xdf80
EndSplineSet
EndChar

StartChar: zero
Encoding: 48 48 27
Width: 710
Flags: MW
HStem: 0 49<280.667 331.333 280.667 341.333> 651 49<280 332>
VStem: 65 49<307.333 392.667 307.333 398> 501 49<307.667 392.333>
LayerCount: 2
Fore
SplineSet
307 0 m 0
 238.333007812 0 180.833007812 34.3330078125 134.5 103 c 0
 88.1669921875 171.666992188 65 254 65 350 c 0
 65 446 87.3330078125 527.666992188 132 595 c 1
 180.666992188 665 239 700 307 700 c 0
 375 700 433.333007812 665 482 595 c 1
 527.333007812 525 550 443.333007812 550 350 c 0
 550 256.666992188 527.333007812 175.333007812 482 106 c 1
 434 35.3330078125 375.666992188 0 307 0 c 0
501 350 m 0
 501 434.666992188 481.5 506 442.5 564 c 0
 403.5 622 358 651 306 651 c 0
 254 651 209 622.166992188 171 564.5 c 0
 133 506.833007812 114 435.333007812 114 350 c 0
 114 264.666992188 133.666992188 192.333007812 173 133 c 0
 211 77 255.333007812 49 306 49 c 0
 356.666992188 49 401.666992188 77 441 133 c 1
 481 193 501 265.333007812 501 350 c 0
EndSplineSet
EndChar

StartChar: one
Encoding: 49 49 28
Width: 335
Flags: MW
HStem: 0 21G<189.667 196.333>
VStem: 169 48<24 629 629 629>
LayerCount: 2
Fore
SplineSet
169 24 m 2
 169 629 l 1
 70 571 l 2
 66 568.333007812 60.6669921875 567 54 567 c 0
 47.3330078125 567 41.6669921875 571 37 579 c 0
 29 593.666992188 32 604.666992188 46 612 c 1
 181 694 l 2
 186.333007812 697.333007812 192.5 698 199.5 696 c 0
 213.711914062 691.939453125 219.545898438 682.272460938 217 667 c 1
 217 24 l 2
 217 17.3330078125 214.666992188 11.6669921875 210 7 c 0
 205.333007812 2.3330078125 199.666992188 0 193 0 c 0
 186.333007812 0 180.666992188 2.3330078125 176 7 c 0
 171.333007812 11.6669921875 169 17.3330078125 169 24 c 2
EndSplineSet
EndChar

StartChar: two
Encoding: 50 50 29
Width: 590
Flags: MW
HStem: 0 49<134 465 134 465> 651 49<241 291>
VStem: 441 48<442 491>
LayerCount: 2
Fore
SplineSet
53 7 m 0
 42.3330078125 19.6669921875 42.6669921875 31.6669921875 54 43 c 2
 381 338 l 2
 421 374.666992188 441 417.5 441 466.5 c 0
 441 515.5 424.333007812 558.5 391 595.5 c 0
 357.666992188 632.5 316 651 266 651 c 0
 216 651 173.666992188 635.666992188 139 605 c 2
 105 574 l 2
 99.6669921875 569.333007812 93.6669921875 567 87 567 c 0
 80.3330078125 567 74.8330078125 569.666992188 70.5 575 c 0
 66.1669921875 580.333007812 64 586.333007812 64 593 c 0
 64 599.666992188 66.6669921875 605 72 609 c 2
 106 641 l 1
 150.666992188 680.333007812 204.666992188 700 268 700 c 0
 331.333007812 700 385 675 429 625 c 1
 469 582.333007812 489 529.333007812 489 466 c 0
 489 402.666992188 464 348 414 302 c 2
 134 49 l 1
 465 49 l 2
 471.666992188 49 477.333007812 46.5 482 41.5 c 0
 486.666992188 36.5 489 30.6669921875 489 24 c 0
 489 17.3330078125 486.666992188 11.6669921875 482 7 c 0
 477.333007812 2.3330078125 471.666992188 0 465 0 c 2
 71 0 l 2
 63 0 57 2.3330078125 53 7 c 0
EndSplineSet
EndChar

StartChar: three
Encoding: 51 51 30
Width: 610
Flags: MW
HStem: 0 51<223.333 274.667 223.333 280.667> 650 50<130.667 461 134 402>
VStem: 436 50<212 264>
LayerCount: 2
Fore
SplineSet
483 664 m 1
 482.333007812 661.333007812 480.666992188 658.666992188 478 656 c 2
 297 470 l 1
 343.666992188 460.666992188 383.666992188 439.333007812 417 406 c 0
 463 360 486 304 486 238 c 0
 486 172 462.666992188 115.833007812 416 69.5 c 0
 369.333007812 23.1669921875 313.333007812 0 248 0 c 0
 182.666992188 0 127 23.3330078125 81 70 c 0
 76.3330078125 74.6669921875 74 80.5 74 87.5 c 0
 74 94.5 76.3330078125 100.333007812 81 105 c 0
 85.6669921875 109.666992188 91.3330078125 112 98 112 c 0
 104.666992188 112 110.666992188 109.666992188 116 105 c 0
 153.333007812 69 197.666992188 51 249 51 c 0
 300.333007812 51 344.333007812 69.1669921875 381 105.5 c 0
 417.666992188 141.833007812 436 186 436 238 c 0
 436 290 417.833007812 334.166992188 381.5 370.5 c 0
 345.166992188 406.833007812 301 425 249 425 c 0
 241 425 234.333007812 428.333007812 229 435 c 1
 228 435 l 1
 222.666992188 439.666992188 220 445.666992188 220 453 c 0
 220 460.333007812 222.666992188 466.333007812 228 471 c 2
 402 650 l 1
 134 650 l 2
 127.333007812 650 121.5 652.333007812 116.5 657 c 0
 111.5 661.666992188 109 667.666992188 109 675 c 0
 109 682.333007812 111.5 688.333007812 116.5 693 c 0
 121.5 697.666992188 127.333007812 700 134 700 c 2
 461 700 l 2
 468.333007812 700 474.333007812 697.666992188 479 693 c 0
 483.666992188 688.333007812 486 683 486 677 c 0
 486 671 485 666.666992188 483 664 c 1
EndSplineSet
EndChar

StartChar: four
Encoding: 52 52 31
Width: 664
Flags: W
HStem: 0 192<125 483.333> 144 48<125 456 125 456 505 552>
VStem: 456 49<24 144 192 602 602 602> 456 121<24 171.333 144 171.333 164.667 602>
LayerCount: 2
Fore
SplineSet
496 691 m 0x60
 499.142578125 688.904296875 502.142578125 683.571289062 505 675 c 1
 505 192 l 1x60
 552 192 l 2
 558.666992188 192 564.5 189.666992188 569.5 185 c 0
 574.5 180.333007812 577 174.666992188 577 168 c 0x50
 577 161.333007812 574.5 155.666992188 569.5 151 c 0
 564.5 146.333007812 558.666992188 144 552 144 c 2
 505 144 l 1x60
 505 24 l 2
 505 17.3330078125 502.5 11.6669921875 497.5 7 c 0
 492.5 2.3330078125 486.666992188 0 480 0 c 0xa0
 473.333007812 0 467.666992188 2.3330078125 463 7 c 0
 458.333007812 11.6669921875 456 17.3330078125 456 24 c 2
 456 144 l 1
 74 144 l 2
 67.3330078125 144 61.8330078125 145.833007812 57.5 149.5 c 0
 53.1669921875 153.166992188 50.6669921875 158.5 50 165.5 c 0
 49.3330078125 172.5 51.3330078125 178.333007812 56 183 c 2
 461 687 l 1
 462 688 l 1
 472 700 483.333007812 701 496 691 c 0x60
125 192 m 1xa0
 456 192 l 1
 456 602 l 1
 125 192 l 1xa0
EndSplineSet
EndChar

StartChar: five
Encoding: 53 53 32
Width: 605
Flags: MW
HStem: 0 50<213 264 213 269.667> 424 50<217.667 265> 650 50<145 450 145 145>
VStem: 425 50<212 264>
LayerCount: 2
Fore
SplineSet
64 381 m 0
 63.3330078125 382.333007812 63.1669921875 384.666992188 63.5 388 c 0
 63.8330078125 391.333007812 64 393.333007812 64 394 c 2
 98 676 l 2
 98 683.333007812 101.333007812 689.333007812 108 694 c 0
 112 698 117.333007812 700 124 700 c 2
 450 700 l 2
 456.666992188 700 462.5 697.666992188 467.5 693 c 0
 472.5 688.333007812 475 682.333007812 475 675 c 0
 475 667.666992188 472.666992188 661.666992188 468 657 c 0
 463.333007812 652.333007812 457.333007812 650 450 650 c 2
 145 650 l 1
 120 442 l 1
 156.666992188 463.333007812 196.333007812 474 239 474 c 0
 305 474 360.833007812 451.166992188 406.5 405.5 c 0
 452.166992188 359.833007812 475 303.666992188 475 237 c 0
 475 170.333007812 451.666992188 114.166992188 405 68.5 c 0
 358.333007812 22.8330078125 302.333007812 0 237 0 c 0
 171.666992188 0 116 23 70 69 c 0
 64.6669921875 73.6669921875 62 79.5 62 86.5 c 0
 62 93.5 64.6669921875 99.5 70 104.5 c 0
 75.3330078125 109.5 81.3330078125 112 88 112 c 0
 94.6669921875 112 100.666992188 109.333007812 106 104 c 0
 143.333007812 68 187.5 50 238.5 50 c 0
 289.5 50 333.333007812 68.3330078125 370 105 c 0
 406.666992188 141.666992188 425 186 425 238 c 0
 425 290 407 334 371 370 c 0
 335 406 291 424 239 424 c 0
 187 424 142.666992188 405.666992188 106 369 c 0
 100.666992188 364.333007812 94.6669921875 362 88 362 c 0
 76.6669921875 362 69 367 65 377 c 1
 65 378 l 2
 64.3330078125 378.666992188 64 379.666992188 64 381 c 0
EndSplineSet
EndChar

StartChar: six
Encoding: 54 54 33
Width: 642
Flags: MW
HStem: 0 49<276.333 324.667 276.333 330.333> 413 49<272.333 322.667> 650 49<378 378>
VStem: 66 49 481 48<206 256>
LayerCount: 2
Fore
SplineSet
64 269 m 0
 65.3330078125 377.666992188 88 470.333007812 132 547 c 0
 187.333007812 644.333007812 269 695 377 699 c 0
 383.666992188 699.666992188 389.333007812 697.666992188 394 693 c 0
 398.666992188 688.333007812 401.166992188 682.666992188 401.5 676 c 0
 401.833007812 669.333007812 399.666992188 663.5 395 658.5 c 0
 390.333007812 653.5 384.666992188 650.666992188 378 650 c 0
 290.666992188 646.666992188 222.666992188 604.333007812 174 523 c 0
 152 485 135.333007812 438.333007812 124 383 c 1
 170 435.666992188 226.5 462 293.5 462 c 0
 360.5 462 416.5 439.333007812 461.5 394 c 0
 506.5 348.666992188 529 294.166992188 529 230.5 c 0
 529 166.833007812 506.5 112.5 461.5 67.5 c 0
 416.5 22.5 362.166992188 0 298.5 0 c 0
 234.833007812 0 180.666992188 21.6669921875 136 65 c 0
 91.3330078125 108.333007812 68 161 66 223 c 1
 64.6669921875 233 64 248.333007812 64 269 c 0
115 231 m 2
 115 227 l 2
 115 223.666992188 115.333007812 219.833007812 116 215.5 c 0
 116.666992188 211.166992188 116.666992188 208.333007812 116 207 c 0
 122 162.333007812 142.166992188 124.833007812 176.5 94.5 c 0
 210.833007812 64.1669921875 252.166992188 49 300.5 49 c 0
 348.833007812 49 391 66.8330078125 427 102.5 c 0
 463 138.166992188 481 181 481 231 c 0
 481 281 463 323.833007812 427 359.5 c 0
 391 395.166992188 347.833007812 413 297.5 413 c 0
 247.166992188 413 204.166992188 395.166992188 168.5 359.5 c 0
 132.833007812 323.833007812 115 281 115 231 c 2
EndSplineSet
EndChar

StartChar: seven
Encoding: 55 55 34
Width: 587
Flags: MW
HStem: 0 21G<185.017 195.508> 648 48<84.6665 458 88 426>
LayerCount: 2
Fore
SplineSet
213 15 m 2
 208.333007812 5 200.75390625 0 190.262695312 0 c 0
 179.771484375 0 172.771484375 4.1669921875 169.262695312 12.5 c 0
 165.75390625 20.8330078125 165 28 167 34 c 2
 426 648 l 1
 88 648 l 2
 81.3330078125 648 75.6669921875 650.333007812 71 655 c 0
 66.3330078125 659.666992188 64 665.333007812 64 672 c 0
 64 678.666992188 66.3330078125 684.333007812 71 689 c 0
 75.6669921875 693.666992188 81.3330078125 696 88 696 c 2
 458 696 l 1
 463.333007812 697.333007812 468.333007812 697 473 695 c 0
 483 690 488 683.583007812 488 675.75 c 0
 488 667.916992188 486.666992188 662.333007812 484 659 c 1
 213 15 l 2
EndSplineSet
EndChar

StartChar: eight
Encoding: 56 56 35
Width: 630
Flags: MW
HStem: 0 48<257.667 307.333 257.667 313.333> 406 50<282 282> 652 48<269 296>
VStem: 55 48<202.333 250.333> 137 48<541.333 568.667 541.333 570.667> 380 48<541.667 568.333> 461 48<202.333 250.333 195.333 251.667>
LayerCount: 2
Fore
SplineSet
195 437 m 1
 156.333007812 467 137 504.166992188 137 548.5 c 0
 137 592.833007812 151 629.166992188 179 657.5 c 0
 207 685.833007812 241.166992188 700 281.5 700 c 0
 321.833007812 700 356.333007812 685.833007812 385 657.5 c 0
 413.666992188 629.166992188 428 592.833007812 428 548.5 c 0
 428 504.166992188 408 467 368 437 c 1
 410 419.666992188 444 392 470 354 c 0
 496 316 509 273.666992188 509 227 c 0
 509 163.666992188 486.833007812 110 442.5 66 c 0
 398.166992188 22 344.666992188 0 282 0 c 0
 219.333007812 0 165.833007812 22.1669921875 121.5 66.5 c 0
 77.1669921875 110.833007812 55 164.333007812 55 227 c 0
 55 273.666992188 68 316 94 354 c 0
 120 392 153.666992188 419.666992188 195 437 c 1
103 227 m 0
 103 177.666992188 120.5 135.5 155.5 100.5 c 0
 190.5 65.5 232.833007812 48 282.5 48 c 0
 332.166992188 48 374.333007812 65.5 409 100.5 c 0
 443.666992188 135.5 461 177.666992188 461 227 c 0
 461 276.333007812 443.666992188 318.5 409 353.5 c 0
 374.333007812 388.5 332.166992188 406 282.5 406 c 0
 232.833007812 406 190.5 388.5 155.5 353.5 c 0
 120.5 318.5 103 276.333007812 103 227 c 0
185 555 m 0
 185 527.666992188 194.5 504.5 213.5 485.5 c 0
 232.5 466.5 255.333007812 456.666992188 282 456 c 1
 309.333007812 456.666992188 332.5 466.666992188 351.5 486 c 0
 370.5 505.333007812 380 528.333007812 380 555 c 0
 380 581.666992188 370.5 604.5 351.5 623.5 c 0
 332.5 642.5 309.5 652 282.5 652 c 0
 255.5 652 232.5 642.666992188 213.5 624 c 0
 194.5 605.333007812 185 582.333007812 185 555 c 0
EndSplineSet
EndChar

StartChar: nine
Encoding: 57 57 36
Width: 642
Flags: MW
HStem: 0 49<218 218> 239 49<272.667 323.333 272.667 336.333> 651 49<272.333 322.667>
VStem: 66 49<444.333 494.667 444.333 501.333> 480 51<377.333 494.667>
LayerCount: 2
Fore
SplineSet
528 493.5 m 2
 531 431 l 1
 531 323.666992188 508.666992188 230.666992188 464 152 c 0
 407.333007812 54.6669921875 325.666992188 4 219 0 c 1
 218 0 l 2
 210.666992188 0 204.666992188 2.1669921875 200 6.5 c 0
 195.333007812 10.8330078125 193 16.3330078125 193 23 c 0
 193 39 201 47.6669921875 217 49 c 0
 305 52.3330078125 373 94.6669921875 421 176 c 0
 445 218 461.666992188 264.666992188 471 316 c 1
 426.333007812 264.666992188 370.166992188 239 302.5 239 c 0
 234.833007812 239 178.5 261.5 133.5 306.5 c 0
 88.5 351.5 66 405.833007812 66 469.5 c 0
 66 533.166992188 88.6669921875 587.5 134 632.5 c 0
 179.333007812 677.5 232.666992188 700 294 700 c 0
 355.333007812 700 407.833007812 680.5 451.5 641.5 c 0
 495.166992188 602.5 520.333007812 554 527 496 c 0
 527.666992188 495.333007812 528 494.5 528 493.5 c 2
168.5 341 m 0
 204.166992188 305.666992188 247.333007812 288 298 288 c 0
 348.666992188 288 391.666992188 305.666992188 427 341 c 0
 462.333007812 376.333007812 480 419.166992188 480 469.5 c 0
 480 519.833007812 462.166992188 562.666992188 426.5 598 c 0
 390.833007812 633.333007812 347.833007812 651 297.5 651 c 0
 247.166992188 651 204.166992188 633.333007812 168.5 598 c 0
 132.833007812 562.666992188 115 519.833007812 115 469.5 c 0
 115 419.166992188 132.833007812 376.333007812 168.5 341 c 0
EndSplineSet
EndChar

StartChar: a
Encoding: 97 97 37
Width: 619
Flags: MW
HStem: 0 48<247.333 290.333> 443 47<247.333 290.333 240 297.667>
VStem: 40 48<217.667 272.333 217.667 278.667> 456 48<24 97 97 97 217.667 272.333 394 466>
LayerCount: 2
Fore
SplineSet
480 490 m 0
 486.666992188 490 492.333007812 487.666992188 497 483 c 0
 501.666992188 478.333007812 504 472.666992188 504 466 c 2
 504 24 l 2
 504 17.3330078125 501.666992188 11.6669921875 497 7 c 0
 492.333007812 2.3330078125 486.666992188 0 480 0 c 0
 473.333007812 0 467.666992188 2.3330078125 463 7 c 0
 458.333007812 11.6669921875 456 17.3330078125 456 24 c 2
 456 97 l 1
 434.666992188 67 407.833007812 43.3330078125 375.5 26 c 0
 343.166992188 8.6669921875 308.666992188 0 272 0 c 0
 208 0 153.333007812 24 108 72 c 0
 62.6669921875 120 40 177.666992188 40 245 c 0
 40 312.333007812 62.6669921875 370 108 418 c 0
 153.333007812 466 208 490 272 490 c 0
 308.666992188 490 343.166992188 481.333007812 375.5 464 c 0
 407.833007812 446.666992188 434.666992188 423.333007812 456 394 c 1
 456 466 l 2
 456 472.666992188 458.333007812 478.333007812 463 483 c 0
 467.666992188 487.666992188 473.333007812 490 480 490 c 0
142.5 105.5 m 0
 178.833007812 67.1669921875 222.166992188 48 272.5 48 c 0
 322.833007812 48 366 67.1669921875 402 105.5 c 0
 438 143.833007812 456 190.333007812 456 245 c 0
 456 299.666992188 438 346.333007812 402 385 c 0
 366 423.666992188 322.833007812 443 272.5 443 c 0
 222.166992188 443 178.833007812 423.666992188 142.5 385 c 0
 106.166992188 346.333007812 88 299.666992188 88 245 c 0
 88 190.333007812 106.166992188 143.833007812 142.5 105.5 c 0
EndSplineSet
EndChar

StartChar: b
Encoding: 98 98 38
Width: 660
Flags: MW
HStem: 0 49<311 356.333 304.667 363> 441 49<311 356.667> 680 20G<113.667 120.333>
VStem: 93 49<24 95 217 244 244 252 394 676> 518 49<217.333 271.667>
LayerCount: 2
Fore
SplineSet
93 24 m 2
 93 676 l 2
 93 682.666992188 95.3330078125 688.333007812 100 693 c 0
 104.666992188 697.666992188 110.333007812 700 117 700 c 0
 123.666992188 700 129.5 697.666992188 134.5 693 c 0
 139.5 688.333007812 142 682.666992188 142 676 c 2
 142 394 l 1
 164 423.333007812 191.333007812 446.666992188 224 464 c 0
 256.666992188 481.333007812 292 490 330 490 c 0
 396 490 452 466 498 418 c 0
 544 370 567 312.166992188 567 244.5 c 0
 567 176.833007812 544 119.166992188 498 71.5 c 0
 452 23.8330078125 396 0 330 0 c 0
 292 0 256.666992188 8.5 224 25.5 c 0
 191.333007812 42.5 164 65.6669921875 142 95 c 1
 142 24 l 2
 142 17.3330078125 139.5 11.6669921875 134.5 7 c 0
 129.5 2.3330078125 123.666992188 0 117 0 c 0
 110.333007812 0 104.666992188 2.3330078125 100 7 c 0
 95.3330078125 11.6669921875 93 17.3330078125 93 24 c 2
142 252 m 1
 142 244 l 2
 142 190 160.5 144 197.5 106 c 0
 234.5 68 278.833007812 49 330.5 49 c 0
 382.166992188 49 426.333007812 68 463 106 c 0
 499.666992188 144 518 190.166992188 518 244.5 c 0
 518 298.833007812 499.666992188 345.166992188 463 383.5 c 0
 426.333007812 421.833007812 382.333007812 441 331 441 c 0
 279.666992188 441 235.833007812 422.666992188 199.5 386 c 0
 163.166992188 349.333007812 144 304.666992188 142 252 c 1
EndSplineSet
EndChar

StartChar: c
Encoding: 99 99 39
Width: 571
Flags: MW
HStem: 0 48<276.667 328.333 276.667 339> 443 47<277 329>
VStem: 58 48<217.667 272.333 217.667 279.667>
LayerCount: 2
Fore
SplineSet
131.5 71.5 m 0
 82.5 119.166992188 58 177.166992188 58 245.5 c 0
 58 313.833007812 82.5 371.666992188 131.5 419 c 0
 180.5 466.333007812 237.166992188 490 301.5 490 c 0
 365.833007812 490 420.666992188 472 466 436 c 0
 471.333007812 432.666992188 474.333007812 427.666992188 475 421 c 0
 475.666992188 414.333007812 473.666992188 408.333007812 469 403 c 0
 459 391.666992188 448 390.333007812 436 399 c 0
 399.333007812 428.333007812 355 443 303 443 c 0
 251 443 205.166992188 423.666992188 165.5 385 c 0
 125.833007812 346.333007812 106 299.666992188 106 245 c 0
 106 190.333007812 125.833007812 143.833007812 165.5 105.5 c 0
 205.166992188 67.1669921875 250.833007812 48 302.5 48 c 0
 354.166992188 48 398.666992188 62.3330078125 436 91 c 1
 436 91 l 1
 448 99.6669921875 459.166992188 98 469.5 86 c 0
 479.833007812 74 478 62.6669921875 464 52 c 0
 419.333007812 17.3330078125 368 0 310 0 c 0
 240 0 180.5 23.8330078125 131.5 71.5 c 0
EndSplineSet
EndChar

StartChar: d
Encoding: 100 100 40
Width: 660
Flags: MW
HStem: 0 49<271 316> 441 49<271 316 264 322> 680 20G<506.667 513.333>
VStem: 60 49<217.333 271.667 217.333 278.333> 485 49<24 95 95 95 236 252 252 252 394 676>
LayerCount: 2
Fore
SplineSet
485 24 m 2
 485 95 l 1
 463 65.6669921875 435.666992188 42.5 403 25.5 c 0
 370.333007812 8.5 335 0 297 0 c 0
 231 0 175 23.8330078125 129 71.5 c 0
 83 119.166992188 60 176.833007812 60 244.5 c 0
 60 312.166992188 83 370 129 418 c 0
 175 466 231 490 297 490 c 0
 335 490 370.333007812 481.333007812 403 464 c 0
 435.666992188 446.666992188 463 423.333007812 485 394 c 1
 485 676 l 2
 485 682.666992188 487.5 688.333007812 492.5 693 c 0
 497.5 697.666992188 503.333007812 700 510 700 c 0
 516.666992188 700 522.333007812 697.666992188 527 693 c 0
 531.666992188 688.333007812 534 682.666992188 534 676 c 2
 534 24 l 2
 534 17.3330078125 531.666992188 11.6669921875 527 7 c 0
 522.333007812 2.3330078125 516.666992188 0 510 0 c 0
 503.333007812 0 497.5 2.3330078125 492.5 7 c 0
 487.5 11.6669921875 485 17.3330078125 485 24 c 2
164.5 106 m 0
 201.5 68 245.5 49 296.5 49 c 0
 347.5 49 391.166992188 67.1669921875 427.5 103.5 c 0
 463.833007812 139.833007812 483 184 485 236 c 1
 485 252 l 1
 483 304.666992188 463.833007812 349.333007812 427.5 386 c 0
 391.166992188 422.666992188 347.5 441 296.5 441 c 0
 245.5 441 201.5 421.833007812 164.5 383.5 c 0
 127.5 345.166992188 109 298.833007812 109 244.5 c 0
 109 190.166992188 127.5 144 164.5 106 c 0
EndSplineSet
EndChar

StartChar: e
Encoding: 101 101 41
Width: 609
Flags: MW
HStem: 0 48<270.667 312.333 270.667 316.333> 236 47<109 480 109 508 106 480> 442 48<272.667 318.333>
VStem: 58 48<236 236 236 278.333>
LayerCount: 2
Fore
SplineSet
532 262 m 1
 532 258 l 2
 532 251.333007812 529.666992188 246 525 242 c 0
 520.333007812 238 514.666992188 236 508 236 c 2
 106 236 l 1
 108.666992188 182.666992188 128.333007812 138 165 102 c 0
 201.666992188 66 245.333007812 48 296 48 c 0
 328.666992188 48 359 56 387 72 c 0
 415 88 437.333007812 109.666992188 454 137 c 0
 462 150.333007812 472.666992188 153 486 145 c 1
 499.333007812 135.666992188 502 124.333007812 494 111 c 0
 472.666992188 77 444.5 50 409.5 30 c 0
 374.5 10 336.666992188 0 296 0 c 0
 230 0 173.833007812 23.8330078125 127.5 71.5 c 0
 81.1669921875 119.166992188 58 176.833007812 58 244.5 c 0
 58 312.166992188 81.1669921875 370 127.5 418 c 0
 173.833007812 466 229.166992188 490 293.5 490 c 0
 357.833007812 490 412.333007812 468.166992188 457 424.5 c 0
 501.666992188 380.833007812 526.666992188 326.666992188 532 262 c 1
416 397 m 0
 381.333007812 427 341.166992188 442 295.5 442 c 0
 249.833007812 442 209.666992188 427.166992188 175 397.5 c 0
 140.333007812 367.833007812 118.333007812 329.666992188 109 283 c 1
 480 283 l 1
 472 329 450.666992188 367 416 397 c 0
EndSplineSet
EndChar

StartChar: f
Encoding: 102 102 42
Width: 362
Flags: W
HStem: -1 21G<175.667 182.333> 449 49<85.6665 154 89 154 203 272> 650 49<269.667 288.333>
VStem: 65 138 154 49<23 449 498 550>
LayerCount: 2
Fore
SplineSet
285 699 m 0xe8
 291.666992188 699 297.333007812 696.5 302 691.5 c 0
 306.666992188 686.5 309 680.666992188 309 674 c 0
 309 667.333007812 306.666992188 661.666992188 302 657 c 0
 297.333007812 652.333007812 291.666992188 650 285 650 c 0
 254.333007812 650 233 643.166992188 221 629.5 c 0
 209 615.833007812 203 589.333007812 203 550 c 2
 203 498 l 1
 272 498 l 2
 278.666992188 498 284.5 495.666992188 289.5 491 c 0
 294.5 486.333007812 297 480.666992188 297 474 c 0
 297 467.333007812 294.5 461.5 289.5 456.5 c 0
 284.5 451.5 278.666992188 449 272 449 c 2
 203 449 l 1
 203 23 l 2
 203 16.3330078125 200.666992188 10.6669921875 196 6 c 0
 191.333007812 1.3330078125 185.666992188 -1 179 -1 c 0
 172.333007812 -1 166.5 1.3330078125 161.5 6 c 0
 156.5 10.6669921875 154 16.3330078125 154 23 c 2
 154 449 l 1xe8
 89 449 l 2
 82.3330078125 449 76.6669921875 451.5 72 456.5 c 0
 67.3330078125 461.5 65 467.333007812 65 474 c 0xf0
 65 480.666992188 67.3330078125 486.333007812 72 491 c 0
 76.6669921875 495.666992188 82.3330078125 498 89 498 c 2
 154 498 l 1
 154 550 l 1
 155.333007812 602 166 640 186 664 c 1
 207.333007812 687.333007812 240.333007812 699 285 699 c 0xe8
EndSplineSet
EndChar

StartChar: g
Encoding: 103 103 43
Width: 660
Flags: MW
HStem: -191 48<276 315.333 276 322> 3 47<265.333 308.667> 442 48<265.333 308.333 258.333 315.667>
VStem: 60 48<219.333 273.667 219.333 280> 473 48<39 99 99 99 219.667 274.333 394 466>
LayerCount: 2
Fore
SplineSet
521 466 m 2
 521 39 l 2
 521 -24.3330078125 498.5 -78.5 453.5 -123.5 c 0
 408.5 -168.5 354 -191 290 -191 c 0
 257.333007812 -191 223.333007812 -183.333007812 188 -168 c 1
 174.666992188 -158.666992188 171.333007812 -148 178 -136 c 0
 185.333007812 -120.666992188 196 -117 210 -125 c 1
 235.333007812 -137 262 -143 290 -143 c 0
 340.666992188 -143 383.833007812 -125.333007812 419.5 -90 c 0
 455.166992188 -54.6669921875 473 -11.6669921875 473 39 c 2
 473 99 l 1
 452.333007812 69 426 45.5 394 28.5 c 0
 362 11.5 327.333007812 3 290 3 c 0
 226 3 171.666992188 26.8330078125 127 74.5 c 0
 82.3330078125 122.166992188 60 179.5 60 246.5 c 0
 60 313.5 82.5 370.833007812 127.5 418.5 c 0
 172.5 466.166992188 226.666992188 490 290 490 c 0
 326.666992188 490 361.166992188 481.333007812 393.5 464 c 0
 425.833007812 446.666992188 452.333007812 423.333007812 473 394 c 1
 473 466 l 2
 473 472.666992188 475.5 478.333007812 480.5 483 c 0
 485.5 487.666992188 491.166992188 490 497.5 490 c 0
 503.833007812 490 509.333007812 487.666992188 514 483 c 0
 518.666992188 478.333007812 521 472.666992188 521 466 c 2
161.5 107.5 m 0
 197.166992188 69.1669921875 240.166992188 50 290.5 50 c 0
 340.833007812 50 383.833007812 69.1669921875 419.5 107.5 c 0
 455.166992188 145.833007812 473 192.333007812 473 247 c 0
 473 301.666992188 455.166992188 347.833007812 419.5 385.5 c 0
 383.833007812 423.166992188 340.833007812 442 290.5 442 c 0
 240.166992188 442 197.166992188 423 161.5 385 c 0
 125.833007812 347 108 300.833007812 108 246.5 c 0
 108 192.166992188 125.833007812 145.833007812 161.5 107.5 c 0
EndSplineSet
EndChar

StartChar: h
Encoding: 104 104 44
Width: 613
Flags: MW
HStem: 0 21G<117 142> 441 49<275.667 319.333> 680 20G<113.667 120.333>
VStem: 93 49<24 297 418 676> 453 49<24 297>
LayerCount: 2
Fore
SplineSet
122 0 m 2
 117 0 l 2
 101 0 93 8 93 24 c 2
 93 676 l 2
 93 682.666992188 95.3330078125 688.333007812 100 693 c 0
 104.666992188 697.666992188 110.333007812 700 117 700 c 0
 123.666992188 700 129.5 697.666992188 134.5 693 c 0
 139.5 688.333007812 142 682.666992188 142 676 c 2
 142 418 l 1
 182.666992188 466 233 490 293 490 c 0
 353 490 402.833007812 471.833007812 442.5 435.5 c 0
 482.166992188 399.166992188 502 353 502 297 c 2
 502 24 l 2
 502 17.3330078125 499.5 11.6669921875 494.5 7 c 0
 489.5 2.3330078125 483.666992188 0 477 0 c 0
 470.333007812 0 464.666992188 2.3330078125 460 7 c 0
 455.333007812 11.6669921875 453 17.3330078125 453 24 c 2
 453 297 l 2
 453 339 438 373.5 408 400.5 c 0
 378 427.5 341.166992188 441 297.5 441 c 0
 253.833007812 441 217 427.5 187 400.5 c 0
 157 373.5 142 339 142 297 c 2
 142 21 l 2
 142 19.6669921875 140.75 16.5 138.25 11.5 c 0
 135.75 6.5 131 3 124 1 c 0
 123.333007812 0.3330078125 122.666992188 0 122 0 c 2
EndSplineSet
EndChar

StartChar: i
Encoding: 105 105 45
Width: 281
Flags: MW
HStem: 0 21G<114.667 121.333> 630 20G<114.667 121.333>
VStem: 94 49<24 466 603 626>
LayerCount: 2
Fore
SplineSet
94 24 m 2
 94 466 l 2
 94 472.666992188 96.3330078125 478.333007812 101 483 c 0
 105.666992188 487.666992188 111.5 490 118.5 490 c 0
 125.5 490 131.333007812 487.666992188 136 483 c 0
 140.666992188 478.333007812 143 472.666992188 143 466 c 2
 143 24 l 2
 143 17.3330078125 140.5 11.6669921875 135.5 7 c 0
 130.5 2.3330078125 124.666992188 0 118 0 c 0
 111.333007812 0 105.666992188 2.3330078125 101 7 c 0
 96.3330078125 11.6669921875 94 17.3330078125 94 24 c 2
94 603 m 2
 94 626 l 2
 94 632.666992188 96.3330078125 638.333007812 101 643 c 0
 105.666992188 647.666992188 111.333007812 650 118 650 c 0
 124.666992188 650 130.5 647.666992188 135.5 643 c 0
 140.5 638.333007812 143 632.666992188 143 626 c 2
 143 603 l 2
 143 595.666992188 140.5 589.5 135.5 584.5 c 0
 130.5 579.5 124.666992188 577 118 577 c 0
 111.333007812 577 105.666992188 579.5 101 584.5 c 0
 96.3330078125 589.5 94 595.666992188 94 603 c 2
EndSplineSet
EndChar

StartChar: j
Encoding: 106 106 46
Width: 249
Flags: MW
HStem: -191 21G<15.6665 31> 630 20G<79.3335 85.6665>
VStem: 55 49<-106 465>
LayerCount: 2
Fore
SplineSet
57 603 m 2
 57 626 l 2
 57 632.666992188 59.6669921875 638.333007812 65 643 c 0
 70.3330078125 647.666992188 76.1669921875 650 82.5 650 c 0
 88.8330078125 650 94.3330078125 647.666992188 99 643 c 0
 103.666992188 638.333007812 106 632.666992188 106 626 c 2
 106 603 l 2
 106 596.333007812 103.666992188 590.5 99 585.5 c 0
 94.3330078125 580.5 88.8330078125 578 82.5 578 c 0
 76.1669921875 578 70.3330078125 580.5 65 585.5 c 0
 59.6669921875 590.5 57 596.333007812 57 603 c 2
2 -184.5 m 0
 -2.6669921875 -180.166992188 -5 -174.5 -5 -167.5 c 0
 -5 -160.5 -2.6669921875 -154.666992188 2 -150 c 0
 6.6669921875 -145.333007812 13 -143 21 -143 c 0
 29 -143 36.6669921875 -139.333007812 44 -132 c 0
 51.3330078125 -124.666992188 55 -116 55 -106 c 2
 55 465 l 2
 55 471.666992188 57.5 477.5 62.5 482.5 c 0
 67.5 487.5 73.3330078125 490 80 490 c 0
 86.6669921875 490 92.3330078125 487.5 97 482.5 c 0
 101.666992188 477.5 104 471.666992188 104 465 c 2
 104 -106 l 2
 104 -130 95.8330078125 -150.166992188 79.5 -166.5 c 0
 63.1669921875 -182.833007812 43 -191 19 -191 c 0
 12.3330078125 -191 6.6669921875 -188.833007812 2 -184.5 c 0
EndSplineSet
EndChar

StartChar: k
Encoding: 107 107 47
Width: 560
Flags: MW
HStem: 0 21G<113.667 120.333 443 451> 680 20G<113.667 120.333>
VStem: 93 49<24 136 205 676>
LayerCount: 2
Fore
SplineSet
93 24 m 2
 93 676 l 2
 93 682.666992188 95.3330078125 688.333007812 100 693 c 0
 104.666992188 697.666992188 110.333007812 700 117 700 c 0
 123.666992188 700 129.5 697.666992188 134.5 693 c 0
 139.5 688.333007812 142 682.666992188 142 676 c 2
 142 205 l 1
 432 494 l 2
 443.333007812 505.333007812 454.666992188 505.333007812 466 494 c 0
 471.333007812 489.333007812 474 483.833007812 474 477.5 c 0
 474 471.166992188 471.333007812 465.333007812 466 460 c 2
 277 271 l 1
 467 40 l 2
 477 28 476.333007812 16.3330078125 465 5 c 0
 461 1.6669921875 455 0 447 0 c 0
 439 0 433.333007812 3 430 9 c 1
 242 236 l 1
 142 136 l 1
 142 24 l 2
 142 17.3330078125 139.5 11.6669921875 134.5 7 c 0
 129.5 2.3330078125 123.666992188 0 117 0 c 0
 110.333007812 0 104.666992188 2.3330078125 100 7 c 0
 95.3330078125 11.6669921875 93 17.3330078125 93 24 c 2
EndSplineSet
EndChar

StartChar: l
Encoding: 108 108 48
Width: 249
Flags: MW
HStem: 0 21G<120.667 127.333> 680 20G<120.667 127.333>
VStem: 100 49<24 676>
LayerCount: 2
Fore
SplineSet
100 24 m 2
 100 676 l 2
 100 682.666992188 102.333007812 688.333007812 107 693 c 0
 111.666992188 697.666992188 117.333007812 700 124 700 c 0
 130.666992188 700 136.5 697.666992188 141.5 693 c 0
 146.5 688.333007812 149 682.666992188 149 676 c 2
 149 24 l 2
 149 17.3330078125 146.5 11.6669921875 141.5 7 c 0
 136.5 2.3330078125 130.666992188 0 124 0 c 0
 117.333007812 0 111.666992188 2.3330078125 107 7 c 0
 102.333007812 11.6669921875 100 17.3330078125 100 24 c 2
EndSplineSet
EndChar

StartChar: m
Encoding: 109 109 49
Width: 951
Flags: MW
HStem: 0 21G<113 119 113 113 461 461 461 466 813.667 820.333> 442 47<270 309.667 623.667 662.667>
VStem: 93 47<18.6665 23 23 290 419 466> 442 49<20 290 20 290 20 311> 794 47<23 290>
LayerCount: 2
Fore
SplineSet
119 0 m 2
 113 0 l 1
 103 1.3330078125 96.3330078125 7.3330078125 93 18 c 1
 93 466 l 2
 93 472.666992188 95.3330078125 478.166992188 100 482.5 c 0
 104.666992188 486.833007812 110.166992188 489 116.5 489 c 0
 122.833007812 489 128.333007812 486.833007812 133 482.5 c 0
 137.666992188 478.166992188 140 472.666992188 140 466 c 2
 140 419 l 1
 179.333007812 465.666992188 229.666992188 489 291 489 c 0
 328.333007812 489 362.5 479.5 393.5 460.5 c 0
 424.5 441.5 448.666992188 416.333007812 466 385 c 1
 484 416.333007812 508.666992188 441.5 540 460.5 c 0
 571.333007812 479.5 605.333007812 489 642 489 c 0
 696.666992188 489 743.5 469.5 782.5 430.5 c 0
 821.5 391.5 841 344.666992188 841 290 c 2
 841 23 l 2
 841 17 838.666992188 11.6669921875 834 7 c 0
 829.333007812 2.3330078125 823.666992188 0 817 0 c 0
 810.333007812 0 804.833007812 2.3330078125 800.5 7 c 0
 796.166992188 11.6669921875 794 17 794 23 c 2
 794 290 l 1
 792.666992188 332 777.333007812 367.833007812 748 397.5 c 0
 718.666992188 427.166992188 683.333007812 442 642 442 c 0
 600.666992188 442 565.166992188 427 535.5 397 c 0
 505.833007812 367 491 331.333007812 491 290 c 2
 491 20 l 1
 490 18 l 1
 490 16 l 1
 488.666992188 11.3330078125 485.333007812 7.5 480 4.5 c 0
 474.666992188 1.5 470 0 466 0 c 2
 461 0 l 1
 453 4 l 2
 452.333007812 4 450.833007812 5.3330078125 448.5 8 c 0
 446.166992188 10.6669921875 444.833007812 12.3330078125 444.5 13 c 0
 444.166992188 13.6669921875 443.833007812 14.5 443.5 15.5 c 0
 443.166992188 16.5 442.666992188 17.3330078125 442 18 c 2
 442 290 l 2
 442 332 427.333007812 367.833007812 398 397.5 c 0
 368.666992188 427.166992188 333 442 291 442 c 0
 249 442 213.333007812 427.166992188 184 397.5 c 0
 154.666992188 367.833007812 140 332 140 290 c 2
 140 23 l 2
 140 14.3330078125 136.333007812 8 129 4 c 1
 126.333007812 1.3330078125 123 0 119 0 c 2
EndSplineSet
EndChar

StartChar: n
Encoding: 110 110 50
Width: 613
Flags: MW
HStem: 0 21G<111 117 111 111 463.667 470.333> 441 48<271.667 313.333>
VStem: 93 47<20 20 20 290 418 465> 443 48<24 290>
LayerCount: 2
Fore
SplineSet
140 20 m 1
 136.666992188 6.6669921875 129 0 117 0 c 2
 111 0 l 1
 103.666992188 2 98.3330078125 6.3330078125 95 13 c 0
 94.3330078125 13.6669921875 94 14.6669921875 94 16 c 2
 93 18 l 1
 93 465 l 2
 93 471.666992188 95.3330078125 477.333007812 100 482 c 0
 104.666992188 486.666992188 110.333007812 489 117 489 c 0
 123.666992188 489 129.166992188 486.666992188 133.5 482 c 0
 137.833007812 477.333007812 140 471.666992188 140 465 c 2
 140 418 l 1
 179.333007812 465.333007812 228.166992188 489 286.5 489 c 0
 344.833007812 489 393.5 469.5 432.5 430.5 c 0
 471.5 391.5 491 344.666992188 491 290 c 2
 491 24 l 2
 491 17.3330078125 488.666992188 11.6669921875 484 7 c 0
 479.333007812 2.3330078125 473.666992188 0 467 0 c 0
 460.333007812 0 454.666992188 2.3330078125 450 7 c 0
 445.333007812 11.6669921875 443 17.3330078125 443 24 c 2
 443 290 l 2
 443 331.333007812 428.333007812 366.833007812 399 396.5 c 0
 369.666992188 426.166992188 334.166992188 441 292.5 441 c 0
 250.833007812 441 215.333007812 426.333007812 186 397 c 0
 156.666992188 367.666992188 141.333007812 332 140 290 c 1
 140 20 l 1
EndSplineSet
EndChar

StartChar: o
Encoding: 111 111 51
Width: 625
Flags: MW
HStem: 0 48<277 327 277 334> 443 47<277 327>
VStem: 70 48<218.333 272.667 218.333 278.333> 486 48<218.333 272.667>
LayerCount: 2
Fore
SplineSet
70 245 m 0
 70 311.666992188 92.6669921875 369.166992188 138 417.5 c 0
 183.333007812 465.833007812 238 490 302 490 c 0
 366 490 420.666992188 465.833007812 466 417.5 c 0
 511.333007812 369.166992188 534 311.666992188 534 245 c 0
 534 178.333007812 511.333007812 120.833007812 466 72.5 c 0
 420.666992188 24.1669921875 366 0 302 0 c 0
 238 0 183.333007812 24.1669921875 138 72.5 c 0
 92.6669921875 120.833007812 70 178.333007812 70 245 c 0
172.5 385 m 0
 136.166992188 346.333007812 118 299.833007812 118 245.5 c 0
 118 191.166992188 136.166992188 144.666992188 172.5 106 c 0
 208.833007812 67.3330078125 252 48 302 48 c 0
 352 48 395.166992188 67.3330078125 431.5 106 c 0
 467.833007812 144.666992188 486 191.166992188 486 245.5 c 0
 486 299.833007812 467.833007812 346.333007812 431.5 385 c 0
 395.166992188 423.666992188 352 443 302 443 c 0
 252 443 208.833007812 423.666992188 172.5 385 c 0
EndSplineSet
EndChar

StartChar: p
Encoding: 112 112 52
Width: 660
Flags: MW
HStem: -205 21G<113.667 120.333> 3 48<328 328> 441 49<309.333 355.333>
VStem: 93 49<-181 99 220 247 247 255 395 466> 516 49<220 274>
LayerCount: 2
Fore
SplineSet
93 -181 m 2
 93 466 l 2
 93 472.666992188 95.3330078125 478.333007812 100 483 c 0
 104.666992188 487.666992188 110.333007812 490 117 490 c 0
 123.666992188 490 129.5 487.666992188 134.5 483 c 0
 139.5 478.333007812 142 472.666992188 142 466 c 2
 142 395 l 1
 163.333007812 424.333007812 190.333007812 447.5 223 464.5 c 0
 255.666992188 481.5 290.666992188 490 328 490 c 0
 394 490 450 466.333007812 496 419 c 0
 542 371.666992188 565 314.5 565 247.5 c 0
 565 180.5 542 123 496 75 c 0
 450 27 394 3 328 3 c 0
 290.666992188 3 255.666992188 11.6669921875 223 29 c 0
 190.333007812 46.3330078125 163.333007812 69.6669921875 142 99 c 1
 142 -181 l 2
 142 -187.666992188 139.5 -193.333007812 134.5 -198 c 0
 129.5 -202.666992188 123.666992188 -205 117 -205 c 0
 110.333007812 -205 104.666992188 -202.666992188 100 -198 c 0
 95.3330078125 -193.333007812 93 -187.666992188 93 -181 c 2
142 255 m 1
 142 247 l 2
 142 193 160.333007812 147 197 109 c 0
 233.666992188 71 277.333007812 51.6669921875 328 51 c 1
 380 51.6669921875 424.333007812 71 461 109 c 0
 497.666992188 147 516 193 516 247 c 0
 516 301 497.666992188 346.833007812 461 384.5 c 0
 424.333007812 422.166992188 380.666992188 441 330 441 c 0
 279.333007812 441 235.833007812 423 199.5 387 c 0
 163.166992188 351 144 307 142 255 c 1
EndSplineSet
EndChar

StartChar: q
Encoding: 113 113 53
Width: 660
Flags: MW
HStem: -205 21G<504 511> 2 49<295 295> 441 49<269.667 314 262.667 321.333>
VStem: 60 49<220 274 220 280.333> 483 49<-181 99 99 99 220 274 394 466>
LayerCount: 2
Fore
SplineSet
483 -181 m 2
 483 99 l 1
 461 69 433.5 45.3330078125 400.5 28 c 0
 367.5 10.6669921875 332.333007812 2 295 2 c 0
 230.333007812 2.6669921875 175 27 129 75 c 0
 83 123 60 180.333007812 60 247 c 0
 60 313.666992188 83 370.833007812 129 418.5 c 0
 175 466.166992188 230.333007812 490 295 490 c 0
 333 490 368.333007812 481.333007812 401 464 c 0
 433.666992188 446.666992188 461 423.333007812 483 394 c 1
 483 466 l 2
 483 472.666992188 485.333007812 478.333007812 490 483 c 0
 494.666992188 487.666992188 500.5 490 507.5 490 c 0
 514.5 490 520.333007812 487.666992188 525 483 c 0
 529.666992188 478.333007812 532 472.666992188 532 466 c 2
 532 -181 l 2
 532 -187.666992188 529.666992188 -193.333007812 525 -198 c 0
 520.333007812 -202.666992188 514.5 -205 507.5 -205 c 0
 500.5 -205 494.666992188 -202.666992188 490 -198 c 0
 485.333007812 -193.333007812 483 -187.666992188 483 -181 c 2
109 247 m 0
 109 193 127.166992188 147 163.5 109 c 0
 199.833007812 71 243.666992188 51.6669921875 295 51 c 1
 347 51.6669921875 391.333007812 71 428 109 c 0
 464.666992188 147 483 193 483 247 c 0
 483 301 464.666992188 346.833007812 428 384.5 c 0
 391.333007812 422.166992188 347.166992188 441 295.5 441 c 0
 243.833007812 441 199.833007812 422.166992188 163.5 384.5 c 0
 127.166992188 346.833007812 109 301 109 247 c 0
EndSplineSet
EndChar

StartChar: r
Encoding: 114 114 54
Width: 439
Flags: MW
HStem: 0 21G<113.667 120.333> 441 48<317.333 347.333>
VStem: 93 48<24 239 357 465>
LayerCount: 2
Fore
SplineSet
93 24 m 2
 93 465 l 2
 93 471.666992188 95.3330078125 477.333007812 100 482 c 0
 104.666992188 486.666992188 110.333007812 489 117 489 c 0
 123.666992188 489 129.333007812 486.666992188 134 482 c 0
 138.666992188 477.333007812 141 471.666992188 141 465 c 2
 141 357 l 1
 143.666992188 362.333007812 146 366.333007812 148 369 c 0
 199.333007812 449 264.666992188 489 344 489 c 0
 350.666992188 489 356.333007812 486.666992188 361 482 c 0
 365.666992188 477.333007812 368 471.666992188 368 465 c 0
 368 458.333007812 365.666992188 452.666992188 361 448 c 0
 356.333007812 443.333007812 350.666992188 441 344 441 c 0
 290.666992188 441 243.333007812 414.333007812 202 361 c 0
 178 329 158.333007812 291 143 247 c 0
 141.666992188 244.333007812 141 241.666992188 141 239 c 2
 141 24 l 2
 141 17.3330078125 138.666992188 11.6669921875 134 7 c 0
 129.333007812 2.3330078125 123.666992188 0 117 0 c 0
 110.333007812 0 104.666992188 2.3330078125 100 7 c 0
 95.3330078125 11.6669921875 93 17.3330078125 93 24 c 2
EndSplineSet
EndChar

StartChar: s
Encoding: 115 115 55
Width: 492
Flags: MW
HStem: 0 48<243 256.333 213.667 266> 445 45<221.667 248.333>
LayerCount: 2
Fore
SplineSet
62 70 m 0
 50.6669921875 80 49.6669921875 90.6669921875 59 102 c 0
 63 107.333007812 68.3330078125 110.333007812 75 111 c 0
 81.6669921875 111.666992188 87.6669921875 109.666992188 93 105 c 0
 145 67 192.333007812 48 235 48 c 0
 277.666992188 48 311.333007812 58 336 78 c 1
 360.666992188 94.6669921875 372.833007812 114.166992188 372.5 136.5 c 0
 372.166992188 158.833007812 361.166992188 178.666992188 339.5 196 c 0
 317.833007812 213.333007812 282.666992188 226 234 234 c 1
 232 235 l 1
 180 244.333007812 143 257 121 273 c 1
 85.6669921875 293.666992188 68 323 68 361 c 0
 68 399 85.6669921875 431 121 457 c 1
 153 479 193 490 241 490 c 0
 260.333007812 490 279.833007812 486.833007812 299.5 480.5 c 0
 319.166992188 474.166992188 334.166992188 468.166992188 344.5 462.5 c 0
 354.833007812 456.833007812 369 448.333007812 387 437 c 0
 392.333007812 433 395.666992188 427.666992188 397 421 c 0
 398.333007812 414.333007812 397.333007812 408.333007812 394 403 c 0
 390.666992188 397.666992188 385.666992188 394.333007812 379 393 c 0
 372.333007812 391.666992188 366.333007812 392.666992188 361 396 c 0
 344.333007812 407.333007812 331.833007812 415.5 323.5 420.5 c 0
 315.166992188 425.5 303 430.833007812 287 436.5 c 0
 271 442.166992188 255.666992188 445 241 445 c 0
 202.333007812 445 172 436.166992188 150 418.5 c 0
 128 400.833007812 117 382.333007812 117 363 c 0
 117 343.666992188 126.333007812 326.666992188 145 312 c 1
 168.333007812 296 201.666992188 284.666992188 245 278 c 1
 247 278 l 1
 290.333007812 271.333007812 330 258 366 238 c 1
 402.666992188 214 421 181.833007812 421 141.5 c 0
 421 101.166992188 402.833007812 67.5 366.5 40.5 c 0
 330.166992188 13.5 289 0 243 0 c 0
 179.666992188 0.6669921875 119.333007812 24 62 70 c 0
EndSplineSet
EndChar

StartChar: t
Encoding: 116 116 56
Width: 400
Flags: MW
HStem: 0 21G<200.667 216> 442 48<60.6665 127 66 127 177 240> 676 20G<148.333 154.667>
VStem: 127 50<85 442 490 672>
LayerCount: 2
Fore
SplineSet
240 490 m 2
 246 490 251.5 487.5 256.5 482.5 c 0
 261.5 477.5 264 472 264 466 c 0
 264 460 261.5 454.5 256.5 449.5 c 0
 251.5 444.5 246 442 240 442 c 2
 177 442 l 1
 177 85 l 2
 177 74.3330078125 181.166992188 65.6669921875 189.5 59 c 0
 197.833007812 52.3330078125 205.333007812 49 212 49 c 0
 218.666992188 49 224.666992188 46.3330078125 230 41 c 0
 235.333007812 35.6669921875 238 30 238 24 c 0
 238 18 235.333007812 12.5 230 7.5 c 0
 224.666992188 2.5 219 0 213 0 c 0
 188.333007812 0 167.833007812 8 151.5 24 c 0
 135.166992188 40 127 60.3330078125 127 85 c 2
 127 442 l 1
 66 442 l 2
 55.3330078125 442 48.6669921875 444 46 448 c 0
 43.3330078125 452 42 457.333007812 42 464 c 0
 42 470.666992188 42.3330078125 475.333007812 43 478 c 0
 45 486 52.6669921875 490 66 490 c 2
 127 490 l 1
 127 672 l 2
 127 678 129.5 683.5 134.5 688.5 c 0
 139.5 693.5 145.166992188 696 151.5 696 c 0
 157.833007812 696 163.666992188 693.5 169 688.5 c 0
 174.333007812 683.5 177 678 177 672 c 2
 177 490 l 1
 240 490 l 2
EndSplineSet
EndChar

StartChar: u
Encoding: 117 117 57
Width: 613
Flags: MW
HStem: 0 48<282 282> 471 20G<103.667 110.333 454.667 461.333>
VStem: 83 48<200 467> 433 49<200 467>
LayerCount: 2
Fore
SplineSet
83 200 m 2
 83 467 l 2
 83 473.666992188 85.3330078125 479.333007812 90 484 c 0
 94.6669921875 488.666992188 100.333007812 491 107 491 c 0
 113.666992188 491 119.333007812 488.666992188 124 484 c 0
 128.666992188 479.333007812 131 473.666992188 131 467 c 2
 131 200 l 2
 131 158 145.666992188 122.333007812 175 93 c 0
 204.333007812 63.6669921875 239.666992188 48.6669921875 281 48 c 1
 323 48.6669921875 358.833007812 63.6669921875 388.5 93 c 0
 418.166992188 122.333007812 433 158 433 200 c 2
 433 467 l 2
 433 473.666992188 435.5 479.333007812 440.5 484 c 0
 445.5 488.666992188 451.333007812 491 458 491 c 0
 464.666992188 491 470.333007812 488.666992188 475 484 c 0
 479.666992188 479.333007812 482 473.666992188 482 467 c 2
 482 200 l 2
 482 144.666992188 462.5 97.5 423.5 58.5 c 0
 384.5 19.5 337.333007812 0 282 0 c 0
 226.666992188 0 179.666992188 19.5 141 58.5 c 0
 102.333007812 97.5 83 144.666992188 83 200 c 2
EndSplineSet
EndChar

StartChar: v
Encoding: 118 118 58
Width: 582
Flags: MW
HStem: 0 21G<263.667 269.333>
LayerCount: 2
Fore
SplineSet
287 19 m 2
 286 15 283.75 10.8330078125 280.25 6.5 c 0
 276.75 2.1669921875 272.166992188 0 266.5 0 c 0
 260.833007812 0 255.333007812 1.3330078125 250 4 c 1
 246 8 243.333007812 11.6669921875 242 15 c 2
 58 453 l 2
 55.3330078125 459 55.3330078125 465 58 471 c 0
 64.4501953125 485.512695312 74.6162109375 489.845703125 88.5 484 c 0
 94.8330078125 481.333007812 99 477 101 471 c 2
 264 85 l 1
 427 471 l 2
 429 477 433.166992188 481.333007812 439.5 484 c 0
 445.833007812 486.666992188 452 486.666992188 458 484 c 0
 472 478 476 467.666992188 470 453 c 2
 287 19 l 2
EndSplineSet
EndChar

StartChar: w
Encoding: 119 119 59
Width: 861
Flags: MW
HStem: 0 21G<267 275.333 539 544 539 539>
LayerCount: 2
Fore
SplineSet
544 0 m 2
 539 0 l 1
 528.333007812 1.3330078125 522 6.3330078125 520 15 c 1
 519 16 l 1
 405 287 l 1
 292 17 l 2
 291.333007812 16.3330078125 291 15.6669921875 291 15 c 0
 287.666992188 5 280.666992188 0 270 0 c 0
 264 0 259.666992188 1.3330078125 257 4 c 1
 252.333007812 6 249 9.6669921875 247 15 c 2
 63 453 l 2
 60.3330078125 459 60.3330078125 465 63 471 c 0
 69.4501953125 485.512695312 79.6162109375 489.845703125 93.5 484 c 0
 99.8330078125 481.333007812 104 477 106 471 c 2
 269 85 l 1
 382 354 l 2
 386.666992188 364 394.5 369 405.5 369 c 0
 416.5 369 424.333007812 364 429 354 c 2
 542 85 l 1
 704 471 l 2
 706.666992188 477 711.166992188 481.333007812 717.5 484 c 0
 723.833007812 486.666992188 729.833007812 486.666992188 735.5 484 c 0
 741.166992188 481.333007812 745.333007812 477 748 471 c 0
 750.666992188 465 750.666992188 459 748 453 c 2
 565 17 l 2
 563 12 559.833007812 7.9169921875 555.5 4.75 c 0
 551.166992188 1.5830078125 547.333007812 0 544 0 c 2
EndSplineSet
EndChar

StartChar: x
Encoding: 120 120 60
Width: 570
Flags: MW
HStem: 0 21G<93.3335 99.6665 408 415>
LayerCount: 2
Fore
SplineSet
79 5 m 0
 67.6669921875 14.3330078125 66 25.3330078125 74 38 c 1
 224 243 l 1
 74 449 l 1
 66 462.333007812 67.6669921875 473.666992188 79 483 c 0
 83.6669921875 486.333007812 89.5 487.5 96.5 486.5 c 0
 103.5 485.5 108.666992188 482.333007812 112 477 c 2
 254 284 l 1
 395 477 l 2
 399 482.333007812 404.166992188 485.5 410.5 486.5 c 0
 416.833007812 487.5 422.333007812 486.333007812 427 483 c 0
 439.666992188 474.333007812 442 463 434 449 c 1
 283 243 l 1
 434 38 l 2
 442.666992188 24.6669921875 440.333007812 13.6669921875 427 5 c 0
 423.666992188 1.6669921875 418.5 0 411.5 0 c 0
 404.5 0 399 3.3330078125 395 10 c 2
 254 203 l 1
 112 10 l 2
 108 3.3330078125 102.833007812 0 96.5 0 c 0
 90.1669921875 0 84.3330078125 1.6669921875 79 5 c 0
EndSplineSet
EndChar

StartChar: y
Encoding: 121 121 61
Width: 588
Flags: W
HStem: -191 48<203 242.333 203 249.333> 1 49 469 20G<418 420 420 420> 470 20G<72.6665 79.3335 423 429 429 429>
VStem: 52 48<201 467> 402 48<39 71 71 71 201 467>
LayerCount: 2
Fore
SplineSet
429 490 m 1xdc
 443 486.5 450 478.833007812 450 467 c 2
 450 39 l 2
 450 -25 427.333007812 -79.3330078125 382 -124 c 0
 336.666992188 -168.666992188 281.666992188 -191 217 -191 c 0
 183.666992188 -191 150 -183.333007812 116 -168 c 1
 102.666992188 -159.333007812 99.1669921875 -148.833007812 105.5 -136.5 c 0
 111.833007812 -124.166992188 122.333007812 -120 137 -124 c 1
 162.333007812 -136.666992188 189 -143 217 -143 c 0
 267.666992188 -143 311 -125.333007812 347 -90 c 0
 383 -54.6669921875 401.333007812 -11.6669921875 402 39 c 2
 402 71 l 1
 360.666992188 24.3330078125 311.333007812 1.1669921875 254 1.5 c 0
 196.666992188 1.8330078125 148.666992188 21.5 110 60.5 c 0
 71.3330078125 99.5 52 146.333007812 52 201 c 2
 52 467 l 2
 52 473.666992188 54.3330078125 479.166992188 59 483.5 c 0
 63.6669921875 487.833007812 69.3330078125 490 76 490 c 0xdc
 82.6669921875 490 88.3330078125 487.833007812 93 483.5 c 0
 97.6669921875 479.166992188 100 473.666992188 100 467 c 2
 100 201 l 2
 100 159 114.666992188 123.333007812 144 94 c 0
 173.333007812 64.6669921875 208.833007812 50 250.5 50 c 0
 292.166992188 50 327.666992188 64.6669921875 357 94 c 0
 386.333007812 123.333007812 401.333007812 159 402 201 c 2
 402 467 l 2
 402 472.333007812 402.666992188 475.666992188 404 477 c 0
 405.333007812 478.333007812 406.333007812 479.5 407 480.5 c 0
 407.666992188 481.5 408 482.166992188 408 482.5 c 0
 408 484.611328125 411.333007812 486.77734375 418 489 c 1
 420 489 l 2xec
 421.333007812 489.666992188 422.333007812 490 423 490 c 2
 429 490 l 1xdc
EndSplineSet
EndChar

StartChar: z
Encoding: 122 122 62
Width: 554
Flags: MW
HStem: 0 48<77 405 131 405 131 405> 438 48<81.6665 402 85 358>
LayerCount: 2
Fore
SplineSet
85 0 m 2
 69 0 61 8 61 24 c 2
 61 25 l 2
 61 32.3330078125 63.6669921875 38 69 42 c 1
 358 438 l 1
 85 438 l 2
 78.3330078125 438 72.6669921875 440.333007812 68 445 c 0
 63.3330078125 449.666992188 61 455.333007812 61 462 c 0
 61 468.666992188 63.3330078125 474.333007812 68 479 c 0
 72.6669921875 483.666992188 78.3330078125 486 85 486 c 2
 402 486 l 2
 409.704101562 486.962890625 416.795898438 484.204101562 423.27734375 477.72265625 c 0
 429.758789062 471.241210938 431.833007812 464.5 429.5 457.5 c 0
 427.166992188 450.5 423.666992188 445.666992188 419 443 c 1
 131 48 l 1
 405 48 l 2
 411.666992188 48 417.333007812 45.6669921875 422 41 c 0
 426.666992188 36.3330078125 429 30.6669921875 429 24 c 0
 429 17.3330078125 426.666992188 11.6669921875 422 7 c 0
 417.333007812 2.3330078125 411.666992188 0 405 0 c 2
 85 0 l 2
EndSplineSet
EndChar

StartChar: exclam
Encoding: 33 33 63
Width: 252
Flags: MW
HStem: 0 21G<113.667 120.333> 680 20G<113.667 120.333>
VStem: 93 49<24 48 20.6665 51.3335 174 676>
LayerCount: 2
Fore
SplineSet
93 174 m 2
 93 676 l 2
 93 682.666992188 95.3330078125 688.333007812 100 693 c 0
 104.666992188 697.666992188 110.333007812 700 117 700 c 0
 123.666992188 700 129.5 697.666992188 134.5 693 c 0
 139.5 688.333007812 142 682.666992188 142 676 c 2
 142 174 l 2
 142 167.333007812 139.666992188 161.5 135 156.5 c 0
 130.333007812 151.5 124.5 149 117.5 149 c 0
 110.5 149 104.666992188 151.5 100 156.5 c 0
 95.3330078125 161.5 93 167.333007812 93 174 c 2
93 24 m 2
 93 48 l 2
 93 54.6669921875 95.3330078125 60.3330078125 100 65 c 0
 104.666992188 69.6669921875 110.333007812 72 117 72 c 0
 123.666992188 72 129.5 69.6669921875 134.5 65 c 0
 139.5 60.3330078125 142 54.6669921875 142 48 c 2
 142 24 l 2
 142 17.3330078125 139.5 11.6669921875 134.5 7 c 0
 129.5 2.3330078125 123.666992188 0 117 0 c 0
 110.333007812 0 104.666992188 2.3330078125 100 7 c 0
 95.3330078125 11.6669921875 93 17.3330078125 93 24 c 2
EndSplineSet
EndChar

StartChar: parenleft
Encoding: 40 40 64
Width: 430
Flags: MW
HStem: -97 56<271.333 291 291 293> 647 56<293 296.667>
VStem: 71 56<250 356 250 359.667>
LayerCount: 2
Fore
SplineSet
119 28 m 0
 87 96.6669921875 71 188.166992188 71 302.5 c 0
 71 416.833007812 87 508.666992188 119 578 c 0
 157 661.333007812 215 703 293 703 c 0
 300.333007812 703 306.666992188 700.166992188 312 694.5 c 0
 317.333007812 688.833007812 320 682.333007812 320 675 c 0
 320 667.666992188 317.333007812 661.166992188 312 655.5 c 0
 306.666992188 649.833007812 300.333007812 647 293 647 c 0
 239.666992188 646.333007812 198.333007812 615.333007812 169 554 c 1
 141 492.666992188 127 409 127 303 c 0
 127 197 141 113.333007812 169 52 c 1
 199 -10 240.333007812 -41 293 -41 c 0
 300.333007812 -41 306.666992188 -43.8330078125 312 -49.5 c 0
 317.333007812 -55.1669921875 320 -61.8330078125 320 -69.5 c 0
 320 -77.1669921875 317.333007812 -83.6669921875 312 -89 c 0
 306.666992188 -94.3330078125 300.333007812 -97 293 -97 c 2
 291 -97 l 2
 251.666992188 -97 217.333007812 -85.6669921875 188 -63 c 0
 158.666992188 -40.3330078125 135.666992188 -10 119 28 c 0
EndSplineSet
EndChar

StartChar: parenright
Encoding: 41 41 65
Width: 430
Flags: MW
HStem: -97 56<83.3335 87 87 89> 647 56<83.3335 87>
VStem: 253 56<250 356>
LayerCount: 2
Fore
SplineSet
261 28 m 0
 244.333007812 -10 221.333007812 -40.3330078125 192 -63 c 0
 162.666992188 -85.6669921875 128.333007812 -97 89 -97 c 2
 87 -97 l 2
 79.6669921875 -97 73.3330078125 -94.3330078125 68 -89 c 0
 62.6669921875 -83.6669921875 60 -77.1669921875 60 -69.5 c 0
 60 -61.8330078125 62.6669921875 -55.1669921875 68 -49.5 c 0
 73.3330078125 -43.8330078125 79.6669921875 -41 87 -41 c 0
 139.666992188 -41 181 -10 211 52 c 1
 239 113.333007812 253 197 253 303 c 0
 253 409 239 492.666992188 211 554 c 1
 181.666992188 615.333007812 140.333007812 646.333007812 87 647 c 0
 79.6669921875 647 73.3330078125 649.833007812 68 655.5 c 0
 62.6669921875 661.166992188 60 667.666992188 60 675 c 0
 60 682.333007812 62.6669921875 688.833007812 68 694.5 c 0
 73.3330078125 700.166992188 79.6669921875 703 87 703 c 0
 165 703 223 661.333007812 261 578 c 0
 293 508.666992188 309 416.833007812 309 302.5 c 0
 309 188.166992188 293 96.6669921875 261 28 c 0
EndSplineSet
EndChar

StartChar: plus
Encoding: 43 43 66
Width: 620
Flags: MW
HStem: 100 21G<309.333 318.667> 317 67<93.3335 281 98 281 348 531> 580 20G<309.333 318.667>
VStem: 281 67<134 317 384 567>
LayerCount: 2
Fore
SplineSet
281 134 m 2
 281 317 l 1
 98 317 l 2
 88.6669921875 317 80.6669921875 320.166992188 74 326.5 c 0
 67.3330078125 332.833007812 64 340.666992188 64 350 c 0
 64 359.333007812 67.3330078125 367.333007812 74 374 c 0
 80.6669921875 380.666992188 88.6669921875 384 98 384 c 2
 281 384 l 1
 281 567 l 2
 281 576.333007812 284.166992188 584.166992188 290.5 590.5 c 0
 296.833007812 596.833007812 304.666992188 600 314 600 c 0
 323.333007812 600 331.333007812 596.833007812 338 590.5 c 0
 344.666992188 584.166992188 348 576.333007812 348 567 c 2
 348 384 l 1
 531 384 l 2
 540.333007812 384 548.166992188 380.666992188 554.5 374 c 0
 560.833007812 367.333007812 564 359.333007812 564 350 c 0
 564 340.666992188 560.833007812 332.833007812 554.5 326.5 c 0
 548.166992188 320.166992188 540.333007812 317 531 317 c 2
 348 317 l 1
 348 134 l 2
 348 124.666992188 344.666992188 116.666992188 338 110 c 0
 331.333007812 103.333007812 323.333007812 100 314 100 c 0
 304.666992188 100 296.833007812 103.333007812 290.5 110 c 0
 284.166992188 116.666992188 281 124.666992188 281 134 c 2
EndSplineSet
EndChar

StartChar: less
Encoding: 60 60 67
Width: 620
Flags: MW
HStem: 0 21G<403.333 411.667>
LayerCount: 2
Fore
SplineSet
386 9 m 2
 69 328 l 2
 63.6669921875 333.333007812 60.75 338.083007812 60.25 342.25 c 0
 59.69140625 346.907226562 60.3427734375 351.696289062 62.2060546875 356.6171875 c 0
 64.068359375 361.5390625 66.6669921875 365.666992188 70 369 c 2
 386 689 l 2
 391.333007812 694.333007812 398.166992188 697 406.5 697 c 0
 414.833007812 697 421.666992188 694.333007812 427 689 c 0
 431.666992188 683 434 676 434 668 c 0
 434 660 431.666992188 653 427 647 c 2
 129 348 l 1
 427 48 l 2
 431.666992188 42.6669921875 434 36.1669921875 434 28.5 c 0
 434 20.8330078125 431.666992188 14.1669921875 427 8.5 c 0
 422.333007812 2.8330078125 415.833007812 0 407.5 0 c 0
 399.166992188 0 392 3 386 9 c 2
EndSplineSet
EndChar

StartChar: greater
Encoding: 62 62 68
Width: 620
Flags: MW
HStem: 0 21G<116 124>
LayerCount: 2
Fore
SplineSet
120 0 m 0
 112 0 105.333007812 2.8330078125 100 8.5 c 0
 94.6669921875 14.1669921875 92 20.8330078125 92 28.5 c 0
 92 36.1669921875 94.3330078125 42.6669921875 99 48 c 2
 397 348 l 1
 99 647 l 2
 94.3330078125 653 92 660 92 668 c 0
 92 676 94.3330078125 683 99 689 c 0
 104.333007812 694.333007812 111.166992188 697 119.5 697 c 0
 127.833007812 697 134.666992188 694.333007812 140 689 c 2
 457 368 l 2
 462.333007812 362.666992188 465 356.333007812 465 349 c 0
 465 340.333007812 462 333 456 327 c 2
 140 9 l 2
 134.666992188 3 128 0 120 0 c 0
EndSplineSet
EndChar

StartChar: A
Encoding: 65 65 69
Width: 646
Flags: W
HStem: 0 21G<83 88.6665 566.333 572> 1 21G<74 74 581 581> 181 49<186 469 186 487 168 469> 677 20G<322 334>
LayerCount: 2
Fore
SplineSet
581 1 m 1x70
 572 0 l 1
 560.666992188 0 553 5.3330078125 549 16 c 2
 487 181 l 1
 168 181 l 1
 106 16 l 2
 102 5.3330078125 94.3330078125 0 83 0 c 1xb0
 74 1 l 1
 68 3.6669921875 63.5 8.1669921875 60.5 14.5 c 0
 57.5 20.8330078125 57.3330078125 27 60 33 c 2
 303 682 l 2
 307.666992188 692 316 697 328 697 c 0
 340 697 347.666992188 692 351 682 c 2
 594 33 l 2
 596.666992188 27 596.666992188 20.8330078125 594 14.5 c 0
 591.333007812 8.1669921875 587 3.6669921875 581 1 c 1x70
328 606 m 1
 186 230 l 1
 469 230 l 1
 328 606 l 1
EndSplineSet
EndChar

StartChar: period
Encoding: 46 46 70
Width: 230
Flags: MW
HStem: 0 100<125 139>
VStem: 82 100<43 57>
LayerCount: 2
Fore
SplineSet
82 50 m 0
 82 64 86.8330078125 75.8330078125 96.5 85.5 c 0
 106.166992188 95.1669921875 118 100 132 100 c 0
 146 100 157.833007812 95.1669921875 167.5 85.5 c 0
 177.166992188 75.8330078125 182 64 182 50 c 0
 182 36 177.166992188 24.1669921875 167.5 14.5 c 0
 157.833007812 4.8330078125 146 0 132 0 c 0
 118 0 106.166992188 4.8330078125 96.5 14.5 c 0
 86.8330078125 24.1669921875 82 36 82 50 c 0
EndSplineSet
EndChar

StartChar: question
Encoding: 63 63 71
Width: 534
Flags: MW
HStem: 0 21G<227.333 233.667> 653 47<214.333 230>
VStem: 207 47<23 45 19.6665 48.3335 162 269> 399 47<460 507>
LayerCount: 2
Fore
SplineSet
207 162 m 2
 207 291 l 2
 207 297.666992188 209.333007812 303.166992188 214 307.5 c 0
 218.666992188 311.833007812 224 314 230 314 c 0
 276.666992188 314 316.5 330.5 349.5 363.5 c 0
 382.5 396.5 399 436.5 399 483.5 c 0
 399 530.5 382.666992188 570.333007812 350 603 c 0
 317.333007812 635.666992188 277.333007812 652.333007812 230 653 c 0
 198.666992188 653 170.166992188 645.333007812 144.5 630 c 0
 118.833007812 614.666992188 98.6669921875 594 84 568 c 0
 80.6669921875 562.666992188 75.8330078125 559.166992188 69.5 557.5 c 0
 63.1669921875 555.833007812 57.1669921875 556.666992188 51.5 560 c 0
 45.8330078125 563.333007812 42.3330078125 568.166992188 41 574.5 c 0
 39.6669921875 580.833007812 40.6669921875 586.666992188 44 592 c 0
 62.6669921875 625.333007812 88.5 651.666992188 121.5 671 c 0
 154.5 690.333007812 190.666992188 700 230 700 c 0
 289.333007812 700 340.166992188 678.833007812 382.5 636.5 c 0
 424.833007812 594.166992188 446 544.333007812 446 487 c 0
 446 429.666992188 427.5 380.5 390.5 339.5 c 0
 353.5 298.5 308 275 254 269 c 1
 254 162 l 2
 254 155.333007812 251.666992188 149.833007812 247 145.5 c 0
 242.333007812 141.166992188 236.833007812 139 230.5 139 c 0
 224.166992188 139 218.666992188 141.166992188 214 145.5 c 0
 209.333007812 149.833007812 207 155.333007812 207 162 c 2
207 23 m 2
 207 45 l 2
 207 51.6669921875 209.333007812 57.3330078125 214 62 c 0
 218.666992188 66.6669921875 224.166992188 69 230.5 69 c 0
 236.833007812 69 242.333007812 66.6669921875 247 62 c 0
 251.666992188 57.3330078125 254 51.6669921875 254 45 c 2
 254 23 l 2
 254 16.3330078125 251.666992188 10.8330078125 247 6.5 c 0
 242.333007812 2.1669921875 236.833007812 0 230.5 0 c 0
 224.166992188 0 218.666992188 2.1669921875 214 6.5 c 0
 209.333007812 10.8330078125 207 16.3330078125 207 23 c 2
EndSplineSet
EndChar

StartChar: equal
Encoding: 61 61 72
Width: 620
Flags: MW
HStem: 214 55<103 463 107 463> 430 55<103 463 107 463>
LayerCount: 2
Fore
SplineSet
107 214 m 2
 99 214 92.3330078125 216.666992188 87 222 c 0
 81.6669921875 227.333007812 79 233.833007812 79 241.5 c 0
 79 249.166992188 81.6669921875 255.666992188 87 261 c 0
 92.3330078125 266.333007812 99 269 107 269 c 2
 463 269 l 2
 471 269 477.666992188 266.333007812 483 261 c 0
 488.333007812 255.666992188 491 249.166992188 491 241.5 c 0
 491 233.833007812 488.333007812 227.333007812 483 222 c 0
 477.666992188 216.666992188 471 214 463 214 c 2
 107 214 l 2
107 430 m 2
 99 430 92.3330078125 432.666992188 87 438 c 0
 81.6669921875 443.333007812 79 449.833007812 79 457.5 c 0
 79 465.166992188 81.6669921875 471.666992188 87 477 c 0
 92.3330078125 482.333007812 99 485 107 485 c 2
 463 485 l 2
 471 485 477.666992188 482.333007812 483 477 c 0
 488.333007812 471.666992188 491 465.166992188 491 457.5 c 0
 491 449.833007812 488.333007812 443.333007812 483 438 c 0
 477.666992188 432.666992188 471 430 463 430 c 2
 107 430 l 2
EndSplineSet
EndChar

StartChar: hyphen
Encoding: 45 45 73
Width: 408
Flags: MW
HStem: 328 38<78.6665 298 85 298>
LayerCount: 2
Fore
SplineSet
85 328 m 2
 72.3330078125 328 66 334.333007812 66 347 c 0
 66 359.666992188 72.3330078125 366 85 366 c 2
 298 366 l 2
 310.666992188 366 317 360 317 348 c 0
 317 342 315.166992188 337.166992188 311.5 333.5 c 0
 307.833007812 329.833007812 303.333007812 328 298 328 c 2
 85 328 l 2
EndSplineSet
EndChar

StartChar: slash
Encoding: 47 47 74
Width: 422
Flags: MW
HStem: 0 21G<101.667 109.333>
LayerCount: 2
Fore
SplineSet
91 1 m 0
 76.3330078125 8.3330078125 72 19.3330078125 78 34 c 2
 351 682 l 1
 358.333007812 696 369 700.333007812 383 695 c 0
 389.666992188 692.333007812 394.166992188 688 396.5 682 c 0
 398.833007812 676 398.666992188 669.666992188 396 663 c 2
 123 15 l 2
 119 5 113.166992188 0 105.5 0 c 0
 97.8330078125 0 93 0.3330078125 91 1 c 0
EndSplineSet
EndChar

StartChar: colon
Encoding: 58 58 75
Width: 240
Flags: MW
HStem: 0 100<130 144> 420 100<130 144>
VStem: 87 100<43 57 463 477>
LayerCount: 2
Fore
SplineSet
87 50 m 0
 87 64 91.8330078125 75.8330078125 101.5 85.5 c 0
 111.166992188 95.1669921875 123 100 137 100 c 0
 151 100 162.833007812 95.1669921875 172.5 85.5 c 0
 182.166992188 75.8330078125 187 64 187 50 c 0
 187 36 182.166992188 24.1669921875 172.5 14.5 c 0
 162.833007812 4.8330078125 151 0 137 0 c 0
 123 0 111.166992188 4.8330078125 101.5 14.5 c 0
 91.8330078125 24.1669921875 87 36 87 50 c 0
87 470 m 0
 87 484 91.8330078125 495.833007812 101.5 505.5 c 0
 111.166992188 515.166992188 123 520 137 520 c 0
 151 520 162.833007812 515.166992188 172.5 505.5 c 0
 182.166992188 495.833007812 187 484 187 470 c 0
 187 456 182.166992188 444.166992188 172.5 434.5 c 0
 162.833007812 424.833007812 151 420 137 420 c 0
 123 420 111.166992188 424.833007812 101.5 434.5 c 0
 91.8330078125 444.166992188 87 456 87 470 c 0
EndSplineSet
EndChar

StartChar: semicolon
Encoding: 59 59 76
Width: 240
Flags: W
HStem: -105 21G<70.6665 82.3335> 419 100<111 125>
VStem: 68 100<462 476> 87 66<35 56 5.3335 60.6665>
LayerCount: 2
Fore
SplineSet
68 469 m 0xe0
 68 483 72.8330078125 494.833007812 82.5 504.5 c 0
 92.1669921875 514.166992188 104 519 118 519 c 0
 132 519 143.833007812 514.166992188 153.5 504.5 c 0
 163.166992188 494.833007812 168 483 168 469 c 0
 168 455 163.166992188 443.166992188 153.5 433.5 c 0
 143.833007812 423.833007812 132 419 118 419 c 0
 104 419 92.1669921875 423.833007812 82.5 433.5 c 0
 72.8330078125 443.166992188 68 455 68 469 c 0xe0
59 -90 m 0
 59 -84.6669921875 61.6669921875 -80.3330078125 67 -77 c 0
 101 -58.3330078125 116.666992188 -32.6669921875 114 0 c 1
 96 4.6669921875 87 16.3330078125 87 35 c 2
 87 56 l 2
 87 65.3330078125 90.1669921875 73.1669921875 96.5 79.5 c 0
 102.833007812 85.8330078125 110.666992188 89 120 89 c 0
 129.333007812 89 137.166992188 85.8330078125 143.5 79.5 c 0
 149.833007812 73.1669921875 153 65.3330078125 153 56 c 2
 153 31 l 2xd0
 153 -20.3330078125 143.166992188 -55.8330078125 123.5 -75.5 c 0
 103.833007812 -95.1669921875 88.1669921875 -105 76.5 -105 c 0
 64.8330078125 -105 59 -100 59 -90 c 0
EndSplineSet
EndChar

StartChar: comma
Encoding: 44 44 77
Width: 230
Flags: MW
HStem: -105 21G<65.6665 77.3335> 69 20G<110.333 119.667>
VStem: 82 66<35 56 5.3335 60.6665>
LayerCount: 2
Fore
SplineSet
54 -90 m 0
 54 -84.6669921875 56.6669921875 -80.3330078125 62 -77 c 0
 96 -58.3330078125 111.666992188 -32.6669921875 109 0 c 1
 91 4.6669921875 82 16.3330078125 82 35 c 2
 82 56 l 2
 82 65.3330078125 85.1669921875 73.1669921875 91.5 79.5 c 0
 97.8330078125 85.8330078125 105.666992188 89 115 89 c 0
 124.333007812 89 132.166992188 85.8330078125 138.5 79.5 c 0
 144.833007812 73.1669921875 148 65.3330078125 148 56 c 2
 148 31 l 2
 148 -20.3330078125 138.166992188 -55.8330078125 118.5 -75.5 c 0
 98.8330078125 -95.1669921875 83.1669921875 -105 71.5 -105 c 0
 59.8330078125 -105 54 -100 54 -90 c 0
EndSplineSet
EndChar

StartChar: quotesingle
Encoding: 39 39 78
Width: 230
Flags: MW
HStem: 442 21G<78.3335 87.6665> 682 20G<128 147 147 152.333>
LayerCount: 2
Fore
SplineSet
70 461 m 2
 100 676 l 2
 102.666992188 693.333007812 112 702 128 702 c 2
 147 702 l 2
 157.666992188 702 163 696.333007812 163 685 c 0
 163 684.333007812 161.333007812 676.333007812 158 661 c 2
 101 460 l 2
 97 448 91.3330078125 442 84 442 c 0
 72.6669921875 442 68 448.333007812 70 461 c 2
EndSplineSet
EndChar

StartChar: quotedbl
Encoding: 34 34 79
Width: 410
Flags: MW
HStem: 442 21G<78.3335 87.6665 258.333 267.667> 682 20G<128 147 147 152.333 308 327 327 332.333>
LayerCount: 2
Fore
SplineSet
250 461 m 2
 280 676 l 2
 282.666992188 693.333007812 292 702 308 702 c 2
 327 702 l 2
 337.666992188 702 343 696.333007812 343 685 c 0
 343 684.333007812 341.333007812 676.333007812 338 661 c 2
 281 460 l 2
 277 448 271.333007812 442 264 442 c 0
 252.666992188 442 248 448.333007812 250 461 c 2
70 461 m 2
 100 676 l 2
 102.666992188 693.333007812 112 702 128 702 c 2
 147 702 l 2
 157.666992188 702 163 696.333007812 163 685 c 0
 163 684.333007812 161.333007812 676.333007812 158 661 c 2
 101 460 l 2
 97 448 91.3330078125 442 84 442 c 0
 72.6669921875 442 68 448.333007812 70 461 c 2
EndSplineSet
EndChar

StartChar: underscore
Encoding: 95 95 80
Width: 600
Flags: MW
HStem: -160 44<-5 602 -2 602>
LayerCount: 2
Fore
SplineSet
-2 -160 m 2
 -8 -160 -13.1669921875 -157.833007812 -17.5 -153.5 c 0
 -21.8330078125 -149.166992188 -24 -144 -24 -138 c 0
 -24 -132 -21.8330078125 -126.833007812 -17.5 -122.5 c 0
 -13.1669921875 -118.166992188 -8 -116 -2 -116 c 2
 602 -116 l 2
 608 -116 613.166992188 -118.166992188 617.5 -122.5 c 0
 621.833007812 -126.833007812 624 -132 624 -138 c 0
 624 -144 621.833007812 -149.166992188 617.5 -153.5 c 0
 613.166992188 -157.833007812 608 -160 602 -160 c 2
 -2 -160 l 2
EndSplineSet
EndChar

StartChar: asterisk
Encoding: 42 42 81
Width: 430
Flags: W
HStem: 402 21G<212 218> 686 20G<212 218>
VStem: 76 155 199 155
LayerCount: 2
Fore
SplineSet
195 424 m 2xd0
 203 533 l 1
 112 471 l 2
 106 467 100.5 465 95.5 465 c 0
 90.5 465 86 467.166992188 82 471.5 c 0
 78 475.833007812 76 481.5 76 488.5 c 0
 76 495.5 80.6669921875 501 90 505 c 2
 193 554 l 1
 90 603 l 2
 80.6669921875 607.666992188 76 614 76 622 c 0xe0
 76 634.666992188 82.6669921875 641.666992188 96 643 c 0
 100.666992188 643 106 641 112 637 c 2
 203 575 l 1
 195 684 l 2
 194.333007812 690 196 695.166992188 200 699.5 c 0
 204 703.833007812 209 706 215 706 c 0
 221 706 226 703.833007812 230 699.5 c 0
 234 695.166992188 235.666992188 690 235 684 c 2
 227 575 l 1
 318 637 l 2
 324 641 329.5 643 334.5 643 c 0
 339.5 643 344 640.833007812 348 636.5 c 0
 352 632.166992188 354 626.5 354 619.5 c 0
 354 612.5 349.333007812 607 340 603 c 2
 237 554 l 1
 340 505 l 2
 349.333007812 501 354 495.5 354 488.5 c 0
 354 481.5 352 475.833007812 348 471.5 c 0
 344 467.166992188 339.5 465 334.5 465 c 0
 329.5 465 324 467 318 471 c 2
 227 533 l 1
 235 424 l 2
 235.666992188 418 234 412.833007812 230 408.5 c 0
 226 404.166992188 221 402 215 402 c 0
 209 402 204 404.166992188 200 408.5 c 0
 196 412.833007812 194.333007812 418 195 424 c 2xd0
EndSplineSet
EndChar

StartChar: at
Encoding: 64 64 82
Width: 980
Flags: MW
HStem: 0 49<362.667 418.667> 162 52<386 421 386 429.333> 489 49<386.667 421.333> 652 49<362.667 445.333>
VStem: 53 49<309 392 309 399.667> 225 52<332 370 332 376.333> 532 49<332 351 191 370> 705 49<325.333 392.333>
LayerCount: 2
Fore
SplineSet
53 351 m 0
 53 448.333007812 87.1669921875 531 155.5 599 c 0
 223.833007812 667 306.666992188 701 404 701 c 0
 501.333007812 701 584 666.833007812 652 598.5 c 0
 720 530.166992188 754 447.666992188 754 351 c 0
 754 292.333007812 741.666992188 239 717 191 c 1
 690.979492188 150.5234375 660.645507812 125.190429688 626 115 c 0
 621.333007812 113.666992188 614.666992188 113 606 113 c 0
 581.333007812 113 563 121.5 551 138.5 c 0
 539 155.5 533 172 533 188 c 2
 533 222 l 1
 497 182 454.166992188 162 404.5 162 c 0
 354.833007812 162 312.5 180.5 277.5 217.5 c 0
 242.5 254.5 225 298.833007812 225 350.5 c 0
 225 402.166992188 242.5 446.333007812 277.5 483 c 0
 312.5 519.666992188 354.666992188 538 404 538 c 0
 453.333007812 538 495.166992188 519.666992188 529.5 483 c 0
 563.833007812 446.333007812 581 402.333007812 581 351 c 2
 581 191 l 1
 582 191 l 1
 581.333007812 186.333007812 583.333007812 179 588 169 c 1
 591.333007812 164.333007812 597.333007812 162 606 162 c 2
 614 162 l 1
 627.333007812 165.333007812 639.5 172.833007812 650.5 184.5 c 0
 661.5 196.166992188 668.666992188 206 672 214 c 0
 694 254 705 299.666992188 705 351 c 0
 705 433.666992188 675.5 504.5 616.5 563.5 c 0
 557.5 622.5 486.666992188 652 404 652 c 0
 321.333007812 652 250.333007812 622.5 191 563.5 c 0
 131.666992188 504.5 102 433.5 102 350.5 c 0
 102 267.5 131.666992188 196.5 191 137.5 c 0
 250.333007812 78.5 321.333007812 49 404 49 c 0
 434.666992188 49 459.666992188 51.6669921875 479 57 c 0
 485.666992188 58.3330078125 491.833007812 57.5 497.5 54.5 c 0
 503.166992188 51.5 506.333007812 46.6669921875 507 40 c 1
 509.666992188 33.3330078125 509.166992188 27.1669921875 505.5 21.5 c 0
 501.833007812 15.8330078125 496.666992188 12.3330078125 490 11 c 0
 462 3.6669921875 433.333007812 0 404 0 c 0
 306.666992188 0 223.833007812 34.1669921875 155.5 102.5 c 0
 87.1669921875 170.833007812 53 253.666992188 53 351 c 0
277 351 m 0
 277 313 289.333007812 280.666992188 314 254 c 0
 338.666992188 227.333007812 368.5 214 403.5 214 c 0
 438.5 214 468.666992188 227.333007812 494 254 c 0
 519.333007812 280.666992188 532 313 532 351 c 0
 532 389 519.333007812 421.5 494 448.5 c 0
 468.666992188 475.5 438.666992188 489 404 489 c 0
 369.333007812 489 339.5 475.5 314.5 448.5 c 0
 289.5 421.5 277 389 277 351 c 0
EndSplineSet
EndChar

StartChar: backslash
Encoding: 92 92 83
Width: 448
Flags: MW
HStem: 2 21G<353.667 361.333>
LayerCount: 2
Fore
SplineSet
372 3 m 0
 370 2.3330078125 365.166992188 2 357.5 2 c 0
 349.833007812 2 344 7 340 17 c 2
 67 665 l 2
 64.3330078125 671.666992188 64.1669921875 678 66.5 684 c 0
 68.8330078125 690 73.3330078125 694.333007812 80 697 c 0
 94 702.333007812 104.666992188 698 112 684 c 1
 385 36 l 2
 391 21.3330078125 386.666992188 10.3330078125 372 3 c 0
EndSplineSet
EndChar

StartChar: quotedblleft
Encoding: 256 8220 84
Width: 410
Flags: MW
HStem: 509 194<105.333 159.333 147.667 294.667>
VStem: 77 66<542 563 537.333 567 537.333 592.667> 257 66<542 563 537.333 567 537.333 592.667>
LayerCount: 2
Fore
SplineSet
351 688 m 0
 351 682.666992188 348.333007812 678.333007812 343 675 c 0
 309 656.333007812 293.333007812 630.666992188 296 598 c 1
 314 593.333007812 323 581.666992188 323 563 c 2
 323 542 l 2
 323 532.666992188 319.833007812 524.833007812 313.5 518.5 c 0
 307.166992188 512.166992188 299.333007812 509 290 509 c 0
 280.666992188 509 272.833007812 512.166992188 266.5 518.5 c 0
 260.166992188 524.833007812 257 532.666992188 257 542 c 2
 257 567 l 2
 257 618.333007812 266.833007812 653.833007812 286.5 673.5 c 0
 306.166992188 693.166992188 321.833007812 703 333.5 703 c 0
 345.166992188 703 351 698 351 688 c 0
171 688 m 0
 171 682.666992188 168.333007812 678.333007812 163 675 c 0
 129 656.333007812 113.333007812 630.666992188 116 598 c 1
 134 593.333007812 143 581.666992188 143 563 c 2
 143 542 l 2
 143 532.666992188 139.833007812 524.833007812 133.5 518.5 c 0
 127.166992188 512.166992188 119.333007812 509 110 509 c 0
 100.666992188 509 92.8330078125 512.166992188 86.5 518.5 c 0
 80.1669921875 524.833007812 77 532.666992188 77 542 c 2
 77 567 l 2
 77 618.333007812 86.8330078125 653.833007812 106.5 673.5 c 0
 126.166992188 693.166992188 141.833007812 703 153.5 703 c 0
 165.166992188 703 171 698 171 688 c 0
EndSplineSet
EndChar

StartChar: quotedblright
Encoding: 257 8221 85
Width: 410
Flags: MW
HStem: 510 194<70.6665 124.667 115.333 262.333>
VStem: 87 66<650 671 620.333 675.333> 267 66<650 671 620.333 675.333>
LayerCount: 2
Fore
SplineSet
59 525 m 0
 59 530.333007812 61.6669921875 534.666992188 67 538 c 0
 101 556.666992188 116.666992188 582.333007812 114 615 c 1
 96 619.666992188 87 631.333007812 87 650 c 2
 87 671 l 2
 87 679.666992188 90.1669921875 687.333007812 96.5 694 c 0
 102.833007812 700.666992188 110.666992188 704 120 704 c 0
 129.333007812 704 137.166992188 700.666992188 143.5 694 c 0
 149.833007812 687.333007812 153 679.666992188 153 671 c 2
 153 646 l 2
 153 594.666992188 143.166992188 559.166992188 123.5 539.5 c 0
 103.833007812 519.833007812 88.1669921875 510 76.5 510 c 0
 64.8330078125 510 59 515 59 525 c 0
239 525 m 0
 239 530.333007812 241.666992188 534.666992188 247 538 c 0
 281 556.666992188 296.666992188 582.333007812 294 615 c 1
 276 619.666992188 267 631.333007812 267 650 c 2
 267 671 l 2
 267 679.666992188 270.166992188 687.333007812 276.5 694 c 0
 282.833007812 700.666992188 290.666992188 704 300 704 c 0
 309.333007812 704 317.166992188 700.666992188 323.5 694 c 0
 329.833007812 687.333007812 333 679.666992188 333 671 c 2
 333 646 l 2
 333 594.666992188 323.166992188 559.166992188 303.5 539.5 c 0
 283.833007812 519.833007812 268.166992188 510 256.5 510 c 0
 244.833007812 510 239 515 239 525 c 0
EndSplineSet
EndChar

StartChar: quoteleft
Encoding: 259 8216 87
Width: 230
Flags: MW
HStem: 509 21G<105.333 114.667> 683 20G<147.667 159.333>
VStem: 77 66<542 563 537.333 567 537.333 592.667>
LayerCount: 2
Fore
SplineSet
171 688 m 0
 171 682.666992188 168.333007812 678.333007812 163 675 c 0
 129 656.333007812 113.333007812 630.666992188 116 598 c 1
 134 593.333007812 143 581.666992188 143 563 c 2
 143 542 l 2
 143 532.666992188 139.833007812 524.833007812 133.5 518.5 c 0
 127.166992188 512.166992188 119.333007812 509 110 509 c 0
 100.666992188 509 92.8330078125 512.166992188 86.5 518.5 c 0
 80.1669921875 524.833007812 77 532.666992188 77 542 c 2
 77 567 l 2
 77 618.333007812 86.8330078125 653.833007812 106.5 673.5 c 0
 126.166992188 693.166992188 141.833007812 703 153.5 703 c 0
 165.166992188 703 171 698 171 688 c 0
EndSplineSet
EndChar

StartChar: quoteright
Encoding: 260 8217 88
Width: 230
Flags: MW
HStem: 510 21G<70.6665 82.3335> 684 20G<115.333 124.667>
VStem: 87 66<650 671 620.333 675.333>
LayerCount: 2
Fore
SplineSet
59 525 m 0
 59 530.333007812 61.6669921875 534.666992188 67 538 c 0
 101 556.666992188 116.666992188 582.333007812 114 615 c 1
 96 619.666992188 87 631.333007812 87 650 c 2
 87 671 l 2
 87 679.666992188 90.1669921875 687.333007812 96.5 694 c 0
 102.833007812 700.666992188 110.666992188 704 120 704 c 0
 129.333007812 704 137.166992188 700.666992188 143.5 694 c 0
 149.833007812 687.333007812 153 679.666992188 153 671 c 2
 153 646 l 2
 153 594.666992188 143.166992188 559.166992188 123.5 539.5 c 0
 103.833007812 519.833007812 88.1669921875 510 76.5 510 c 0
 64.8330078125 510 59 515 59 525 c 0
EndSplineSet
EndChar

StartChar: grave
Encoding: 96 96 89
Width: 500
Flags: MW
HStem: 592 21G<278.333 288.667> 703 20G<201 211>
LayerCount: 2
Fore
SplineSet
299 601 m 0
 299 595 293.833007812 592 283.5 592 c 0
 273.166992188 592 263.333007812 596.333007812 254 605 c 2
 174 682 l 2
 166.666992188 689.333007812 163 695.5 163 700.5 c 0
 163 705.5 167.666992188 710.5 177 715.5 c 0
 186.333007812 720.5 196 723 206 723 c 0
 216 723 225 717 233 705 c 2
 295 612 l 2
 297.666992188 608 299 604.333007812 299 601 c 0
EndSplineSet
EndChar

StartChar: Ugrave
Encoding: 217 217 91
Width: 760
Flags: MW
HStem: 0 49<376 376> 680 20G<113.667 120.333 630.667 637.333> 903 20G<346 356>
VStem: 93 49<244 676 283 676> 610 49<250.667 676 283 676>
LayerCount: 2
Fore
SplineSet
93 283 m 2
 93 205 120.666992188 138.333007812 176 83 c 0
 231.333007812 27.6669921875 298 0 376 0 c 0
 454 0 520.666992188 27.6669921875 576 83 c 0
 631.333007812 138.333007812 659 205 659 283 c 2
 659 676 l 2
 659 682.666992188 656.5 688.333007812 651.5 693 c 0
 646.5 697.666992188 640.666992188 700 634 700 c 0
 627.333007812 700 621.666992188 697.666992188 617 693 c 0
 612.333007812 688.333007812 610 682.666992188 610 676 c 2
 610 283 l 2
 610 218.333007812 587.166992188 163.333007812 541.5 118 c 0
 495.833007812 72.6669921875 440.333007812 49.6669921875 375 49 c 1
 311 49.6669921875 256.166992188 72.6669921875 210.5 118 c 0
 164.833007812 163.333007812 142 218.333007812 142 283 c 2
 142 676 l 2
 142 682.666992188 139.5 688.333007812 134.5 693 c 0
 129.5 697.666992188 123.666992188 700 117 700 c 0
 110.333007812 700 104.666992188 697.666992188 100 693 c 0
 95.3330078125 688.333007812 93 682.666992188 93 676 c 2
 93 283 l 2
444 801 m 0
 444 795 438.833007812 792 428.5 792 c 0
 418.166992188 792 408.333007812 796.333007812 399 805 c 2
 319 882 l 2
 311.666992188 889.333007812 308 895.5 308 900.5 c 0
 308 905.5 312.666992188 910.5 322 915.5 c 0
 331.333007812 920.5 341 923 351 923 c 0
 361 923 370 917 378 905 c 2
 440 812 l 2
 442.666992188 808 444 804.333007812 444 801 c 0
EndSplineSet
EndChar

StartChar: ellipsis
Encoding: 261 8230 92
Width: 680
Flags: MW
HStem: 0 100<125 139 352 366 579 593>
VStem: 82 100<43 57> 309 100<43 57> 536 100<43 57>
LayerCount: 2
Fore
SplineSet
82 50 m 0
 82 64 86.8330078125 75.8330078125 96.5 85.5 c 0
 106.166992188 95.1669921875 118 100 132 100 c 0
 146 100 157.833007812 95.1669921875 167.5 85.5 c 0
 177.166992188 75.8330078125 182 64 182 50 c 0
 182 36 177.166992188 24.1669921875 167.5 14.5 c 0
 157.833007812 4.8330078125 146 0 132 0 c 0
 118 0 106.166992188 4.8330078125 96.5 14.5 c 0
 86.8330078125 24.1669921875 82 36 82 50 c 0
309 50 m 0
 309 64 313.833007812 75.8330078125 323.5 85.5 c 0
 333.166992188 95.1669921875 345 100 359 100 c 0
 373 100 384.833007812 95.1669921875 394.5 85.5 c 0
 404.166992188 75.8330078125 409 64 409 50 c 0
 409 36 404.166992188 24.1669921875 394.5 14.5 c 0
 384.833007812 4.8330078125 373 0 359 0 c 0
 345 0 333.166992188 4.8330078125 323.5 14.5 c 0
 313.833007812 24.1669921875 309 36 309 50 c 0
536 50 m 0
 536 64 540.833007812 75.8330078125 550.5 85.5 c 0
 560.166992188 95.1669921875 572 100 586 100 c 0
 600 100 611.833007812 95.1669921875 621.5 85.5 c 0
 631.166992188 75.8330078125 636 64 636 50 c 0
 636 36 631.166992188 24.1669921875 621.5 14.5 c 0
 611.833007812 4.8330078125 600 0 586 0 c 0
 572 0 560.166992188 4.8330078125 550.5 14.5 c 0
 540.833007812 24.1669921875 536 36 536 50 c 0
EndSplineSet
EndChar

StartChar: dieresis
Encoding: 168 168 93
Width: 500
Flags: MW
HStem: 594 86<170 182 335 347>
VStem: 133 86<631 643> 298 86<631 643>
LayerCount: 2
Fore
SplineSet
133 637 m 0
 133 649 137.166992188 659.166992188 145.5 667.5 c 0
 153.833007812 675.833007812 164 680 176 680 c 0
 188 680 198.166992188 675.833007812 206.5 667.5 c 0
 214.833007812 659.166992188 219 649 219 637 c 0
 219 625 214.833007812 614.833007812 206.5 606.5 c 0
 198.166992188 598.166992188 188 594 176 594 c 0
 164 594 153.833007812 598.166992188 145.5 606.5 c 0
 137.166992188 614.833007812 133 625 133 637 c 0
298 637 m 0
 298 649 302.166992188 659.166992188 310.5 667.5 c 0
 318.833007812 675.833007812 329 680 341 680 c 0
 353 680 363.166992188 675.833007812 371.5 667.5 c 0
 379.833007812 659.166992188 384 649 384 637 c 0
 384 625 379.833007812 614.833007812 371.5 606.5 c 0
 363.166992188 598.166992188 353 594 341 594 c 0
 329 594 318.833007812 598.166992188 310.5 606.5 c 0
 302.166992188 614.833007812 298 625 298 637 c 0
EndSplineSet
EndChar

StartChar: agrave
Encoding: 224 224 94
Width: 574
Flags: MW
HStem: 0 48<270.333 313.333> 443 47<270.333 313.333 263 320.667> 681 20G<266 276>
VStem: 63 48<217.667 272.333 217.667 278.667> 479 48<24 97 97 97 217.667 272.333 394 466>
LayerCount: 2
Fore
SplineSet
503 490 m 0
 509.666992188 490 515.333007812 487.666992188 520 483 c 0
 524.666992188 478.333007812 527 472.666992188 527 466 c 2
 527 24 l 2
 527 17.3330078125 524.666992188 11.6669921875 520 7 c 0
 515.333007812 2.3330078125 509.666992188 0 503 0 c 0
 496.333007812 0 490.666992188 2.3330078125 486 7 c 0
 481.333007812 11.6669921875 479 17.3330078125 479 24 c 2
 479 97 l 1
 457.666992188 67 430.833007812 43.3330078125 398.5 26 c 0
 366.166992188 8.6669921875 331.666992188 0 295 0 c 0
 231 0 176.333007812 24 131 72 c 0
 85.6669921875 120 63 177.666992188 63 245 c 0
 63 312.333007812 85.6669921875 370 131 418 c 0
 176.333007812 466 231 490 295 490 c 0
 331.666992188 490 366.166992188 481.333007812 398.5 464 c 0
 430.833007812 446.666992188 457.666992188 423.333007812 479 394 c 1
 479 466 l 2
 479 472.666992188 481.333007812 478.333007812 486 483 c 0
 490.666992188 487.666992188 496.333007812 490 503 490 c 0
165.5 105.5 m 0
 201.833007812 67.1669921875 245.166992188 48 295.5 48 c 0
 345.833007812 48 389 67.1669921875 425 105.5 c 0
 461 143.833007812 479 190.333007812 479 245 c 0
 479 299.666992188 461 346.333007812 425 385 c 0
 389 423.666992188 345.833007812 443 295.5 443 c 0
 245.166992188 443 201.833007812 423.666992188 165.5 385 c 0
 129.166992188 346.333007812 111 299.666992188 111 245 c 0
 111 190.333007812 129.166992188 143.833007812 165.5 105.5 c 0
364 579 m 0
 364 573 358.833007812 570 348.5 570 c 0
 338.166992188 570 328.333007812 574.333007812 319 583 c 2
 239 660 l 2
 231.666992188 667.333007812 228 673.5 228 678.5 c 0
 228 683.5 232.666992188 688.5 242 693.5 c 0
 251.333007812 698.5 261 701 271 701 c 0
 281 701 290 695 298 683 c 2
 360 590 l 2
 362.666992188 586 364 582.333007812 364 579 c 0
EndSplineSet
EndChar

StartChar: ograve
Encoding: 242 242 95
Width: 640
Flags: W
HStem: 0 48<265 315 265 322> 443 47<265 315> 490 211<260 270 260 322>
VStem: 58 48<218.333 272.667 218.333 278.333> 474 48<218.333 272.667>
LayerCount: 2
Fore
SplineSet
58 245 m 0xd8
 58 178.333007812 80.6669921875 120.833007812 126 72.5 c 0
 171.333007812 24.1669921875 226 0 290 0 c 0
 354 0 408.666992188 24.1669921875 454 72.5 c 0
 499.333007812 120.833007812 522 178.333007812 522 245 c 0
 522 311.666992188 499.333007812 369.166992188 454 417.5 c 0
 408.666992188 465.833007812 354 490 290 490 c 0
 226 490 171.333007812 465.833007812 126 417.5 c 0
 80.6669921875 369.166992188 58 311.666992188 58 245 c 0xd8
160.5 106 m 0
 124.166992188 144.666992188 106 191.166992188 106 245.5 c 0
 106 299.833007812 124.166992188 346.333007812 160.5 385 c 0
 196.833007812 423.666992188 240 443 290 443 c 0
 340 443 383.166992188 423.666992188 419.5 385 c 0
 455.833007812 346.333007812 474 299.833007812 474 245.5 c 0
 474 191.166992188 455.833007812 144.666992188 419.5 106 c 0
 383.166992188 67.3330078125 340 48 290 48 c 0
 240 48 196.833007812 67.3330078125 160.5 106 c 0
358 579 m 0
 358 573 352.833007812 570 342.5 570 c 0
 332.166992188 570 322.333007812 574.333007812 313 583 c 2
 233 660 l 2
 225.666992188 667.333007812 222 673.5 222 678.5 c 0
 222 683.5 226.666992188 688.5 236 693.5 c 0
 245.333007812 698.5 255 701 265 701 c 0xb8
 275 701 284 695 292 683 c 2
 354 590 l 2
 356.666992188 586 358 582.333007812 358 579 c 0
EndSplineSet
EndChar

StartChar: ugrave
Encoding: 249 249 96
Width: 613
Flags: MW
HStem: 0 48<282 282> 681 20G<252 262>
VStem: 83 48<172.333 467 200 467> 433 49<179 467 200 467>
LayerCount: 2
Fore
SplineSet
83 200 m 2
 83 144.666992188 102.333007812 97.5 141 58.5 c 0
 179.666992188 19.5 226.666992188 0 282 0 c 0
 337.333007812 0 384.5 19.5 423.5 58.5 c 0
 462.5 97.5 482 144.666992188 482 200 c 2
 482 467 l 2
 482 473.666992188 479.666992188 479.333007812 475 484 c 0
 470.333007812 488.666992188 464.666992188 491 458 491 c 0
 451.333007812 491 445.5 488.666992188 440.5 484 c 0
 435.5 479.333007812 433 473.666992188 433 467 c 2
 433 200 l 2
 433 158 418.166992188 122.333007812 388.5 93 c 0
 358.833007812 63.6669921875 323 48.6669921875 281 48 c 1
 239.666992188 48.6669921875 204.333007812 63.6669921875 175 93 c 0
 145.666992188 122.333007812 131 158 131 200 c 2
 131 467 l 2
 131 473.666992188 128.666992188 479.333007812 124 484 c 0
 119.333007812 488.666992188 113.666992188 491 107 491 c 0
 100.333007812 491 94.6669921875 488.666992188 90 484 c 0
 85.3330078125 479.333007812 83 473.666992188 83 467 c 2
 83 200 l 2
350 579 m 0
 350 573 344.833007812 570 334.5 570 c 0
 324.166992188 570 314.333007812 574.333007812 305 583 c 2
 225 660 l 2
 217.666992188 667.333007812 214 673.5 214 678.5 c 0
 214 683.5 218.666992188 688.5 228 693.5 c 0
 237.333007812 698.5 247 701 257 701 c 0
 267 701 276 695 284 683 c 2
 346 590 l 2
 348.666992188 586 350 582.333007812 350 579 c 0
EndSplineSet
EndChar

StartChar: asciitilde
Encoding: 126 126 97
Width: 460
Flags: W
HStem: 240 21G<97 106.667> 251 52<290 299.333 288.667 306> 292 52<160.667 170 154 171.333> 335 20G<353.333 363>
LayerCount: 2
Fore
SplineSet
121 254 m 0x20
 116.333007812 244.666992188 110.333007812 240 103 240 c 0
 91 240 85 245.666992188 85 257 c 0
 85 261 85.6669921875 265 87 269 c 0
 96.3330078125 297 107.166992188 316.5 119.5 327.5 c 0
 131.833007812 338.5 146 344 162 344 c 0xa0
 178 344 201.333007812 337.166992188 232 323.5 c 0
 262.666992188 309.833007812 283.333007812 303 294 303 c 0
 304.666992188 303 313.333007812 305.833007812 320 311.5 c 0
 326.666992188 317.166992188 333 327 339 341 c 0
 343.666992188 350.333007812 349.666992188 355 357 355 c 0
 369 355 375 349.333007812 375 338 c 0
 375 334 374.333007812 330 373 326 c 0
 363.666992188 298 352.833007812 278.5 340.5 267.5 c 0
 328.166992188 256.5 314 251 298 251 c 0x50
 282 251 258.666992188 257.833007812 228 271.5 c 0
 197.333007812 285.166992188 176.666992188 292 166 292 c 0
 155.333007812 292 146.666992188 289.166992188 140 283.5 c 0
 133.333007812 277.833007812 127 268 121 254 c 0x20
EndSplineSet
EndChar

StartChar: tilde
Encoding: 262 732 98
Width: 500
Flags: W
HStem: 584 21G<117 126.667> 595 52<310.667 319.333 308.667 326.333> 636 52<180.667 189.333 173.667 191.333> 679 20G<373.333 383>
LayerCount: 2
Fore
SplineSet
141 598 m 0x20
 136.333007812 588.666992188 130.333007812 584 123 584 c 0
 111 584 105 589.666992188 105 601 c 0
 105 605 105.666992188 609 107 613 c 0
 116.333007812 641 127.166992188 660.5 139.5 671.5 c 0
 151.833007812 682.5 165.833007812 688 181.5 688 c 0xa0
 197.166992188 688 220.5 681.166992188 251.5 667.5 c 0
 282.5 653.833007812 303.333007812 647 314 647 c 0
 324.666992188 647 333.333007812 649.833007812 340 655.5 c 0
 346.666992188 661.166992188 353 671 359 685 c 0
 363.666992188 694.333007812 369.666992188 699 377 699 c 0
 389 699 395 693.333007812 395 682 c 0
 395 678 394.333007812 674 393 670 c 0
 383.666992188 642 372.833007812 622.5 360.5 611.5 c 0
 348.166992188 600.5 334.166992188 595 318.5 595 c 0x50
 302.833007812 595 279.5 601.833007812 248.5 615.5 c 0
 217.5 629.166992188 196.666992188 636 186 636 c 0
 175.333007812 636 166.666992188 633.166992188 160 627.5 c 0
 153.333007812 621.833007812 147 612 141 598 c 0x20
EndSplineSet
EndChar

StartChar: Ntilde
Encoding: 209 209 99
Width: 790
Flags: W
HStem: 0 21G<127.667 134.333 593.333 600.667> 795 52<424 433.333 422.667 440> 836 52<294.667 304 288 305.333> 879 20G<487.333 497>
VStem: 107 48<20.6665 597 24 597 24 666> 574 49<99 669 99 99>
LayerCount: 2
Fore
SplineSet
575 13 m 1x8c
 579 9 l 2
 583.666992188 3 589.666992188 0 597 0 c 0
 604.333007812 0 610.5 2.3330078125 615.5 7 c 0
 620.5 11.6669921875 623 17.3330078125 623 24 c 2
 623 669 l 2
 623 675.666992188 620.5 681.333007812 615.5 686 c 0
 610.5 690.666992188 604.666992188 693 598 693 c 0
 591.333007812 693 585.666992188 690.666992188 581 686 c 0
 576.333007812 681.333007812 574 675.666992188 574 669 c 2
 574 99 l 1
 150 687 l 2
 146.666992188 692.333007812 141.5 695.5 134.5 696.5 c 0
 127.5 697.5 120.333007812 695.333007812 113 690 c 0
 105.666992188 684.666992188 103.666992188 676.666992188 107 666 c 1
 107 24 l 2
 107 17.3330078125 109.333007812 11.6669921875 114 7 c 0
 118.666992188 2.3330078125 124.333007812 0 131 0 c 0
 137.666992188 0 143.333007812 2.3330078125 148 7 c 0
 152.666992188 11.6669921875 155 17.3330078125 155 24 c 2
 155 597 l 1
 575 13 l 1x8c
255 798 m 0
 250.333007812 788.666992188 244.333007812 784 237 784 c 0
 225 784 219 789.666992188 219 801 c 0
 219 805 219.666992188 809 221 813 c 0
 230.333007812 841 241.166992188 860.5 253.5 871.5 c 0
 265.833007812 882.5 280 888 296 888 c 0xac
 312 888 335.333007812 881.166992188 366 867.5 c 0
 396.666992188 853.833007812 417.333007812 847 428 847 c 0
 438.666992188 847 447.333007812 849.833007812 454 855.5 c 0
 460.666992188 861.166992188 467 871 473 885 c 0
 477.666992188 894.333007812 483.666992188 899 491 899 c 0
 503 899 509 893.333007812 509 882 c 0
 509 878 508.333007812 874 507 870 c 0
 497.666992188 842 486.833007812 822.5 474.5 811.5 c 0
 462.166992188 800.5 448 795 432 795 c 0xdc
 416 795 392.666992188 801.833007812 362 815.5 c 0
 331.333007812 829.166992188 310.666992188 836 300 836 c 0xac
 289.333007812 836 280.666992188 833.166992188 274 827.5 c 0
 267.333007812 821.833007812 261 812 255 798 c 0
EndSplineSet
EndChar

StartChar: ntilde
Encoding: 241 241 100
Width: 613
Flags: W
HStem: 0 21G<112 118 118 124 464.667 471.333> 441 48<272.667 314.333> 571 52<354 363.333 352.667 370> 612 52<224.667 234 218 235.333> 655 20G<417.333 427>
VStem: 94 47<20 290 418 465 18 290> 444 48<20.6665 290 24 290>
LayerCount: 2
Fore
SplineSet
118 0 m 2xc6
 130 0 137.666992188 6.6669921875 141 20 c 1
 141 290 l 1
 142.333007812 332 157.666992188 367.666992188 187 397 c 0
 216.333007812 426.333007812 251.833007812 441 293.5 441 c 0
 335.166992188 441 370.666992188 426.166992188 400 396.5 c 0
 429.333007812 366.833007812 444 331.333007812 444 290 c 2
 444 24 l 2
 444 17.3330078125 446.333007812 11.6669921875 451 7 c 0
 455.666992188 2.3330078125 461.333007812 0 468 0 c 0
 474.666992188 0 480.333007812 2.3330078125 485 7 c 0
 489.666992188 11.6669921875 492 17.3330078125 492 24 c 2
 492 290 l 2
 492 344.666992188 472.5 391.5 433.5 430.5 c 0
 394.5 469.5 345.833007812 489 287.5 489 c 0
 229.166992188 489 180.333007812 465.333007812 141 418 c 1
 141 465 l 2
 141 471.666992188 138.833007812 477.333007812 134.5 482 c 0
 130.166992188 486.666992188 124.666992188 489 118 489 c 0
 111.333007812 489 105.666992188 486.666992188 101 482 c 0
 96.3330078125 477.333007812 94 471.666992188 94 465 c 2
 94 18 l 2
 94.6669921875 17.3330078125 95 16.5 95 15.5 c 0
 95 14.5 95.3330078125 13.6669921875 96 13 c 0
 99.3330078125 6.3330078125 104.666992188 2 112 0 c 1
 118 0 l 2xc6
185 574 m 0
 180.333007812 564.666992188 174.333007812 560 167 560 c 0
 155 560 149 565.666992188 149 577 c 0
 149 581 149.666992188 585 151 589 c 0
 160.333007812 617 171.166992188 636.5 183.5 647.5 c 0
 195.833007812 658.5 210 664 226 664 c 0xd6
 242 664 265.333007812 657.166992188 296 643.5 c 0
 326.666992188 629.833007812 347.333007812 623 358 623 c 0
 368.666992188 623 377.333007812 625.833007812 384 631.5 c 0
 390.666992188 637.166992188 397 647 403 661 c 0
 407.666992188 670.333007812 413.666992188 675 421 675 c 0
 433 675 439 669.333007812 439 658 c 0
 439 654 438.333007812 650 437 646 c 0
 427.666992188 618 416.833007812 598.5 404.5 587.5 c 0
 392.166992188 576.5 378 571 362 571 c 0xee
 346 571 322.666992188 577.833007812 292 591.5 c 0
 261.333007812 605.166992188 240.666992188 612 230 612 c 0xd6
 219.333007812 612 210.666992188 609.166992188 204 603.5 c 0
 197.333007812 597.833007812 191 588 185 574 c 0
EndSplineSet
EndChar

StartChar: numbersign
Encoding: 35 35 101
Width: 700
Flags: W
HStem: -4 238<160 171.333 415 426.333> 187 47<65.6665 178 69 170 69 218 226 425 481 590> 470 47<105.667 227 109 219 109 267 275 474 530 630> 470 234<105.667 284 109 284 267 284 272.667 284 272.667 474 527.667 539>
LayerCount: 2
Fore
SplineSet
142 25 m 2x80
 170 187 l 1
 69 187 l 2
 62.3330078125 187 56.6669921875 189.166992188 52 193.5 c 0
 47.3330078125 197.833007812 45 203.333007812 45 210 c 0
 45 216.666992188 47.3330078125 222.333007812 52 227 c 0
 56.6669921875 231.666992188 62.3330078125 234 69 234 c 2
 178 234 l 1
 219 470 l 1
 109 470 l 2
 102.333007812 470 96.6669921875 472.166992188 92 476.5 c 0
 87.3330078125 480.833007812 85 486.333007812 85 493 c 0
 85 499.666992188 87.3330078125 505.333007812 92 510 c 0
 96.6669921875 514.666992188 102.333007812 517 109 517 c 2
 227 517 l 1x60
 255 682 l 2
 257 696.666992188 265.333007812 704 280 704 c 0x10
 288 704 294 701 298 695 c 0
 302 689 303.333007812 682.333007812 302 675 c 2
 275 517 l 1
 482 517 l 1x20
 510 682 l 2
 512 696.666992188 520.333007812 704 535 704 c 0x10
 543 704 549 701 553 695 c 0
 557 689 558.333007812 682.333007812 557 675 c 2
 530 517 l 1
 630 517 l 2
 636.666992188 517 642.333007812 514.833007812 647 510.5 c 0
 651.666992188 506.166992188 654 500.666992188 654 494 c 0
 654 487.333007812 651.666992188 481.666992188 647 477 c 0
 642.333007812 472.333007812 636.666992188 470 630 470 c 2x20
 522 470 l 1
 481 234 l 1
 590 234 l 2
 596.666992188 234 602.333007812 231.833007812 607 227.5 c 0
 611.666992188 223.166992188 614 217.666992188 614 211 c 0
 614 204.333007812 611.666992188 198.666992188 607 194 c 0
 602.333007812 189.333007812 596.666992188 187 590 187 c 2
 473 187 l 1x50
 444 18 l 2
 442 3.3330078125 433.666992188 -4 419 -4 c 0x80
 411 -4 405 -1 401 5 c 0
 397 11 395.666992188 17.6669921875 397 25 c 2
 425 187 l 1
 218 187 l 1x40
 189 18 l 2
 187 3.3330078125 178.666992188 -4 164 -4 c 0
 156 -4 150 -1 146 5 c 0
 142 11 140.666992188 17.6669921875 142 25 c 2x80
226 234 m 1
 433 234 l 1
 474 470 l 1
 267 470 l 1
 226 234 l 1
EndSplineSet
EndChar

StartChar: dollar
Encoding: 36 36 102
Width: 632
Flags: W
HStem: -102 147<317.667 343> 0 45<343 345> 655 45<297 299> 655 107<299 324.333>
VStem: 87 51<505.333 541.667 505.333 544.667> 299 44<46 321 45 331 45 331 382 652> 508 51<160.333 197.667>
LayerCount: 2
Fore
SplineSet
297 738 m 2xae
 297 744.666992188 299.333007812 750.333007812 304 755 c 0
 308.666992188 759.666992188 314.333007812 762 321 762 c 0
 327.666992188 762 333.333007812 759.666992188 338 755 c 0
 342.666992188 750.333007812 345 744.666992188 345 738 c 2
 345 698 l 1
 407.666992188 692.666992188 467 669.333007812 523 628 c 0
 532.333007812 620.666992188 537 613.333007812 537 606 c 0
 537 598.666992188 534.5 592.5 529.5 587.5 c 0
 524.5 582.5 518.5 580 511.5 580 c 0
 504.5 580 498.333007812 582.333007812 493 587 c 0
 446.333007812 624.333007812 396.333007812 646 343 652 c 1
 343 372 l 1
 419 356 474 333.166992188 508 303.5 c 0
 542 273.833007812 559 233.5 559 182.5 c 0
 559 131.5 539 88.8330078125 499 54.5 c 0
 459 20.1669921875 407.666992188 2 345 0 c 1x5e
 345 -78 l 2
 345 -84.6669921875 342.666992188 -90.3330078125 338 -95 c 0
 333.333007812 -99.6669921875 327.666992188 -102 321 -102 c 0
 314.333007812 -102 308.666992188 -99.6669921875 304 -95 c 0
 299.333007812 -90.3330078125 297 -84.6669921875 297 -78 c 2
 297 1 l 1
 213.666992188 7.6669921875 138.666992188 40 72 98 c 0
 64.6669921875 104 61 110.666992188 61 118 c 0
 61 125.333007812 63.5 131.5 68.5 136.5 c 0
 73.5 141.5 79.5 144 86.5 144 c 0
 93.5 144 99.3330078125 141.666992188 104 137 c 0
 161.333007812 83.6669921875 226.333007812 53.3330078125 299 46 c 1
 299 331 l 1
 224.333007812 347.666992188 170.333007812 370.666992188 137 400 c 0
 103.666992188 429.333007812 87 469.166992188 87 519.5 c 0
 87 569.833007812 106.833007812 612.166992188 146.5 646.5 c 0
 186.166992188 680.833007812 236.333007812 698.666992188 297 700 c 1
 297 738 l 2xae
462.5 84.5 m 0
 492.833007812 110.166992188 508 141.666992188 508 179 c 0
 508 216.333007812 496.166992188 245.833007812 472.5 267.5 c 0
 448.833007812 289.166992188 405.666992188 307 343 321 c 1
 343 45 l 1x8e
 392.333007812 45.6669921875 432.166992188 58.8330078125 462.5 84.5 c 0
182.5 616 m 0
 152.833007812 590.666992188 138 559.833007812 138 523.5 c 0
 138 487.166992188 149.333007812 458.166992188 172 436.5 c 0
 194.666992188 414.833007812 237 396.666992188 299 382 c 1
 299 655 l 1x2e
 251 654.333007812 212.166992188 641.333007812 182.5 616 c 0
EndSplineSet
EndChar

StartChar: percent
Encoding: 263 37 103
Width: 824
Flags: W
HStem: -8 43<602 631 602 637> 307 43<599 628> 350 43<196 225 196 231> 665 43<193 222>
VStem: 55 52<527 529 529 531 509.667 553.333> 311 52<527 529 529 531 504.667 548.333> 461 52<169 171 171 173 151.667 195.333> 717 52<169 171 171 173 146.667 190.333>
LayerCount: 2
Fore
SplineSet
319.5 403 m 0xbf
 290.5 367.666992188 253.5 350 208.5 350 c 0
 163.5 350 126.666992188 367.5 98 402.5 c 0
 69.3330078125 437.5 55 479 55 527 c 2
 55 529 l 2
 55 577.666992188 69.5 619.666992188 98.5 655 c 0
 127.5 690.333007812 164.5 708 209.5 708 c 0
 254.5 708 291.333007812 690.5 320 655.5 c 0
 348.666992188 620.5 363 579 363 531 c 2
 363 529 l 2
 363 480.333007812 348.5 438.333007812 319.5 403 c 0xbf
152.5 2 m 0
 148.166992188 6 146 10.8330078125 146 16.5 c 0
 146 22.1669921875 147.333007812 26.6669921875 150 30 c 2
 637 693 l 2
 642.333007812 700.333007812 648.333007812 704 655 704 c 0
 661.666992188 704 667.166992188 702 671.5 698 c 0
 675.833007812 694 678 689.166992188 678 683.5 c 0
 678 677.833007812 676.666992188 673.333007812 674 670 c 2
 187 7 l 2
 181.666992188 -0.3330078125 175.666992188 -4 169 -4 c 0
 162.333007812 -4 156.833007812 -2 152.5 2 c 0
725.5 45 m 0
 696.5 9.6669921875 659.5 -8 614.5 -8 c 0
 569.5 -8 532.666992188 9.5 504 44.5 c 0
 475.333007812 79.5 461 121 461 169 c 2
 461 171 l 2
 461 219.666992188 475.5 261.666992188 504.5 297 c 0
 533.5 332.333007812 570.5 350 615.5 350 c 0xdf
 660.5 350 697.333007812 332.5 726 297.5 c 0
 754.666992188 262.5 769 221 769 173 c 2
 769 171 l 2
 769 122.333007812 754.5 80.3330078125 725.5 45 c 0
137 432 m 0
 157 406 181.5 393 210.5 393 c 0xbf
 239.5 393 263.5 405.833007812 282.5 431.5 c 0
 301.5 457.166992188 311 489 311 527 c 2
 311 529 l 2
 311 567.666992188 301 600 281 626 c 0
 261 652 236.5 665 207.5 665 c 0
 178.5 665 154.5 652 135.5 626 c 0
 116.5 600 107 568.333007812 107 531 c 2
 107 529 l 2
 107 490.333007812 117 458 137 432 c 0
543 74 m 0
 563 48 587.5 35 616.5 35 c 0
 645.5 35 669.5 47.8330078125 688.5 73.5 c 0
 707.5 99.1669921875 717 131 717 169 c 2
 717 171 l 2
 717 209.666992188 707 242 687 268 c 0
 667 294 642.5 307 613.5 307 c 0xdf
 584.5 307 560.5 294 541.5 268 c 0
 522.5 242 513 210.333007812 513 173 c 2
 513 171 l 2
 513 132.333007812 523 100 543 74 c 0
EndSplineSet
EndChar

StartChar: bracketleft
Encoding: 91 91 104
Width: 430
Flags: MW
HStem: -130 38<120.667 356 144 356 144 356> 662 38<144 356 144 144>
VStem: 98 46<-92 662 -92 674 -92 677.333>
LayerCount: 2
Fore
SplineSet
98 -104 m 2
 98 674 l 2
 98 680.666992188 100.666992188 686.666992188 106 692 c 0
 111.333007812 697.333007812 117.333007812 700 124 700 c 2
 356 700 l 2
 361.333007812 700 365.833007812 698 369.5 694 c 0
 373.166992188 690 375 685.666992188 375 681 c 0
 375 676.333007812 373.166992188 672 369.5 668 c 0
 365.833007812 664 361.333007812 662 356 662 c 2
 144 662 l 1
 144 -92 l 1
 356 -92 l 2
 361.333007812 -92 365.833007812 -94 369.5 -98 c 0
 373.166992188 -102 375 -106.333007812 375 -111 c 0
 375 -115.666992188 373.166992188 -120 369.5 -124 c 0
 365.833007812 -128 361.333007812 -130 356 -130 c 2
 124 -130 l 2
 117.333007812 -130 111.333007812 -127.333007812 106 -122 c 0
 100.666992188 -116.666992188 98 -110.666992188 98 -104 c 2
EndSplineSet
EndChar

StartChar: bracketright
Encoding: 93 93 105
Width: 430
Flags: MW
HStem: -130 38<71.3335 286 74 286 74 306> 662 38<71.3335 306 74 286>
VStem: 286 46<-92 662 662 662>
LayerCount: 2
Fore
SplineSet
332 674 m 2
 332 -104 l 2
 332 -110.666992188 329.333007812 -116.666992188 324 -122 c 0
 318.666992188 -127.333007812 312.666992188 -130 306 -130 c 2
 74 -130 l 2
 68.6669921875 -130 64.1669921875 -128 60.5 -124 c 0
 56.8330078125 -120 55 -115.666992188 55 -111 c 0
 55 -106.333007812 56.8330078125 -102 60.5 -98 c 0
 64.1669921875 -94 68.6669921875 -92 74 -92 c 2
 286 -92 l 1
 286 662 l 1
 74 662 l 2
 68.6669921875 662 64.1669921875 664 60.5 668 c 0
 56.8330078125 672 55 676.333007812 55 681 c 0
 55 685.666992188 56.8330078125 690 60.5 694 c 0
 64.1669921875 698 68.6669921875 700 74 700 c 2
 306 700 l 2
 312.666992188 700 318.666992188 697.333007812 324 692 c 0
 329.333007812 686.666992188 332 680.666992188 332 674 c 2
EndSplineSet
EndChar

StartChar: asciicircum
Encoding: 94 94 106
Width: 500
Flags: MW
HStem: 489 21G<93 106 392.667 406.333> 687 20G<246 254 254 258.333>
LayerCount: 2
Fore
SplineSet
249 660 m 1
 129 503 l 2
 122.333007812 493.666992188 112.5 489 99.5 489 c 0
 86.5 489 80 492.666992188 80 500 c 0
 80 504 81.6669921875 508.333007812 85 513 c 2
 218 689 l 2
 228 701 237.333007812 707 246 707 c 2
 254 707 l 2
 262.666992188 707 272 701 282 689 c 2
 415 513 l 2
 418.333007812 508.333007812 420 504 420 500 c 0
 420 492.666992188 413.166992188 489 399.5 489 c 0
 385.833007812 489 375.666992188 493.666992188 369 503 c 2
 249 660 l 1
EndSplineSet
EndChar

StartChar: braceleft
Encoding: 123 123 107
Width: 480
Flags: MW
HStem: 268 38<71 103.333>
VStem: 205 49<62 68 68 141 141 143 433 506>
LayerCount: 2
Fore
SplineSet
406 -139 m 0
 326.666992188 -123 273.333007812 -99.5 246 -68.5 c 0
 218.666992188 -37.5 205 6 205 62 c 2
 205 141 l 2
 205 183.666992188 196.166992188 215.5 178.5 236.5 c 0
 160.833007812 257.5 127.666992188 268 79 268 c 0
 63 268 55 274.333007812 55 287 c 0
 55 299.666992188 63 306 79 306 c 0
 127.666992188 306 160.833007812 316.5 178.5 337.5 c 0
 196.166992188 358.5 205 390.333007812 205 433 c 2
 205 512 l 2
 205 568 218.666992188 611.5 246 642.5 c 0
 273.333007812 673.5 326.666992188 697 406 713 c 0
 412 714.333007812 417 713.5 421 710.5 c 0
 425 707.5 427 702.5 427 695.5 c 0
 427 688.5 423 683.666992188 415 681 c 0
 345.666992188 663 301.5 642.5 282.5 619.5 c 0
 263.5 596.5 254 558.666992188 254 506 c 2
 254 431 l 2
 254 389 245.166992188 357 227.5 335 c 0
 209.833007812 313 184 297 150 287 c 1
 186 275 212.333007812 258.5 229 237.5 c 0
 245.666992188 216.5 254 185 254 143 c 2
 254 68 l 2
 254 15.3330078125 263.5 -22.5 282.5 -45.5 c 0
 301.5 -68.5 345.666992188 -89 415 -107 c 0
 423 -109.666992188 427 -114.5 427 -121.5 c 0
 427 -128.5 425 -133.5 421 -136.5 c 0
 417 -139.5 412 -140.333007812 406 -139 c 0
EndSplineSet
EndChar

StartChar: braceright
Encoding: 125 125 108
Width: 480
Flags: MW
HStem: 268 38<376.667 409>
VStem: 226 49<68 141 431 433 433 506 506 512>
LayerCount: 2
Fore
SplineSet
74 713 m 0
 153.333007812 697 206.666992188 673.5 234 642.5 c 0
 261.333007812 611.5 275 568 275 512 c 2
 275 433 l 2
 275 390.333007812 283.833007812 358.5 301.5 337.5 c 0
 319.166992188 316.5 352.333007812 306 401 306 c 0
 417 306 425 299.666992188 425 287 c 0
 425 274.333007812 417 268 401 268 c 0
 352.333007812 268 319.166992188 257.5 301.5 236.5 c 0
 283.833007812 215.5 275 183.666992188 275 141 c 2
 275 62 l 2
 275 6 261.333007812 -37.5 234 -68.5 c 0
 206.666992188 -99.5 153.333007812 -123 74 -139 c 0
 68 -140.333007812 63 -139.5 59 -136.5 c 0
 55 -133.5 53 -128.5 53 -121.5 c 0
 53 -114.5 57 -109.666992188 65 -107 c 0
 134.333007812 -89 178.5 -68.5 197.5 -45.5 c 0
 216.5 -22.5 226 15.3330078125 226 68 c 2
 226 143 l 2
 226 185 234.833007812 217 252.5 239 c 0
 270.166992188 261 296 277 330 287 c 1
 294 299 267.666992188 315.5 251 336.5 c 0
 234.333007812 357.5 226 389 226 431 c 2
 226 506 l 2
 226 558.666992188 216.5 596.5 197.5 619.5 c 0
 178.5 642.5 134.333007812 663 65 681 c 0
 57 683.666992188 53 688.5 53 695.5 c 0
 53 702.5 55 707.5 59 710.5 c 0
 63 713.5 68 714.333007812 74 713 c 0
EndSplineSet
EndChar

StartChar: bar
Encoding: 124 124 109
Width: 286
Flags: MW
HStem: -132 21G<140 146> 782 20G<140 146>
VStem: 121 44<-110 780>
LayerCount: 2
Fore
SplineSet
121 -110 m 2
 121 780 l 2
 121 786 123.166992188 791.166992188 127.5 795.5 c 0
 131.833007812 799.833007812 137 802 143 802 c 0
 149 802 154.166992188 799.833007812 158.5 795.5 c 0
 162.833007812 791.166992188 165 786 165 780 c 2
 165 -110 l 2
 165 -116 162.833007812 -121.166992188 158.5 -125.5 c 0
 154.166992188 -129.833007812 149 -132 143 -132 c 0
 137 -132 131.833007812 -129.833007812 127.5 -125.5 c 0
 123.166992188 -121.166992188 121 -116 121 -110 c 2
EndSplineSet
EndChar

StartChar: questiondown
Encoding: 191 191 110
Width: 534
Flags: MW
HStem: 0 47<229.333 245 229.333 274.667> 680 20G<242.333 248.667>
VStem: 222 47<431 538 431 538 431 541.333 655 677> 414 47<193 240>
LayerCount: 2
Fore
SplineSet
222 538 m 2
 222 544.666992188 224.333007812 550.166992188 229 554.5 c 0
 233.666992188 558.833007812 239.166992188 561 245.5 561 c 0
 251.833007812 561 257.333007812 558.833007812 262 554.5 c 0
 266.666992188 550.166992188 269 544.666992188 269 538 c 2
 269 431 l 1
 323 425 368.5 401.5 405.5 360.5 c 0
 442.5 319.5 461 270.333007812 461 213 c 0
 461 155.666992188 439.833007812 105.833007812 397.5 63.5 c 0
 355.166992188 21.1669921875 304.333007812 0 245 0 c 0
 205.666992188 0 169.5 9.6669921875 136.5 29 c 0
 103.5 48.3330078125 77.6669921875 74.6669921875 59 108 c 0
 55.6669921875 113.333007812 54.6669921875 119.166992188 56 125.5 c 0
 57.3330078125 131.833007812 60.8330078125 136.666992188 66.5 140 c 0
 72.1669921875 143.333007812 78.1669921875 144.166992188 84.5 142.5 c 0
 90.8330078125 140.833007812 95.6669921875 137.333007812 99 132 c 0
 113.666992188 106 133.833007812 85.3330078125 159.5 70 c 0
 185.166992188 54.6669921875 213.666992188 47 245 47 c 0
 292.333007812 47.6669921875 332.333007812 64.3330078125 365 97 c 0
 397.666992188 129.666992188 414 169.5 414 216.5 c 0
 414 263.5 397.5 303.5 364.5 336.5 c 0
 331.5 369.5 291.666992188 386 245 386 c 0
 239 386 233.666992188 388.166992188 229 392.5 c 0
 224.333007812 396.833007812 222 402.333007812 222 409 c 2
 222 538 l 2
222 677 m 2
 222 683.666992188 224.333007812 689.166992188 229 693.5 c 0
 233.666992188 697.833007812 239.166992188 700 245.5 700 c 0
 251.833007812 700 257.333007812 697.833007812 262 693.5 c 0
 266.666992188 689.166992188 269 683.666992188 269 677 c 2
 269 655 l 2
 269 648.333007812 266.666992188 642.666992188 262 638 c 0
 257.333007812 633.333007812 251.833007812 631 245.5 631 c 0
 239.166992188 631 233.666992188 633.333007812 229 638 c 0
 224.333007812 642.666992188 222 648.333007812 222 655 c 2
 222 677 l 2
EndSplineSet
EndChar

StartChar: trademark
Encoding: 264 8482 111
Width: 690
Flags: MW
HStem: 400 21G<129.667 136.333 305 312 537 544> 679 21<28.6665 234 32 123 143 143 143 234>
VStem: 123 20<410 679> 298 21<410 657> 530 21<410 657 657 657>
LayerCount: 2
Fore
SplineSet
123 410 m 2
 123 679 l 1
 32 679 l 2
 25.3330078125 679 22 682.5 22 689.5 c 0
 22 696.5 25.3330078125 700 32 700 c 2
 234 700 l 2
 240.666992188 700 244 696.5 244 689.5 c 0
 244 682.5 240.666992188 679 234 679 c 2
 143 679 l 1
 143 410 l 2
 143 403.333007812 139.666992188 400 133 400 c 0
 126.333007812 400 123 403.333007812 123 410 c 2
530 410 m 2
 530 657 l 1
 434 524 l 2
 432.666992188 520.666992188 429.666992188 519 425 519 c 2
 424 519 l 2
 420.666992188 519 417.666992188 520.666992188 415 524 c 2
 319 657 l 1
 319 410 l 2
 319 403.333007812 315.5 400 308.5 400 c 0
 301.5 400 298 403.333007812 298 410 c 2
 298 688 l 2
 298 691.333007812 299.666992188 694 303 696 c 1
 303 697 l 1
 309.666992188 701 314.666992188 700 318 694 c 2
 425 546 l 1
 531 694 l 1
 535.286132812 701.713867188 541.286132812 701.713867188 549 694 c 0
 550.333007812 691.333007812 551 689.333007812 551 688 c 2
 551 410 l 2
 551 403.333007812 547.5 400 540.5 400 c 0
 533.5 400 530 403.333007812 530 410 c 2
EndSplineSet
EndChar

StartChar: circumflex
Encoding: 265 710 112
Width: 500
Flags: MW
HStem: 592 21G<151.333 161.667 337 348> 700 20G<246 254 254 258.333>
LayerCount: 2
Fore
SplineSet
249 663 m 1
 186 605 l 2
 176.666992188 596.333007812 166.833007812 592 156.5 592 c 0
 146.166992188 592 141 595.333007812 141 602 c 0
 141 606 142.666992188 610 146 614 c 2
 218 702 l 2
 228 714 237.333007812 720 246 720 c 2
 254 720 l 2
 262.666992188 720 272 714 282 702 c 2
 354 614 l 2
 357.333007812 610 359 606 359 602 c 0
 359 595.333007812 353.5 592 342.5 592 c 0
 331.5 592 321.333007812 596.333007812 312 605 c 2
 249 663 l 1
EndSplineSet
EndChar

StartChar: ocircumflex
Encoding: 244 244 113
Width: 640
Flags: W
HStem: 0 48<265 315 265 322> 443 47<265 315> 443 127<191.333 315> 678 20G<286 294 294 298.333>
VStem: 58 48<218.333 272.667 218.333 278.333> 474 48<218.333 272.667>
LayerCount: 2
Fore
SplineSet
58 245 m 0xdc
 58 178.333007812 80.6669921875 120.833007812 126 72.5 c 0
 171.333007812 24.1669921875 226 0 290 0 c 0
 354 0 408.666992188 24.1669921875 454 72.5 c 0
 499.333007812 120.833007812 522 178.333007812 522 245 c 0
 522 311.666992188 499.333007812 369.166992188 454 417.5 c 0
 408.666992188 465.833007812 354 490 290 490 c 0
 226 490 171.333007812 465.833007812 126 417.5 c 0
 80.6669921875 369.166992188 58 311.666992188 58 245 c 0xdc
160.5 106 m 0
 124.166992188 144.666992188 106 191.166992188 106 245.5 c 0
 106 299.833007812 124.166992188 346.333007812 160.5 385 c 0
 196.833007812 423.666992188 240 443 290 443 c 0
 340 443 383.166992188 423.666992188 419.5 385 c 0
 455.833007812 346.333007812 474 299.833007812 474 245.5 c 0
 474 191.166992188 455.833007812 144.666992188 419.5 106 c 0
 383.166992188 67.3330078125 340 48 290 48 c 0
 240 48 196.833007812 67.3330078125 160.5 106 c 0
289 641 m 1
 226 583 l 2
 216.666992188 574.333007812 206.833007812 570 196.5 570 c 0
 186.166992188 570 181 573.333007812 181 580 c 0
 181 584 182.666992188 588 186 592 c 2
 258 680 l 2
 268 692 277.333007812 698 286 698 c 2
 294 698 l 2
 302.666992188 698 312 692 322 680 c 2
 394 592 l 2
 397.333007812 588 399 584 399 580 c 0
 399 573.333007812 393.5 570 382.5 570 c 0xbc
 371.5 570 361.333007812 574.333007812 352 583 c 2
 289 641 l 1
EndSplineSet
EndChar

StartChar: acute
Encoding: 180 180 114
Width: 500
Flags: MW
HStem: 592 21G<211.333 221.667> 703 20G<289 299>
LayerCount: 2
Fore
SplineSet
246 605 m 2
 236.666992188 596.333007812 226.833007812 592 216.5 592 c 0
 206.166992188 592 201 595 201 601 c 0
 201 604.333007812 202.333007812 608 205 612 c 2
 267 705 l 2
 275 717 284 723 294 723 c 0
 304 723 313.666992188 720.5 323 715.5 c 0
 332.333007812 710.5 337 705.5 337 700.5 c 0
 337 695.5 333.333007812 689.333007812 326 682 c 2
 246 605 l 2
EndSplineSet
EndChar

StartChar: oacute
Encoding: 243 243 115
Width: 640
Flags: W
HStem: 0 48<265 315 265 322> 443 47<265 315> 490 211<312 322 312 322>
VStem: 58 48<218.333 272.667 218.333 278.333> 474 48<218.333 272.667>
LayerCount: 2
Fore
SplineSet
58 245 m 0xd8
 58 178.333007812 80.6669921875 120.833007812 126 72.5 c 0
 171.333007812 24.1669921875 226 0 290 0 c 0
 354 0 408.666992188 24.1669921875 454 72.5 c 0
 499.333007812 120.833007812 522 178.333007812 522 245 c 0
 522 311.666992188 499.333007812 369.166992188 454 417.5 c 0
 408.666992188 465.833007812 354 490 290 490 c 0
 226 490 171.333007812 465.833007812 126 417.5 c 0
 80.6669921875 369.166992188 58 311.666992188 58 245 c 0xd8
160.5 106 m 0
 124.166992188 144.666992188 106 191.166992188 106 245.5 c 0
 106 299.833007812 124.166992188 346.333007812 160.5 385 c 0
 196.833007812 423.666992188 240 443 290 443 c 0
 340 443 383.166992188 423.666992188 419.5 385 c 0
 455.833007812 346.333007812 474 299.833007812 474 245.5 c 0
 474 191.166992188 455.833007812 144.666992188 419.5 106 c 0
 383.166992188 67.3330078125 340 48 290 48 c 0
 240 48 196.833007812 67.3330078125 160.5 106 c 0
269 583 m 2
 259.666992188 574.333007812 249.833007812 570 239.5 570 c 0
 229.166992188 570 224 573 224 579 c 0
 224 582.333007812 225.333007812 586 228 590 c 2
 290 683 l 2
 298 695 307 701 317 701 c 0xb8
 327 701 336.666992188 698.5 346 693.5 c 0
 355.333007812 688.5 360 683.5 360 678.5 c 0
 360 673.5 356.333007812 667.333007812 349 660 c 2
 269 583 l 2
EndSplineSet
EndChar

StartChar: otilde
Encoding: 245 245 116
Width: 640
Flags: W
HStem: 0 48<265 315 265 322> 443 47<265 315> 581 52<350 359.333 348.667 366> 622 52<220.667 229.333 213.667 231.333> 665 20G<413.333 423>
VStem: 58 48<218.333 272.667 218.333 278.333> 474 48<218.333 272.667>
LayerCount: 2
Fore
SplineSet
58 245 m 0xc6
 58 178.333007812 80.6669921875 120.833007812 126 72.5 c 0
 171.333007812 24.1669921875 226 0 290 0 c 0
 354 0 408.666992188 24.1669921875 454 72.5 c 0
 499.333007812 120.833007812 522 178.333007812 522 245 c 0
 522 311.666992188 499.333007812 369.166992188 454 417.5 c 0
 408.666992188 465.833007812 354 490 290 490 c 0
 226 490 171.333007812 465.833007812 126 417.5 c 0
 80.6669921875 369.166992188 58 311.666992188 58 245 c 0xc6
160.5 106 m 0
 124.166992188 144.666992188 106 191.166992188 106 245.5 c 0
 106 299.833007812 124.166992188 346.333007812 160.5 385 c 0
 196.833007812 423.666992188 240 443 290 443 c 0
 340 443 383.166992188 423.666992188 419.5 385 c 0
 455.833007812 346.333007812 474 299.833007812 474 245.5 c 0
 474 191.166992188 455.833007812 144.666992188 419.5 106 c 0
 383.166992188 67.3330078125 340 48 290 48 c 0
 240 48 196.833007812 67.3330078125 160.5 106 c 0
181 584 m 0
 176.333007812 574.666992188 170.333007812 570 163 570 c 0
 151 570 145 575.666992188 145 587 c 0
 145 591 145.666992188 595 147 599 c 0
 156.333007812 627 167.166992188 646.5 179.5 657.5 c 0
 191.833007812 668.5 205.833007812 674 221.5 674 c 0xd6
 237.166992188 674 260.5 667.166992188 291.5 653.5 c 0
 322.5 639.833007812 343.333007812 633 354 633 c 0
 364.666992188 633 373.333007812 635.833007812 380 641.5 c 0
 386.666992188 647.166992188 393 657 399 671 c 0
 403.666992188 680.333007812 409.666992188 685 417 685 c 0
 429 685 435 679.333007812 435 668 c 0
 435 664 434.333007812 660 433 656 c 0
 423.666992188 628 412.833007812 608.5 400.5 597.5 c 0
 388.166992188 586.5 374 581 358 581 c 0xee
 342 581 318.666992188 587.833007812 288 601.5 c 0
 257.333007812 615.166992188 236.666992188 622 226 622 c 0xd6
 215.333007812 622 206.666992188 619.166992188 200 613.5 c 0
 193.333007812 607.833007812 187 598 181 584 c 0
EndSplineSet
EndChar

StartChar: aacute
Encoding: 225 225 117
Width: 574
Flags: MW
HStem: 0 48<270.333 313.333> 443 47<270.333 313.333 263 320.667> 681 20G<315 325>
VStem: 63 48<217.667 272.333 217.667 278.667> 479 48<24 97 97 97 217.667 272.333 394 466>
LayerCount: 2
Fore
SplineSet
503 490 m 0
 509.666992188 490 515.333007812 487.666992188 520 483 c 0
 524.666992188 478.333007812 527 472.666992188 527 466 c 2
 527 24 l 2
 527 17.3330078125 524.666992188 11.6669921875 520 7 c 0
 515.333007812 2.3330078125 509.666992188 0 503 0 c 0
 496.333007812 0 490.666992188 2.3330078125 486 7 c 0
 481.333007812 11.6669921875 479 17.3330078125 479 24 c 2
 479 97 l 1
 457.666992188 67 430.833007812 43.3330078125 398.5 26 c 0
 366.166992188 8.6669921875 331.666992188 0 295 0 c 0
 231 0 176.333007812 24 131 72 c 0
 85.6669921875 120 63 177.666992188 63 245 c 0
 63 312.333007812 85.6669921875 370 131 418 c 0
 176.333007812 466 231 490 295 490 c 0
 331.666992188 490 366.166992188 481.333007812 398.5 464 c 0
 430.833007812 446.666992188 457.666992188 423.333007812 479 394 c 1
 479 466 l 2
 479 472.666992188 481.333007812 478.333007812 486 483 c 0
 490.666992188 487.666992188 496.333007812 490 503 490 c 0
165.5 105.5 m 0
 201.833007812 67.1669921875 245.166992188 48 295.5 48 c 0
 345.833007812 48 389 67.1669921875 425 105.5 c 0
 461 143.833007812 479 190.333007812 479 245 c 0
 479 299.666992188 461 346.333007812 425 385 c 0
 389 423.666992188 345.833007812 443 295.5 443 c 0
 245.166992188 443 201.833007812 423.666992188 165.5 385 c 0
 129.166992188 346.333007812 111 299.666992188 111 245 c 0
 111 190.333007812 129.166992188 143.833007812 165.5 105.5 c 0
272 583 m 2
 262.666992188 574.333007812 252.833007812 570 242.5 570 c 0
 232.166992188 570 227 573 227 579 c 0
 227 582.333007812 228.333007812 586 231 590 c 2
 293 683 l 2
 301 695 310 701 320 701 c 0
 330 701 339.666992188 698.5 349 693.5 c 0
 358.333007812 688.5 363 683.5 363 678.5 c 0
 363 673.5 359.333007812 667.333007812 352 660 c 2
 272 583 l 2
EndSplineSet
EndChar

StartChar: acircumflex
Encoding: 226 226 118
Width: 574
Flags: W
HStem: 0 48<270.333 313.333> 443 47<270.333 313.333 263 320.667> 490 80<196.333 313.333> 678 20G<291 299 299 303.333>
VStem: 63 48<217.667 272.333 217.667 278.667> 479 48<24 97 97 97 217.667 272.333 394 466>
LayerCount: 2
Fore
SplineSet
503 490 m 0xbc
 509.666992188 490 515.333007812 487.666992188 520 483 c 0
 524.666992188 478.333007812 527 472.666992188 527 466 c 2
 527 24 l 2
 527 17.3330078125 524.666992188 11.6669921875 520 7 c 0
 515.333007812 2.3330078125 509.666992188 0 503 0 c 0
 496.333007812 0 490.666992188 2.3330078125 486 7 c 0
 481.333007812 11.6669921875 479 17.3330078125 479 24 c 2
 479 97 l 1
 457.666992188 67 430.833007812 43.3330078125 398.5 26 c 0
 366.166992188 8.6669921875 331.666992188 0 295 0 c 0
 231 0 176.333007812 24 131 72 c 0
 85.6669921875 120 63 177.666992188 63 245 c 0
 63 312.333007812 85.6669921875 370 131 418 c 0
 176.333007812 466 231 490 295 490 c 0xdc
 331.666992188 490 366.166992188 481.333007812 398.5 464 c 0
 430.833007812 446.666992188 457.666992188 423.333007812 479 394 c 1
 479 466 l 2
 479 472.666992188 481.333007812 478.333007812 486 483 c 0
 490.666992188 487.666992188 496.333007812 490 503 490 c 0xbc
165.5 105.5 m 0
 201.833007812 67.1669921875 245.166992188 48 295.5 48 c 0
 345.833007812 48 389 67.1669921875 425 105.5 c 0
 461 143.833007812 479 190.333007812 479 245 c 0
 479 299.666992188 461 346.333007812 425 385 c 0
 389 423.666992188 345.833007812 443 295.5 443 c 0
 245.166992188 443 201.833007812 423.666992188 165.5 385 c 0
 129.166992188 346.333007812 111 299.666992188 111 245 c 0
 111 190.333007812 129.166992188 143.833007812 165.5 105.5 c 0
294 641 m 1
 231 583 l 2
 221.666992188 574.333007812 211.833007812 570 201.5 570 c 0
 191.166992188 570 186 573.333007812 186 580 c 0
 186 584 187.666992188 588 191 592 c 2
 263 680 l 2
 273 692 282.333007812 698 291 698 c 2
 299 698 l 2
 307.666992188 698 317 692 327 680 c 2
 399 592 l 2
 402.333007812 588 404 584 404 580 c 0
 404 573.333007812 398.5 570 387.5 570 c 0
 376.5 570 366.333007812 574.333007812 357 583 c 2
 294 641 l 1
EndSplineSet
EndChar

StartChar: atilde
Encoding: 227 227 119
Width: 574
Flags: W
HStem: 0 48<270.333 313.333> 443 47<270.333 313.333 263 320.667> 581 52<355.667 364 353 371.333> 622 52<226 234.333 218.667 237> 665 20G<418.333 428>
VStem: 63 48<217.667 272.333 217.667 278.667> 479 48<24 97 97 97 217.667 272.333 394 466>
LayerCount: 2
Fore
SplineSet
503 490 m 0xc6
 509.666992188 490 515.333007812 487.666992188 520 483 c 0
 524.666992188 478.333007812 527 472.666992188 527 466 c 2
 527 24 l 2
 527 17.3330078125 524.666992188 11.6669921875 520 7 c 0
 515.333007812 2.3330078125 509.666992188 0 503 0 c 0
 496.333007812 0 490.666992188 2.3330078125 486 7 c 0
 481.333007812 11.6669921875 479 17.3330078125 479 24 c 2
 479 97 l 1
 457.666992188 67 430.833007812 43.3330078125 398.5 26 c 0
 366.166992188 8.6669921875 331.666992188 0 295 0 c 0
 231 0 176.333007812 24 131 72 c 0
 85.6669921875 120 63 177.666992188 63 245 c 0
 63 312.333007812 85.6669921875 370 131 418 c 0
 176.333007812 466 231 490 295 490 c 0
 331.666992188 490 366.166992188 481.333007812 398.5 464 c 0
 430.833007812 446.666992188 457.666992188 423.333007812 479 394 c 1
 479 466 l 2
 479 472.666992188 481.333007812 478.333007812 486 483 c 0
 490.666992188 487.666992188 496.333007812 490 503 490 c 0xc6
165.5 105.5 m 0
 201.833007812 67.1669921875 245.166992188 48 295.5 48 c 0
 345.833007812 48 389 67.1669921875 425 105.5 c 0
 461 143.833007812 479 190.333007812 479 245 c 0
 479 299.666992188 461 346.333007812 425 385 c 0
 389 423.666992188 345.833007812 443 295.5 443 c 0
 245.166992188 443 201.833007812 423.666992188 165.5 385 c 0
 129.166992188 346.333007812 111 299.666992188 111 245 c 0
 111 190.333007812 129.166992188 143.833007812 165.5 105.5 c 0
186 584 m 0
 181.333007812 574.666992188 175.333007812 570 168 570 c 0
 156 570 150 575.666992188 150 587 c 0
 150 591 150.666992188 595 152 599 c 0
 161.333007812 627 172.166992188 646.5 184.5 657.5 c 0
 196.833007812 668.5 210.833007812 674 226.5 674 c 0xd6
 242.166992188 674 265.333007812 667.166992188 296 653.5 c 0
 326.666992188 639.833007812 347.5 633 358.5 633 c 0
 369.5 633 378.333007812 635.833007812 385 641.5 c 0
 391.666992188 647.166992188 398 657 404 671 c 0
 408.666992188 680.333007812 414.666992188 685 422 685 c 0
 434 685 440 679.333007812 440 668 c 0
 440 664 439.333007812 660 438 656 c 0
 428.666992188 628 417.833007812 608.5 405.5 597.5 c 0
 393.166992188 586.5 379.166992188 581 363.5 581 c 0xee
 347.833007812 581 324.666992188 587.833007812 294 601.5 c 0
 263.333007812 615.166992188 242.5 622 231.5 622 c 0xd6
 220.5 622 211.666992188 619.166992188 205 613.5 c 0
 198.333007812 607.833007812 192 598 186 584 c 0
EndSplineSet
EndChar

StartChar: Igrave
Encoding: 204 204 120
Width: 348
Flags: MW
HStem: 0 21G<211.667 218.333> 680 20G<211.667 218.333> 903 20G<186 196>
VStem: 191 49<20.6665 676 24 676>
LayerCount: 2
Fore
SplineSet
191 24 m 2
 191 17.3330078125 193.333007812 11.6669921875 198 7 c 0
 202.666992188 2.3330078125 208.333007812 0 215 0 c 0
 221.666992188 0 227.5 2.3330078125 232.5 7 c 0
 237.5 11.6669921875 240 17.3330078125 240 24 c 2
 240 676 l 2
 240 682.666992188 237.5 688.333007812 232.5 693 c 0
 227.5 697.666992188 221.666992188 700 215 700 c 0
 208.333007812 700 202.666992188 697.666992188 198 693 c 0
 193.333007812 688.333007812 191 682.666992188 191 676 c 2
 191 24 l 2
284 801 m 0
 284 795 278.833007812 792 268.5 792 c 0
 258.166992188 792 248.333007812 796.333007812 239 805 c 2
 159 882 l 2
 151.666992188 889.333007812 148 895.5 148 900.5 c 0
 148 905.5 152.666992188 910.5 162 915.5 c 0
 171.333007812 920.5 181 923 191 923 c 0
 201 923 210 917 218 905 c 2
 280 812 l 2
 282.666992188 808 284 804.333007812 284 801 c 0
EndSplineSet
EndChar

StartChar: Iacute
Encoding: 205 205 121
Width: 274
Flags: MW
HStem: 0 21G<147.667 154.333> 680 20G<147.667 154.333> 903 20G<171 181>
VStem: 127 49<20.6665 676 24 676>
LayerCount: 2
Fore
SplineSet
127 24 m 2
 127 17.3330078125 129.333007812 11.6669921875 134 7 c 0
 138.666992188 2.3330078125 144.333007812 0 151 0 c 0
 157.666992188 0 163.5 2.3330078125 168.5 7 c 0
 173.5 11.6669921875 176 17.3330078125 176 24 c 2
 176 676 l 2
 176 682.666992188 173.5 688.333007812 168.5 693 c 0
 163.5 697.666992188 157.666992188 700 151 700 c 0
 144.333007812 700 138.666992188 697.666992188 134 693 c 0
 129.333007812 688.333007812 127 682.666992188 127 676 c 2
 127 24 l 2
128 805 m 2
 118.666992188 796.333007812 108.833007812 792 98.5 792 c 0
 88.1669921875 792 83 795 83 801 c 0
 83 804.333007812 84.3330078125 808 87 812 c 2
 149 905 l 2
 157 917 166 923 176 923 c 0
 186 923 195.666992188 920.5 205 915.5 c 0
 214.333007812 910.5 219 905.5 219 900.5 c 0
 219 895.5 215.333007812 889.333007812 208 882 c 2
 128 805 l 2
EndSplineSet
EndChar

StartChar: Icircumflex
Encoding: 206 206 122
Width: 274
Flags: MW
HStem: 0 21G<106.667 113.333> 680 20G<106.667 113.333> 900 20G<106 114 114 118.333>
VStem: 86 49<20.6665 676 24 676>
LayerCount: 2
Fore
SplineSet
86 24 m 2
 86 17.3330078125 88.3330078125 11.6669921875 93 7 c 0
 97.6669921875 2.3330078125 103.333007812 0 110 0 c 0
 116.666992188 0 122.5 2.3330078125 127.5 7 c 0
 132.5 11.6669921875 135 17.3330078125 135 24 c 2
 135 676 l 2
 135 682.666992188 132.5 688.333007812 127.5 693 c 0
 122.5 697.666992188 116.666992188 700 110 700 c 0
 103.333007812 700 97.6669921875 697.666992188 93 693 c 0
 88.3330078125 688.333007812 86 682.666992188 86 676 c 2
 86 24 l 2
109 863 m 1
 46 805 l 2
 36.6669921875 796.333007812 26.8330078125 792 16.5 792 c 0
 6.1669921875 792 1 795.333007812 1 802 c 0
 1 806 2.6669921875 810 6 814 c 2
 78 902 l 2
 88 914 97.3330078125 920 106 920 c 2
 114 920 l 2
 122.666992188 920 132 914 142 902 c 2
 214 814 l 2
 217.333007812 810 219 806 219 802 c 0
 219 795.333007812 213.5 792 202.5 792 c 0
 191.5 792 181.333007812 796.333007812 172 805 c 2
 109 863 l 1
EndSplineSet
EndChar

StartChar: Acircumflex
Encoding: 194 194 123
Width: 664
Flags: W
HStem: 0 21G<84 89.6665 567.333 573> 1 21G<75 75 582 582> 181 49<187 187 187 470> 900 20G<325 333 333 337.333>
LayerCount: 2
Fore
SplineSet
75 1 m 1x70
 84 0 l 1
 95.3330078125 0 103 5.3330078125 107 16 c 2
 169 181 l 1
 488 181 l 1
 550 16 l 2
 554 5.3330078125 561.666992188 0 573 0 c 1xb0
 582 1 l 1
 588 3.6669921875 592.333007812 8.1669921875 595 14.5 c 0
 597.666992188 20.8330078125 597.666992188 27 595 33 c 2
 352 682 l 2
 348.666992188 692 341 697 329 697 c 0
 317 697 308.666992188 692 304 682 c 2
 61 33 l 2
 58.3330078125 27 58.5 20.8330078125 61.5 14.5 c 0
 64.5 8.1669921875 69 3.6669921875 75 1 c 1x70
187 230 m 1
 329 606 l 1
 470 230 l 1
 187 230 l 1
328 863 m 1
 265 805 l 2
 255.666992188 796.333007812 245.833007812 792 235.5 792 c 0
 225.166992188 792 220 795.333007812 220 802 c 0
 220 806 221.666992188 810 225 814 c 2
 297 902 l 2
 307 914 316.333007812 920 325 920 c 2
 333 920 l 2
 341.666992188 920 351 914 361 902 c 2
 433 814 l 2
 436.333007812 810 438 806 438 802 c 0
 438 795.333007812 432.5 792 421.5 792 c 0
 410.5 792 400.333007812 796.333007812 391 805 c 2
 328 863 l 1
EndSplineSet
EndChar

StartChar: Atilde
Encoding: 195 195 124
Width: 664
Flags: W
HStem: 0 21G<84 89.6665 567.333 573> 1 21G<75 75 582 582> 795 52<389.667 398 387 405.333> 836 52<259.667 268.333 252.667 270.333> 879 20G<452.333 462>
LayerCount: 2
Fore
SplineSet
75 1 m 1x40
 84 0 l 1
 95.3330078125 0 103 5.3330078125 107 16 c 2
 169 181 l 1
 488 181 l 1
 550 16 l 2
 554 5.3330078125 561.666992188 0 573 0 c 1x80
 582 1 l 1
 588 3.6669921875 592.333007812 8.1669921875 595 14.5 c 0
 597.666992188 20.8330078125 597.666992188 27 595 33 c 2
 352 682 l 2
 348.666992188 692 341 697 329 697 c 0
 317 697 308.666992188 692 304 682 c 2
 61 33 l 2
 58.3330078125 27 58.5 20.8330078125 61.5 14.5 c 0
 64.5 8.1669921875 69 3.6669921875 75 1 c 1x40
187 230 m 1
 329 606 l 1
 470 230 l 1
 187 230 l 1
220 798 m 0
 215.333007812 788.666992188 209.333007812 784 202 784 c 0
 190 784 184 789.666992188 184 801 c 0
 184 805 184.666992188 809 186 813 c 0
 195.333007812 841 206.166992188 860.5 218.5 871.5 c 0
 230.833007812 882.5 244.833007812 888 260.5 888 c 0x10
 276.166992188 888 299.333007812 881.166992188 330 867.5 c 0
 360.666992188 853.833007812 381.5 847 392.5 847 c 0
 403.5 847 412.333007812 849.833007812 419 855.5 c 0
 425.666992188 861.166992188 432 871 438 885 c 0
 442.666992188 894.333007812 448.666992188 899 456 899 c 0
 468 899 474 893.333007812 474 882 c 0
 474 878 473.333007812 874 472 870 c 0
 462.666992188 842 451.833007812 822.5 439.5 811.5 c 0
 427.166992188 800.5 413.166992188 795 397.5 795 c 0x28
 381.833007812 795 358.5 801.833007812 327.5 815.5 c 0
 296.5 829.166992188 275.666992188 836 265 836 c 0x10
 254.333007812 836 245.666992188 833.166992188 239 827.5 c 0
 232.333007812 821.833007812 226 812 220 798 c 0
EndSplineSet
EndChar

StartChar: ucircumflex
Encoding: 251 251 126
Width: 613
Flags: MW
HStem: 0 48<282 282> 678 20G<279 287 287 291.333>
VStem: 83 48<172.333 467 200 467> 433 49<179 467 200 467>
LayerCount: 2
Fore
SplineSet
83 200 m 2
 83 144.666992188 102.333007812 97.5 141 58.5 c 0
 179.666992188 19.5 226.666992188 0 282 0 c 0
 337.333007812 0 384.5 19.5 423.5 58.5 c 0
 462.5 97.5 482 144.666992188 482 200 c 2
 482 467 l 2
 482 473.666992188 479.666992188 479.333007812 475 484 c 0
 470.333007812 488.666992188 464.666992188 491 458 491 c 0
 451.333007812 491 445.5 488.666992188 440.5 484 c 0
 435.5 479.333007812 433 473.666992188 433 467 c 2
 433 200 l 2
 433 158 418.166992188 122.333007812 388.5 93 c 0
 358.833007812 63.6669921875 323 48.6669921875 281 48 c 1
 239.666992188 48.6669921875 204.333007812 63.6669921875 175 93 c 0
 145.666992188 122.333007812 131 158 131 200 c 2
 131 467 l 2
 131 473.666992188 128.666992188 479.333007812 124 484 c 0
 119.333007812 488.666992188 113.666992188 491 107 491 c 0
 100.333007812 491 94.6669921875 488.666992188 90 484 c 0
 85.3330078125 479.333007812 83 473.666992188 83 467 c 2
 83 200 l 2
282 641 m 1
 219 583 l 2
 209.666992188 574.333007812 199.833007812 570 189.5 570 c 0
 179.166992188 570 174 573.333007812 174 580 c 0
 174 584 175.666992188 588 179 592 c 2
 251 680 l 2
 261 692 270.333007812 698 279 698 c 2
 287 698 l 2
 295.666992188 698 305 692 315 680 c 2
 387 592 l 2
 390.333007812 588 392 584 392 580 c 0
 392 573.333007812 386.5 570 375.5 570 c 0
 364.5 570 354.333007812 574.333007812 345 583 c 2
 282 641 l 1
EndSplineSet
EndChar

StartChar: florin
Encoding: 266 402 127
Width: 506
Flags: MW
HStem: -5 44<81.3335 109.333 76.6665 128.667> 384 45<125 226 128 218 280 416> 661 44<386.333 405>
LayerCount: 2
Fore
SplineSet
94 -5 m 0
 68.6669921875 -5 56 2.3330078125 56 17 c 0
 56 31.6669921875 66.3330078125 39 87 39 c 0
 131.666992188 39 159 66.3330078125 169 121 c 2
 218 384 l 1
 128 384 l 2
 122 384 116.666992188 386.166992188 112 390.5 c 0
 107.333007812 394.833007812 105 400.166992188 105 406.5 c 0
 105 412.833007812 107.333007812 418.166992188 112 422.5 c 0
 116.666992188 426.833007812 122 429 128 429 c 2
 226 429 l 1
 252 565 l 2
 261.333007812 614.333007812 277.5 650 300.5 672 c 0
 323.5 694 355 705 395 705 c 0
 418.333007812 705 437.333007812 703.166992188 452 699.5 c 0
 466.666992188 695.833007812 474 688 474 676 c 0
 474 670 471.833007812 665 467.5 661 c 0
 463.166992188 657 459.333007812 655 456 655 c 0
 452.666992188 655 445 656 433 658 c 0
 421 660 410 661 400 661 c 0
 372.666992188 661 351.666992188 653.333007812 337 638 c 0
 322.333007812 622.666992188 311.666992188 597.333007812 305 562 c 2
 280 429 l 1
 416 429 l 2
 422 429 427.333007812 426.666992188 432 422 c 0
 436.666992188 417.333007812 439 412 439 406 c 0
 439 400 436.666992188 394.833007812 432 390.5 c 0
 427.333007812 386.166992188 422 384 416 384 c 2
 272 384 l 1
 222 118 l 2
 206 36 163.333007812 -5 94 -5 c 0
EndSplineSet
EndChar

StartChar: oe
Encoding: 267 339 128
Width: 1055
Flags: MW
HStem: 0 48<264.333 312.667 694.333 736.333> 236 49<532 905 532 933 529 905> 442 50
VStem: 58 48<217.667 272.333 217.667 278> 473 56<236 236 236 272.333>
LayerCount: 2
Fore
SplineSet
834 30 m 0
 799.333007812 10 759.666992188 0 715 0 c 0
 670.333007812 0 628.166992188 13.3330078125 588.5 40 c 0
 548.833007812 66.6669921875 519.666992188 102 501 146 c 1
 483 102 455 66.6669921875 417 40 c 0
 379 13.3330078125 336.333007812 0 289 0 c 0
 225 0 170.5 24 125.5 72 c 0
 80.5 120 58 177.5 58 244.5 c 0
 58 311.5 80.5 369 125.5 417 c 0
 170.5 465 225 489 289 489 c 0
 335.666992188 489 378 475.666992188 416 449 c 0
 454 422.333007812 482.333007812 387.333007812 501 344 c 1
 519.666992188 388 548.833007812 423.666992188 588.5 451 c 0
 628.166992188 478.333007812 672 492 720 492 c 0
 782.666992188 492 836.5 470 881.5 426 c 0
 926.5 382 951.666992188 328 957 264 c 1
 957 260 l 2
 957 253.333007812 954.666992188 247.666992188 950 243 c 0
 945.333007812 238.333007812 939.666992188 236 933 236 c 2
 529 236 l 1
 531.666992188 182.666992188 551.333007812 138 588 102 c 0
 624.666992188 66 668.666992188 48 720 48 c 0
 752.666992188 48 783 56 811 72 c 0
 839 88 861.333007812 109.666992188 878 137 c 0
 881.333007812 143 886.5 146.666992188 893.5 148 c 0
 900.5 149.333007812 906.333007812 148.333007812 911 145 c 0
 924.333007812 135.666992188 927 124.666992188 919 112 c 0
 897 77.3330078125 868.666992188 50 834 30 c 0
106 245 m 0
 106 190.333007812 124 143.833007812 160 105.5 c 0
 196 67.1669921875 239.166992188 48 289.5 48 c 0
 339.833007812 48 383 67.1669921875 419 105.5 c 0
 455 143.833007812 473 190.333007812 473 245 c 0
 473 299.666992188 455 346.166992188 419 384.5 c 0
 383 422.833007812 339.833007812 442 289.5 442 c 0
 239.166992188 442 196 422.833007812 160 384.5 c 0
 124 346.166992188 106 299.666992188 106 245 c 0
840 399 m 0
 805.333007812 429 765.166992188 444 719.5 444 c 0
 673.833007812 444 633.5 429 598.5 399 c 0
 563.5 369 541.333007812 331 532 285 c 1
 905 285 l 1
 896.333007812 331 874.666992188 369 840 399 c 0
EndSplineSet
EndChar

StartChar: edieresis
Encoding: 235 235 129
Width: 584
Flags: W
HStem: 0 48<273.667 315.333 273.667 319.333> 236 47<112 483 112 511 112 514.333> 283 159<275.667 321.333 275.667 483> 442 48<275.667 321.333> 570 86<210 222 375 387>
VStem: 61 48<236 236 236 278.333> 259 79<607 619>
LayerCount: 2
Fore
SplineSet
535 258 m 2xde
 535 262 l 1
 529.666992188 326.666992188 504.666992188 380.833007812 460 424.5 c 0
 415.333007812 468.166992188 360.833007812 490 296.5 490 c 0
 232.166992188 490 176.833007812 466 130.5 418 c 0
 84.1669921875 370 61 312.166992188 61 244.5 c 0
 61 176.833007812 84.1669921875 119.166992188 130.5 71.5 c 0
 176.833007812 23.8330078125 233 0 299 0 c 0
 339.666992188 0 377.5 10 412.5 30 c 0
 447.5 50 475.666992188 77 497 111 c 0
 505 124.333007812 502.333007812 135.666992188 489 145 c 1
 475.666992188 153 465 150.333007812 457 137 c 0
 440.333007812 109.666992188 418 88 390 72 c 0
 362 56 331.666992188 48 299 48 c 0
 248.333007812 48 204.666992188 66 168 102 c 0
 131.333007812 138 111.666992188 182.666992188 109 236 c 1
 511 236 l 2
 517.666992188 236 523.333007812 238 528 242 c 0
 532.666992188 246 535 251.333007812 535 258 c 2xde
178 397.5 m 0
 212.666992188 427.166992188 252.833007812 442 298.5 442 c 0x2e
 344.166992188 442 384.333007812 427 419 397 c 0
 453.666992188 367 475 329 483 283 c 1
 112 283 l 1
 121.333007812 329.666992188 143.333007812 367.833007812 178 397.5 c 0
173 613 m 0
 173 625 177.166992188 635.166992188 185.5 643.5 c 0
 193.833007812 651.833007812 204 656 216 656 c 0
 228 656 238.166992188 651.833007812 246.5 643.5 c 0
 254.833007812 635.166992188 259 625 259 613 c 0
 259 601 254.833007812 590.833007812 246.5 582.5 c 0
 238.166992188 574.166992188 228 570 216 570 c 0
 204 570 193.833007812 574.166992188 185.5 582.5 c 0
 177.166992188 590.833007812 173 601 173 613 c 0
338 613 m 0
 338 625 342.166992188 635.166992188 350.5 643.5 c 0
 358.833007812 651.833007812 369 656 381 656 c 0
 393 656 403.166992188 651.833007812 411.5 643.5 c 0
 419.833007812 635.166992188 424 625 424 613 c 0
 424 601 419.833007812 590.833007812 411.5 582.5 c 0
 403.166992188 574.166992188 393 570 381 570 c 0
 369 570 358.833007812 574.166992188 350.5 582.5 c 0
 342.166992188 590.833007812 338 601 338 613 c 0
EndSplineSet
EndChar

StartChar: Edieresis
Encoding: 203 203 130
Width: 670
Flags: MW
HStem: 0 49<153 488 153 488 153 491.333> 325 49<153 446 153 449.333> 651 49<153 488> 794 86<218 230 383 395>
VStem: 104 49<20.6665 325 49 325 374 651> 267 79<831 843>
LayerCount: 2
Fore
SplineSet
104 24 m 2
 104 17.3330078125 106.166992188 11.8330078125 110.5 7.5 c 0
 114.833007812 3.1669921875 120 0.6669921875 126 0 c 2
 488 0 l 2
 494.666992188 0 500.333007812 2.3330078125 505 7 c 0
 509.666992188 11.6669921875 512 17.5 512 24.5 c 0
 512 31.5 509.666992188 37.3330078125 505 42 c 0
 500.333007812 46.6669921875 494.666992188 49 488 49 c 2
 153 49 l 1
 153 325 l 1
 446 325 l 2
 452.666992188 325 458.333007812 327.333007812 463 332 c 0
 467.666992188 336.666992188 470 342.333007812 470 349 c 0
 470 355.666992188 467.666992188 361.5 463 366.5 c 0
 458.333007812 371.5 452.666992188 374 446 374 c 2
 153 374 l 1
 153 651 l 1
 488 651 l 2
 494.666992188 651 500.333007812 653.333007812 505 658 c 0
 509.666992188 662.666992188 512 668.5 512 675.5 c 0
 512 682.5 509.666992188 688.333007812 505 693 c 0
 500.333007812 697.666992188 494.666992188 700 488 700 c 2
 128 700 l 2
 121.333007812 700 115.666992188 697.666992188 111 693 c 0
 106.333007812 688.333007812 104 682.666992188 104 676 c 2
 104 24 l 2
181 837 m 0
 181 849 185.166992188 859.166992188 193.5 867.5 c 0
 201.833007812 875.833007812 212 880 224 880 c 0
 236 880 246.166992188 875.833007812 254.5 867.5 c 0
 262.833007812 859.166992188 267 849 267 837 c 0
 267 825 262.833007812 814.833007812 254.5 806.5 c 0
 246.166992188 798.166992188 236 794 224 794 c 0
 212 794 201.833007812 798.166992188 193.5 806.5 c 0
 185.166992188 814.833007812 181 825 181 837 c 0
346 837 m 0
 346 849 350.166992188 859.166992188 358.5 867.5 c 0
 366.833007812 875.833007812 377 880 389 880 c 0
 401 880 411.166992188 875.833007812 419.5 867.5 c 0
 427.833007812 859.166992188 432 849 432 837 c 0
 432 825 427.833007812 814.833007812 419.5 806.5 c 0
 411.166992188 798.166992188 401 794 389 794 c 0
 377 794 366.833007812 798.166992188 358.5 806.5 c 0
 350.166992188 814.833007812 346 825 346 837 c 0
EndSplineSet
EndChar

StartChar: odieresis
Encoding: 246 246 131
Width: 640
Flags: MW
HStem: 0 48<265 315 265 322> 443 47<265 315> 570 86<201 213 366 378>
VStem: 58 48<218.333 272.667 218.333 278.333> 250 79<607 619> 474 48<218.333 272.667>
LayerCount: 2
Fore
SplineSet
58 245 m 0
 58 178.333007812 80.6669921875 120.833007812 126 72.5 c 0
 171.333007812 24.1669921875 226 0 290 0 c 0
 354 0 408.666992188 24.1669921875 454 72.5 c 0
 499.333007812 120.833007812 522 178.333007812 522 245 c 0
 522 311.666992188 499.333007812 369.166992188 454 417.5 c 0
 408.666992188 465.833007812 354 490 290 490 c 0
 226 490 171.333007812 465.833007812 126 417.5 c 0
 80.6669921875 369.166992188 58 311.666992188 58 245 c 0
160.5 106 m 0
 124.166992188 144.666992188 106 191.166992188 106 245.5 c 0
 106 299.833007812 124.166992188 346.333007812 160.5 385 c 0
 196.833007812 423.666992188 240 443 290 443 c 0
 340 443 383.166992188 423.666992188 419.5 385 c 0
 455.833007812 346.333007812 474 299.833007812 474 245.5 c 0
 474 191.166992188 455.833007812 144.666992188 419.5 106 c 0
 383.166992188 67.3330078125 340 48 290 48 c 0
 240 48 196.833007812 67.3330078125 160.5 106 c 0
164 613 m 0
 164 625 168.166992188 635.166992188 176.5 643.5 c 0
 184.833007812 651.833007812 195 656 207 656 c 0
 219 656 229.166992188 651.833007812 237.5 643.5 c 0
 245.833007812 635.166992188 250 625 250 613 c 0
 250 601 245.833007812 590.833007812 237.5 582.5 c 0
 229.166992188 574.166992188 219 570 207 570 c 0
 195 570 184.833007812 574.166992188 176.5 582.5 c 0
 168.166992188 590.833007812 164 601 164 613 c 0
329 613 m 0
 329 625 333.166992188 635.166992188 341.5 643.5 c 0
 349.833007812 651.833007812 360 656 372 656 c 0
 384 656 394.166992188 651.833007812 402.5 643.5 c 0
 410.833007812 635.166992188 415 625 415 613 c 0
 415 601 410.833007812 590.833007812 402.5 582.5 c 0
 394.166992188 574.166992188 384 570 372 570 c 0
 360 570 349.833007812 574.166992188 341.5 582.5 c 0
 333.166992188 590.833007812 329 601 329 613 c 0
EndSplineSet
EndChar

StartChar: udieresis
Encoding: 252 252 132
Width: 613
Flags: MW
HStem: 0 48<282 282> 570 86<195 207 360 372>
VStem: 83 48<172.333 467 200 467> 244 79<607 619> 433 49<179 467 200 467>
LayerCount: 2
Fore
SplineSet
83 200 m 2
 83 144.666992188 102.333007812 97.5 141 58.5 c 0
 179.666992188 19.5 226.666992188 0 282 0 c 0
 337.333007812 0 384.5 19.5 423.5 58.5 c 0
 462.5 97.5 482 144.666992188 482 200 c 2
 482 467 l 2
 482 473.666992188 479.666992188 479.333007812 475 484 c 0
 470.333007812 488.666992188 464.666992188 491 458 491 c 0
 451.333007812 491 445.5 488.666992188 440.5 484 c 0
 435.5 479.333007812 433 473.666992188 433 467 c 2
 433 200 l 2
 433 158 418.166992188 122.333007812 388.5 93 c 0
 358.833007812 63.6669921875 323 48.6669921875 281 48 c 1
 239.666992188 48.6669921875 204.333007812 63.6669921875 175 93 c 0
 145.666992188 122.333007812 131 158 131 200 c 2
 131 467 l 2
 131 473.666992188 128.666992188 479.333007812 124 484 c 0
 119.333007812 488.666992188 113.666992188 491 107 491 c 0
 100.333007812 491 94.6669921875 488.666992188 90 484 c 0
 85.3330078125 479.333007812 83 473.666992188 83 467 c 2
 83 200 l 2
158 613 m 0
 158 625 162.166992188 635.166992188 170.5 643.5 c 0
 178.833007812 651.833007812 189 656 201 656 c 0
 213 656 223.166992188 651.833007812 231.5 643.5 c 0
 239.833007812 635.166992188 244 625 244 613 c 0
 244 601 239.833007812 590.833007812 231.5 582.5 c 0
 223.166992188 574.166992188 213 570 201 570 c 0
 189 570 178.833007812 574.166992188 170.5 582.5 c 0
 162.166992188 590.833007812 158 601 158 613 c 0
323 613 m 0
 323 625 327.166992188 635.166992188 335.5 643.5 c 0
 343.833007812 651.833007812 354 656 366 656 c 0
 378 656 388.166992188 651.833007812 396.5 643.5 c 0
 404.833007812 635.166992188 409 625 409 613 c 0
 409 601 404.833007812 590.833007812 396.5 582.5 c 0
 388.166992188 574.166992188 378 570 366 570 c 0
 354 570 343.833007812 574.166992188 335.5 582.5 c 0
 327.166992188 590.833007812 323 601 323 613 c 0
EndSplineSet
EndChar

StartChar: Adieresis
Encoding: 196 196 133
Width: 663
Flags: W
HStem: 0 21G<84 89.6665 567.333 573> 1 21G<75 75 582 582> 794 86<241 253 406 418>
VStem: 204 86<831 843> 369 86<831 843>
LayerCount: 2
Fore
SplineSet
75 1 m 1x78
 84 0 l 1
 95.3330078125 0 103 5.3330078125 107 16 c 2
 169 181 l 1
 488 181 l 1
 550 16 l 2
 554 5.3330078125 561.666992188 0 573 0 c 1xb8
 582 1 l 1
 588 3.6669921875 592.333007812 8.1669921875 595 14.5 c 0
 597.666992188 20.8330078125 597.666992188 27 595 33 c 2
 352 682 l 2
 348.666992188 692 341 697 329 697 c 0
 317 697 308.666992188 692 304 682 c 2
 61 33 l 2
 58.3330078125 27 58.5 20.8330078125 61.5 14.5 c 0
 64.5 8.1669921875 69 3.6669921875 75 1 c 1x78
187 230 m 1
 329 606 l 1
 470 230 l 1
 187 230 l 1
204 837 m 0
 204 849 208.166992188 859.166992188 216.5 867.5 c 0
 224.833007812 875.833007812 235 880 247 880 c 0
 259 880 269.166992188 875.833007812 277.5 867.5 c 0
 285.833007812 859.166992188 290 849 290 837 c 0
 290 825 285.833007812 814.833007812 277.5 806.5 c 0
 269.166992188 798.166992188 259 794 247 794 c 0
 235 794 224.833007812 798.166992188 216.5 806.5 c 0
 208.166992188 814.833007812 204 825 204 837 c 0
369 837 m 0
 369 849 373.166992188 859.166992188 381.5 867.5 c 0
 389.833007812 875.833007812 400 880 412 880 c 0
 424 880 434.166992188 875.833007812 442.5 867.5 c 0
 450.833007812 859.166992188 455 849 455 837 c 0
 455 825 450.833007812 814.833007812 442.5 806.5 c 0
 434.166992188 798.166992188 424 794 412 794 c 0
 400 794 389.833007812 798.166992188 381.5 806.5 c 0
 373.166992188 814.833007812 369 825 369 837 c 0
EndSplineSet
EndChar

StartChar: adieresis
Encoding: 228 228 134
Width: 574
Flags: MW
HStem: 0 48<270.333 313.333> 443 47<270.333 313.333 263 320.667> 570 86<208 220 373 385>
VStem: 63 48<217.667 272.333 217.667 278.667> 171 86<607 619> 336 86<607 619> 479 48<24 97 97 97 217.667 272.333 394 466>
LayerCount: 2
Fore
SplineSet
503 490 m 0
 509.666992188 490 515.333007812 487.666992188 520 483 c 0
 524.666992188 478.333007812 527 472.666992188 527 466 c 2
 527 24 l 2
 527 17.3330078125 524.666992188 11.6669921875 520 7 c 0
 515.333007812 2.3330078125 509.666992188 0 503 0 c 0
 496.333007812 0 490.666992188 2.3330078125 486 7 c 0
 481.333007812 11.6669921875 479 17.3330078125 479 24 c 2
 479 97 l 1
 457.666992188 67 430.833007812 43.3330078125 398.5 26 c 0
 366.166992188 8.6669921875 331.666992188 0 295 0 c 0
 231 0 176.333007812 24 131 72 c 0
 85.6669921875 120 63 177.666992188 63 245 c 0
 63 312.333007812 85.6669921875 370 131 418 c 0
 176.333007812 466 231 490 295 490 c 0
 331.666992188 490 366.166992188 481.333007812 398.5 464 c 0
 430.833007812 446.666992188 457.666992188 423.333007812 479 394 c 1
 479 466 l 2
 479 472.666992188 481.333007812 478.333007812 486 483 c 0
 490.666992188 487.666992188 496.333007812 490 503 490 c 0
165.5 105.5 m 0
 201.833007812 67.1669921875 245.166992188 48 295.5 48 c 0
 345.833007812 48 389 67.1669921875 425 105.5 c 0
 461 143.833007812 479 190.333007812 479 245 c 0
 479 299.666992188 461 346.333007812 425 385 c 0
 389 423.666992188 345.833007812 443 295.5 443 c 0
 245.166992188 443 201.833007812 423.666992188 165.5 385 c 0
 129.166992188 346.333007812 111 299.666992188 111 245 c 0
 111 190.333007812 129.166992188 143.833007812 165.5 105.5 c 0
171 613 m 0
 171 625 175.166992188 635.166992188 183.5 643.5 c 0
 191.833007812 651.833007812 202 656 214 656 c 0
 226 656 236.166992188 651.833007812 244.5 643.5 c 0
 252.833007812 635.166992188 257 625 257 613 c 0
 257 601 252.833007812 590.833007812 244.5 582.5 c 0
 236.166992188 574.166992188 226 570 214 570 c 0
 202 570 191.833007812 574.166992188 183.5 582.5 c 0
 175.166992188 590.833007812 171 601 171 613 c 0
336 613 m 0
 336 625 340.166992188 635.166992188 348.5 643.5 c 0
 356.833007812 651.833007812 367 656 379 656 c 0
 391 656 401.166992188 651.833007812 409.5 643.5 c 0
 417.833007812 635.166992188 422 625 422 613 c 0
 422 601 417.833007812 590.833007812 409.5 582.5 c 0
 401.166992188 574.166992188 391 570 379 570 c 0
 367 570 356.833007812 574.166992188 348.5 582.5 c 0
 340.166992188 590.833007812 336 601 336 613 c 0
EndSplineSet
EndChar

StartChar: ae
Encoding: 230 230 135
Width: 954
Flags: W
HStem: 0 48<258.333 301.333 692.667 728.333> 236 49<524 897 524 925 521 897> 443 47<258.333 301.333 251 308.667> 472 20G<692 743.333>
VStem: 51 48<217.667 272.333 217.667 278.667> 467 54<236 236 236 272.333>
LayerCount: 2
Fore
SplineSet
949 264 m 1xdc
 949 260 l 2
 949 253.333007812 946.666992188 247.666992188 942 243 c 0
 937.333007812 238.333007812 931.666992188 236 925 236 c 2
 521 236 l 1
 523.666992188 182.666992188 543.333007812 138 580 102 c 0
 616.666992188 66 660.666992188 48 712 48 c 0
 744.666992188 48 775 56 803 72 c 0
 831 88 853.333007812 109.666992188 870 137 c 0
 873.333007812 143 878.5 146.666992188 885.5 148 c 0
 892.5 149.333007812 898.333007812 148.333007812 903 145 c 0
 916.333007812 135.666992188 919 124.666992188 911 112 c 0
 889 77.3330078125 860.666992188 50 826 30 c 0
 791.333007812 10 753.666992188 0 713 0 c 0
 672.333007812 0 634.666992188 9.6669921875 600 29 c 0
 565.333007812 48.3330078125 537 74.3330078125 515 107 c 1
 515 24 l 2
 515 17.3330078125 512.666992188 11.6669921875 508 7 c 0
 503.333007812 2.3330078125 497.666992188 0 491 0 c 0
 484.333007812 0 478.666992188 2.3330078125 474 7 c 0
 469.333007812 11.6669921875 467 17.3330078125 467 24 c 2
 467 97 l 1
 445.666992188 67 418.833007812 43.3330078125 386.5 26 c 0
 354.166992188 8.6669921875 319.666992188 0 283 0 c 0
 219 0 164.333007812 24 119 72 c 0
 73.6669921875 120 51 177.666992188 51 245 c 0
 51 312.333007812 73.6669921875 370 119 418 c 0
 164.333007812 466 219 490 283 490 c 0
 319.666992188 490 354.166992188 481.333007812 386.5 464 c 0
 418.833007812 446.666992188 445.666992188 423.333007812 467 394 c 1
 467 466 l 2
 467 472.666992188 469.333007812 478.333007812 474 483 c 0
 478.666992188 487.666992188 484.333007812 490 491 490 c 0xec
 497.666992188 490 503.333007812 487.666992188 508 483 c 0
 512.666992188 478.333007812 515 472.666992188 515 466 c 2
 515 385 l 1
 537 417.666992188 565.333007812 443.666992188 600 463 c 0
 634.666992188 482.333007812 672 492 712 492 c 0
 774.666992188 492 828.5 470 873.5 426 c 0
 918.5 382 943.666992188 328 949 264 c 1xdc
153.5 105.5 m 0
 189.833007812 67.1669921875 233.166992188 48 283.5 48 c 0
 333.833007812 48 377 67.1669921875 413 105.5 c 0
 449 143.833007812 467 190.333007812 467 245 c 0
 467 299.666992188 449 346.333007812 413 385 c 0
 377 423.666992188 333.833007812 443 283.5 443 c 0
 233.166992188 443 189.833007812 423.666992188 153.5 385 c 0
 117.166992188 346.333007812 99 299.666992188 99 245 c 0
 99 190.333007812 117.166992188 143.833007812 153.5 105.5 c 0
524 285 m 1
 897 285 l 1
 888.333007812 331 866.666992188 369 832 399 c 0
 797.333007812 429 757.166992188 444 711.5 444 c 0
 665.833007812 444 625.5 429 590.5 399 c 0
 555.5 369 533.333007812 331 524 285 c 1
EndSplineSet
EndChar

StartChar: quotedblbase
Encoding: 268 8222 136
Width: 410
Flags: MW
HStem: -105 194<65.6665 119.667 110.333 257.333>
VStem: 82 66<35 56 5.3335 60.6665> 262 66<35 56 5.3335 60.6665>
LayerCount: 2
Fore
SplineSet
54 -90 m 0
 54 -84.6669921875 56.6669921875 -80.3330078125 62 -77 c 0
 96 -58.3330078125 111.666992188 -32.6669921875 109 0 c 1
 91 4.6669921875 82 16.3330078125 82 35 c 2
 82 56 l 2
 82 65.3330078125 85.1669921875 73.1669921875 91.5 79.5 c 0
 97.8330078125 85.8330078125 105.666992188 89 115 89 c 0
 124.333007812 89 132.166992188 85.8330078125 138.5 79.5 c 0
 144.833007812 73.1669921875 148 65.3330078125 148 56 c 2
 148 31 l 2
 148 -20.3330078125 138.166992188 -55.8330078125 118.5 -75.5 c 0
 98.8330078125 -95.1669921875 83.1669921875 -105 71.5 -105 c 0
 59.8330078125 -105 54 -100 54 -90 c 0
234 -90 m 0
 234 -84.6669921875 236.666992188 -80.3330078125 242 -77 c 0
 276 -58.3330078125 291.666992188 -32.6669921875 289 0 c 1
 271 4.6669921875 262 16.3330078125 262 35 c 2
 262 56 l 2
 262 65.3330078125 265.333007812 73.1669921875 272 79.5 c 0
 278.666992188 85.8330078125 286.333007812 89 295 89 c 0
 303.666992188 89 311.333007812 85.8330078125 318 79.5 c 0
 324.666992188 73.1669921875 328 65.3330078125 328 56 c 2
 328 31 l 2
 328 -20.3330078125 318.166992188 -55.8330078125 298.5 -75.5 c 0
 278.833007812 -95.1669921875 263.166992188 -105 251.5 -105 c 0
 239.833007812 -105 234 -100 234 -90 c 0
EndSplineSet
EndChar

StartChar: bullet
Encoding: 269 8226 137
Width: 470
Flags: MW
HStem: 228 248<218.667 251.333 218.667 252>
VStem: 111 248<351 353 334 369.667>
LayerCount: 2
Fore
SplineSet
235 228 m 0
 201 228 171.833007812 240 147.5 264 c 0
 123.166992188 288 111 317 111 351 c 2
 111 353 l 2
 111 386.333007812 123.5 415.166992188 148.5 439.5 c 0
 173.5 463.833007812 202.333007812 476 235 476 c 0
 267.666992188 476 296.5 463.833007812 321.5 439.5 c 0
 346.5 415.166992188 359 386.333007812 359 353 c 2
 359 351 l 2
 359 317 346.833007812 288 322.5 264 c 0
 298.166992188 240 269 228 235 228 c 0
EndSplineSet
EndChar

StartChar: endash
Encoding: 270 8211 138
Width: 528
Flags: MW
HStem: 271 52<88.6665 436 92 436>
LayerCount: 2
Fore
SplineSet
92 271 m 2
 85.3330078125 271 79.3330078125 273.5 74 278.5 c 0
 68.6669921875 283.5 66 289.666992188 66 297 c 0
 66 304.333007812 68.6669921875 310.5 74 315.5 c 0
 79.3330078125 320.5 85.3330078125 323 92 323 c 2
 436 323 l 2
 442.666992188 323 448.666992188 320.5 454 315.5 c 0
 459.333007812 310.5 462 304.333007812 462 297 c 0
 462 289.666992188 459.333007812 283.5 454 278.5 c 0
 448.666992188 273.5 442.666992188 271 436 271 c 2
 92 271 l 2
EndSplineSet
EndChar

StartChar: emdash
Encoding: 271 8212 139
Width: 898
Flags: MW
HStem: 271 52<88.6665 806 92 806>
LayerCount: 2
Fore
SplineSet
92 271 m 2
 85.3330078125 271 79.3330078125 273.5 74 278.5 c 0
 68.6669921875 283.5 66 289.666992188 66 297 c 0
 66 304.333007812 68.6669921875 310.5 74 315.5 c 0
 79.3330078125 320.5 85.3330078125 323 92 323 c 2
 806 323 l 2
 812.666992188 323 818.666992188 320.5 824 315.5 c 0
 829.333007812 310.5 832 304.333007812 832 297 c 0
 832 289.666992188 829.333007812 283.5 824 278.5 c 0
 818.666992188 273.5 812.666992188 271 806 271 c 2
 92 271 l 2
EndSplineSet
EndChar

StartChar: Ydieresis
Encoding: 272 376 140
Width: 716
Flags: MW
HStem: 0 21G<316.667 323.333> 794 86<232 244 397 409>
VStem: 195 86<831 843> 360 86<831 843>
LayerCount: 2
Fore
SplineSet
296 24 m 2
 296 17.3330078125 298.333007812 11.6669921875 303 7 c 0
 307.666992188 2.3330078125 313.333007812 0 320 0 c 0
 326.666992188 0 332.333007812 2.3330078125 337 7 c 0
 341.666992188 11.6669921875 344 17.3330078125 344 24 c 2
 344 338 l 1
 578 657 l 2
 582 662.333007812 583.5 668.5 582.5 675.5 c 0
 581.5 682.5 578.333007812 687.666992188 573 691 c 1
 567.666992188 695.666992188 561.5 697.5 554.5 696.5 c 0
 547.5 695.5 542.333007812 692.333007812 539 687 c 2
 319 386 l 1
 100 687 l 2
 96.6669921875 692.333007812 91.5 695.5 84.5 696.5 c 0
 77.5 697.5 71.3330078125 695.666992188 66 691 c 0
 54 682.333007812 52.3330078125 671 61 657 c 1
 296 336 l 1
 296 24 l 2
195 837 m 0
 195 849 199.166992188 859.166992188 207.5 867.5 c 0
 215.833007812 875.833007812 226 880 238 880 c 0
 250 880 260.166992188 875.833007812 268.5 867.5 c 0
 276.833007812 859.166992188 281 849 281 837 c 0
 281 825 276.833007812 814.833007812 268.5 806.5 c 0
 260.166992188 798.166992188 250 794 238 794 c 0
 226 794 215.833007812 798.166992188 207.5 806.5 c 0
 199.166992188 814.833007812 195 825 195 837 c 0
360 837 m 0
 360 849 364.166992188 859.166992188 372.5 867.5 c 0
 380.833007812 875.833007812 391 880 403 880 c 0
 415 880 425.166992188 875.833007812 433.5 867.5 c 0
 441.833007812 859.166992188 446 849 446 837 c 0
 446 825 441.833007812 814.833007812 433.5 806.5 c 0
 425.166992188 798.166992188 415 794 403 794 c 0
 391 794 380.833007812 798.166992188 372.5 806.5 c 0
 364.166992188 814.833007812 360 825 360 837 c 0
EndSplineSet
EndChar

StartChar: ydieresis
Encoding: 255 255 142
Width: 588
Flags: MW
HStem: -191 48<203 242.333 203 249.333> 1 49 570 86<162 174 327 339>
VStem: 52 48<173.667 467 201 467> 211 79<607 619> 402 48<39 71 39 467 201 467 201 201>
LayerCount: 2
Fore
SplineSet
402 467 m 2
 402 201 l 2
 401.333007812 159 386.333007812 123.333007812 357 94 c 0
 327.666992188 64.6669921875 292.166992188 50 250.5 50 c 0
 208.833007812 50 173.333007812 64.6669921875 144 94 c 0
 114.666992188 123.333007812 100 159 100 201 c 2
 100 467 l 2
 100 473.666992188 97.6669921875 479.166992188 93 483.5 c 0
 88.3330078125 487.833007812 82.6669921875 490 76 490 c 0
 69.3330078125 490 63.6669921875 487.833007812 59 483.5 c 0
 54.3330078125 479.166992188 52 473.666992188 52 467 c 2
 52 201 l 2
 52 146.333007812 71.3330078125 99.5 110 60.5 c 0
 148.666992188 21.5 196.666992188 1.8330078125 254 1.5 c 0
 311.333007812 1.1669921875 360.666992188 24.3330078125 402 71 c 1
 402 39 l 2
 401.333007812 -11.6669921875 383 -54.6669921875 347 -90 c 0
 311 -125.333007812 267.666992188 -143 217 -143 c 0
 189 -143 162.333007812 -136.666992188 137 -124 c 1
 122.333007812 -120 111.833007812 -124.166992188 105.5 -136.5 c 0
 99.1669921875 -148.833007812 102.666992188 -159.333007812 116 -168 c 1
 150 -183.333007812 183.666992188 -191 217 -191 c 0
 281.666992188 -191 336.666992188 -168.666992188 382 -124 c 0
 427.333007812 -79.3330078125 450 -25 450 39 c 2
 450 467 l 2
 450 478.833007812 443 486.5 429 490 c 1
 423 490 l 1
 420 489 l 1
 418 489 l 1
 411.333007812 486.77734375 408 485.055664062 408 483.833007812 c 0
 408 482.611328125 407 481 405 479 c 0
 403 477 402 473 402 467 c 2
125 613 m 0
 125 625 129.166992188 635.166992188 137.5 643.5 c 0
 145.833007812 651.833007812 156 656 168 656 c 0
 180 656 190.166992188 651.833007812 198.5 643.5 c 0
 206.833007812 635.166992188 211 625 211 613 c 0
 211 601 206.833007812 590.833007812 198.5 582.5 c 0
 190.166992188 574.166992188 180 570 168 570 c 0
 156 570 145.833007812 574.166992188 137.5 582.5 c 0
 129.166992188 590.833007812 125 601 125 613 c 0
290 613 m 0
 290 625 294.166992188 635.166992188 302.5 643.5 c 0
 310.833007812 651.833007812 321 656 333 656 c 0
 345 656 355.166992188 651.833007812 363.5 643.5 c 0
 371.833007812 635.166992188 376 625 376 613 c 0
 376 601 371.833007812 590.833007812 363.5 582.5 c 0
 355.166992188 574.166992188 345 570 333 570 c 0
 321 570 310.833007812 574.166992188 302.5 582.5 c 0
 294.166992188 590.833007812 290 601 290 613 c 0
EndSplineSet
EndChar

StartChar: Yacute
Encoding: 221 221 143
Width: 716
Flags: MW
HStem: 0 21G<316.667 323.333> 903 20G<340 350>
VStem: 296 48<20.6665 338 24 336>
LayerCount: 2
Fore
SplineSet
296 24 m 2
 296 17.3330078125 298.333007812 11.6669921875 303 7 c 0
 307.666992188 2.3330078125 313.333007812 0 320 0 c 0
 326.666992188 0 332.333007812 2.3330078125 337 7 c 0
 341.666992188 11.6669921875 344 17.3330078125 344 24 c 2
 344 338 l 1
 578 657 l 2
 582 662.333007812 583.5 668.5 582.5 675.5 c 0
 581.5 682.5 578.333007812 687.666992188 573 691 c 1
 567.666992188 695.666992188 561.5 697.5 554.5 696.5 c 0
 547.5 695.5 542.333007812 692.333007812 539 687 c 2
 319 386 l 1
 100 687 l 2
 96.6669921875 692.333007812 91.5 695.5 84.5 696.5 c 0
 77.5 697.5 71.3330078125 695.666992188 66 691 c 0
 54 682.333007812 52.3330078125 671 61 657 c 1
 296 336 l 1
 296 24 l 2
297 805 m 2
 287.666992188 796.333007812 277.833007812 792 267.5 792 c 0
 257.166992188 792 252 795 252 801 c 0
 252 804.333007812 253.333007812 808 256 812 c 2
 318 905 l 2
 326 917 335 923 345 923 c 0
 355 923 364.666992188 920.5 374 915.5 c 0
 383.333007812 910.5 388 905.5 388 900.5 c 0
 388 895.5 384.333007812 889.333007812 377 882 c 2
 297 805 l 2
EndSplineSet
EndChar

StartChar: Udieresis
Encoding: 220 220 144
Width: 760
Flags: MW
HStem: 0 49<376 376> 680 20G<113.667 120.333 630.667 637.333> 794 86<288 300 453 465>
VStem: 93 49<244 676 283 676> 337 79<831 843> 610 49<250.667 676 283 676>
LayerCount: 2
Fore
SplineSet
93 283 m 2
 93 205 120.666992188 138.333007812 176 83 c 0
 231.333007812 27.6669921875 298 0 376 0 c 0
 454 0 520.666992188 27.6669921875 576 83 c 0
 631.333007812 138.333007812 659 205 659 283 c 2
 659 676 l 2
 659 682.666992188 656.5 688.333007812 651.5 693 c 0
 646.5 697.666992188 640.666992188 700 634 700 c 0
 627.333007812 700 621.666992188 697.666992188 617 693 c 0
 612.333007812 688.333007812 610 682.666992188 610 676 c 2
 610 283 l 2
 610 218.333007812 587.166992188 163.333007812 541.5 118 c 0
 495.833007812 72.6669921875 440.333007812 49.6669921875 375 49 c 1
 311 49.6669921875 256.166992188 72.6669921875 210.5 118 c 0
 164.833007812 163.333007812 142 218.333007812 142 283 c 2
 142 676 l 2
 142 682.666992188 139.5 688.333007812 134.5 693 c 0
 129.5 697.666992188 123.666992188 700 117 700 c 0
 110.333007812 700 104.666992188 697.666992188 100 693 c 0
 95.3330078125 688.333007812 93 682.666992188 93 676 c 2
 93 283 l 2
251 837 m 0
 251 849 255.166992188 859.166992188 263.5 867.5 c 0
 271.833007812 875.833007812 282 880 294 880 c 0
 306 880 316.166992188 875.833007812 324.5 867.5 c 0
 332.833007812 859.166992188 337 849 337 837 c 0
 337 825 332.833007812 814.833007812 324.5 806.5 c 0
 316.166992188 798.166992188 306 794 294 794 c 0
 282 794 271.833007812 798.166992188 263.5 806.5 c 0
 255.166992188 814.833007812 251 825 251 837 c 0
416 837 m 0
 416 849 420.166992188 859.166992188 428.5 867.5 c 0
 436.833007812 875.833007812 447 880 459 880 c 0
 471 880 481.166992188 875.833007812 489.5 867.5 c 0
 497.833007812 859.166992188 502 849 502 837 c 0
 502 825 497.833007812 814.833007812 489.5 806.5 c 0
 481.166992188 798.166992188 471 794 459 794 c 0
 447 794 436.833007812 798.166992188 428.5 806.5 c 0
 420.166992188 814.833007812 416 825 416 837 c 0
EndSplineSet
EndChar

StartChar: Ucircumflex
Encoding: 219 219 145
Width: 760
Flags: MW
HStem: 0 49<376 376> 680 20G<113.667 120.333 630.667 637.333> 900 20G<373 381 381 385.333>
VStem: 93 49<244 676 283 676> 610 49<250.667 676 283 676>
LayerCount: 2
Fore
SplineSet
93 283 m 2
 93 205 120.666992188 138.333007812 176 83 c 0
 231.333007812 27.6669921875 298 0 376 0 c 0
 454 0 520.666992188 27.6669921875 576 83 c 0
 631.333007812 138.333007812 659 205 659 283 c 2
 659 676 l 2
 659 682.666992188 656.5 688.333007812 651.5 693 c 0
 646.5 697.666992188 640.666992188 700 634 700 c 0
 627.333007812 700 621.666992188 697.666992188 617 693 c 0
 612.333007812 688.333007812 610 682.666992188 610 676 c 2
 610 283 l 2
 610 218.333007812 587.166992188 163.333007812 541.5 118 c 0
 495.833007812 72.6669921875 440.333007812 49.6669921875 375 49 c 1
 311 49.6669921875 256.166992188 72.6669921875 210.5 118 c 0
 164.833007812 163.333007812 142 218.333007812 142 283 c 2
 142 676 l 2
 142 682.666992188 139.5 688.333007812 134.5 693 c 0
 129.5 697.666992188 123.666992188 700 117 700 c 0
 110.333007812 700 104.666992188 697.666992188 100 693 c 0
 95.3330078125 688.333007812 93 682.666992188 93 676 c 2
 93 283 l 2
376 863 m 1
 313 805 l 2
 303.666992188 796.333007812 293.833007812 792 283.5 792 c 0
 273.166992188 792 268 795.333007812 268 802 c 0
 268 806 269.666992188 810 273 814 c 2
 345 902 l 2
 355 914 364.333007812 920 373 920 c 2
 381 920 l 2
 389.666992188 920 399 914 409 902 c 2
 481 814 l 2
 484.333007812 810 486 806 486 802 c 0
 486 795.333007812 480.5 792 469.5 792 c 0
 458.5 792 448.333007812 796.333007812 439 805 c 2
 376 863 l 1
EndSplineSet
EndChar

StartChar: Uacute
Encoding: 218 218 146
Width: 760
Flags: MW
HStem: 0 49<376 376> 680 20G<113.667 120.333 630.667 637.333> 903 20G<396 406>
VStem: 93 49<244 676 283 676> 610 49<250.667 676 283 676>
LayerCount: 2
Fore
SplineSet
93 283 m 2
 93 205 120.666992188 138.333007812 176 83 c 0
 231.333007812 27.6669921875 298 0 376 0 c 0
 454 0 520.666992188 27.6669921875 576 83 c 0
 631.333007812 138.333007812 659 205 659 283 c 2
 659 676 l 2
 659 682.666992188 656.5 688.333007812 651.5 693 c 0
 646.5 697.666992188 640.666992188 700 634 700 c 0
 627.333007812 700 621.666992188 697.666992188 617 693 c 0
 612.333007812 688.333007812 610 682.666992188 610 676 c 2
 610 283 l 2
 610 218.333007812 587.166992188 163.333007812 541.5 118 c 0
 495.833007812 72.6669921875 440.333007812 49.6669921875 375 49 c 1
 311 49.6669921875 256.166992188 72.6669921875 210.5 118 c 0
 164.833007812 163.333007812 142 218.333007812 142 283 c 2
 142 676 l 2
 142 682.666992188 139.5 688.333007812 134.5 693 c 0
 129.5 697.666992188 123.666992188 700 117 700 c 0
 110.333007812 700 104.666992188 697.666992188 100 693 c 0
 95.3330078125 688.333007812 93 682.666992188 93 676 c 2
 93 283 l 2
353 805 m 2
 343.666992188 796.333007812 333.833007812 792 323.5 792 c 0
 313.166992188 792 308 795 308 801 c 0
 308 804.333007812 309.333007812 808 312 812 c 2
 374 905 l 2
 382 917 391 923 401 923 c 0
 411 923 420.666992188 920.5 430 915.5 c 0
 439.333007812 910.5 444 905.5 444 900.5 c 0
 444 895.5 440.333007812 889.333007812 433 882 c 2
 353 805 l 2
EndSplineSet
EndChar

StartChar: Otilde
Encoding: 213 213 148
Width: 850
Flags: W
HStem: 0 49<369.667 448.333 369.667 457.333> 660 50<370 449> 795 52<469.667 478 467 485.333> 836 52<340 348.333 332.667 351> 879 20G<532.333 542>
VStem: 73 49<355 355> 696 50<355 355>
LayerCount: 2
Fore
SplineSet
73 355 m 1xc6
 73.6669921875 256.333007812 106.666992188 172.5 172 103.5 c 0
 237.333007812 34.5 316.833007812 0 410.5 0 c 0
 504.166992188 0 583.333007812 34.5 648 103.5 c 0
 712.666992188 172.5 745.333007812 256.333007812 746 355 c 1
 745.333007812 453.666992188 712.666992188 537.5 648 606.5 c 0
 583.333007812 675.5 504.166992188 710 410.5 710 c 0
 316.833007812 710 237.333007812 675.5 172 606.5 c 0
 106.666992188 537.5 73.6669921875 453.666992188 73 355 c 1xc6
206.5 138 m 0
 150.166992188 197.333007812 122 269.833007812 122 355.5 c 0
 122 441.166992188 150.166992188 513.333007812 206.5 572 c 0
 262.833007812 630.666992188 330.5 660 409.5 660 c 0
 488.5 660 555.833007812 630.666992188 611.5 572 c 0
 667.166992188 513.333007812 695.333007812 441 696 355 c 1
 695.333007812 270.333007812 667 198.166992188 611 138.5 c 0
 555 78.8330078125 487.666992188 49 409 49 c 0
 330.333007812 49 262.833007812 78.6669921875 206.5 138 c 0
300 798 m 0
 295.333007812 788.666992188 289.333007812 784 282 784 c 0
 270 784 264 789.666992188 264 801 c 0
 264 805 264.666992188 809 266 813 c 0
 275.333007812 841 286.166992188 860.5 298.5 871.5 c 0
 310.833007812 882.5 324.833007812 888 340.5 888 c 0xd6
 356.166992188 888 379.333007812 881.166992188 410 867.5 c 0
 440.666992188 853.833007812 461.5 847 472.5 847 c 0
 483.5 847 492.333007812 849.833007812 499 855.5 c 0
 505.666992188 861.166992188 512 871 518 885 c 0
 522.666992188 894.333007812 528.666992188 899 536 899 c 0
 548 899 554 893.333007812 554 882 c 0
 554 878 553.333007812 874 552 870 c 0
 542.666992188 842 531.833007812 822.5 519.5 811.5 c 0
 507.166992188 800.5 493.166992188 795 477.5 795 c 0xee
 461.833007812 795 438.666992188 801.833007812 408 815.5 c 0
 377.333007812 829.166992188 356.5 836 345.5 836 c 0xd6
 334.5 836 325.666992188 833.166992188 319 827.5 c 0
 312.333007812 821.833007812 306 812 300 798 c 0
EndSplineSet
EndChar

StartChar: Oacute
Encoding: 211 211 150
Width: 850
Flags: W
HStem: 0 49<369.667 448.333 369.667 457.333> 660 50<370 449> 710 213<428 438 428 457.333>
VStem: 73 49<355 355> 696 50<355 355>
LayerCount: 2
Fore
SplineSet
73 355 m 1xd8
 73.6669921875 256.333007812 106.666992188 172.5 172 103.5 c 0
 237.333007812 34.5 316.833007812 0 410.5 0 c 0
 504.166992188 0 583.333007812 34.5 648 103.5 c 0
 712.666992188 172.5 745.333007812 256.333007812 746 355 c 1
 745.333007812 453.666992188 712.666992188 537.5 648 606.5 c 0
 583.333007812 675.5 504.166992188 710 410.5 710 c 0
 316.833007812 710 237.333007812 675.5 172 606.5 c 0
 106.666992188 537.5 73.6669921875 453.666992188 73 355 c 1xd8
206.5 138 m 0
 150.166992188 197.333007812 122 269.833007812 122 355.5 c 0
 122 441.166992188 150.166992188 513.333007812 206.5 572 c 0
 262.833007812 630.666992188 330.5 660 409.5 660 c 0
 488.5 660 555.833007812 630.666992188 611.5 572 c 0
 667.166992188 513.333007812 695.333007812 441 696 355 c 1
 695.333007812 270.333007812 667 198.166992188 611 138.5 c 0
 555 78.8330078125 487.666992188 49 409 49 c 0
 330.333007812 49 262.833007812 78.6669921875 206.5 138 c 0
385 805 m 2
 375.666992188 796.333007812 365.833007812 792 355.5 792 c 0
 345.166992188 792 340 795 340 801 c 0
 340 804.333007812 341.333007812 808 344 812 c 2
 406 905 l 2
 414 917 423 923 433 923 c 0xb8
 443 923 452.666992188 920.5 462 915.5 c 0
 471.333007812 910.5 476 905.5 476 900.5 c 0
 476 895.5 472.333007812 889.333007812 465 882 c 2
 385 805 l 2
EndSplineSet
EndChar

StartChar: Idieresis
Encoding: 207 207 151
Width: 274
Flags: MW
HStem: 0 21G<113.667 120.333> 680 20G<113.667 120.333> 794 86<29 41 194 206>
VStem: -8 86<831 843> 157 86<831 843>
LayerCount: 2
Fore
SplineSet
93 24 m 2
 93 17.3330078125 95.3330078125 11.6669921875 100 7 c 0
 104.666992188 2.3330078125 110.333007812 0 117 0 c 0
 123.666992188 0 129.5 2.3330078125 134.5 7 c 0
 139.5 11.6669921875 142 17.3330078125 142 24 c 2
 142 676 l 2
 142 682.666992188 139.5 688.333007812 134.5 693 c 0
 129.5 697.666992188 123.666992188 700 117 700 c 0
 110.333007812 700 104.666992188 697.666992188 100 693 c 0
 95.3330078125 688.333007812 93 682.666992188 93 676 c 2
 93 24 l 2
-8 837 m 0
 -8 849 -3.8330078125 859.166992188 4.5 867.5 c 0
 12.8330078125 875.833007812 23 880 35 880 c 0
 47 880 57.1669921875 875.833007812 65.5 867.5 c 0
 73.8330078125 859.166992188 78 849 78 837 c 0
 78 825 73.8330078125 814.833007812 65.5 806.5 c 0
 57.1669921875 798.166992188 47 794 35 794 c 0
 23 794 12.8330078125 798.166992188 4.5 806.5 c 0
 -3.8330078125 814.833007812 -8 825 -8 837 c 0
157 837 m 0
 157 849 161.166992188 859.166992188 169.5 867.5 c 0
 177.833007812 875.833007812 188 880 200 880 c 0
 212 880 222.166992188 875.833007812 230.5 867.5 c 0
 238.833007812 859.166992188 243 849 243 837 c 0
 243 825 238.833007812 814.833007812 230.5 806.5 c 0
 222.166992188 798.166992188 212 794 200 794 c 0
 188 794 177.833007812 798.166992188 169.5 806.5 c 0
 161.166992188 814.833007812 157 825 157 837 c 0
EndSplineSet
EndChar

StartChar: exclamdown
Encoding: 161 161 152
Width: 252
Flags: MW
HStem: 0 21G<113.667 120.333> 680 20G<113.667 120.333>
VStem: 93 49<24 526 652 676>
LayerCount: 2
Fore
SplineSet
93 526 m 2
 93 532.666992188 95.3330078125 538.5 100 543.5 c 0
 104.666992188 548.5 110.5 551 117.5 551 c 0
 124.5 551 130.333007812 548.5 135 543.5 c 0
 139.666992188 538.5 142 532.666992188 142 526 c 2
 142 24 l 2
 142 17.3330078125 139.5 11.6669921875 134.5 7 c 0
 129.5 2.3330078125 123.666992188 0 117 0 c 0
 110.333007812 0 104.666992188 2.3330078125 100 7 c 0
 95.3330078125 11.6669921875 93 17.3330078125 93 24 c 2
 93 526 l 2
93 676 m 2
 93 682.666992188 95.3330078125 688.333007812 100 693 c 0
 104.666992188 697.666992188 110.333007812 700 117 700 c 0
 123.666992188 700 129.5 697.666992188 134.5 693 c 0
 139.5 688.333007812 142 682.666992188 142 676 c 2
 142 652 l 2
 142 645.333007812 139.5 639.666992188 134.5 635 c 0
 129.5 630.333007812 123.666992188 628 117 628 c 0
 110.333007812 628 104.666992188 630.333007812 100 635 c 0
 95.3330078125 639.666992188 93 645.333007812 93 652 c 2
 93 676 l 2
EndSplineSet
EndChar

StartChar: degree
Encoding: 176 176 154
Width: 450
Flags: MW
HStem: 412 44<210.667 239.333 210.667 245> 662 44<210.667 239.333>
VStem: 74 50<558 560 544.333 579.333> 326 50<558 560 538.667 573.667>
LayerCount: 2
Fore
SplineSet
225 412 m 0
 185 412 149.833007812 426.666992188 119.5 456 c 0
 89.1669921875 485.333007812 74 519.333007812 74 558 c 2
 74 560 l 2
 74 598.666992188 89.1669921875 632.666992188 119.5 662 c 0
 149.833007812 691.333007812 185 706 225 706 c 0
 265 706 300.166992188 691.333007812 330.5 662 c 0
 360.833007812 632.666992188 376 598.666992188 376 560 c 2
 376 558 l 2
 376 519.333007812 360.833007812 485.333007812 330.5 456 c 0
 300.166992188 426.666992188 265 412 225 412 c 0
225 456 m 0
 253.666992188 456 277.666992188 466.166992188 297 486.5 c 0
 316.333007812 506.833007812 326 530.666992188 326 558 c 2
 326 560 l 2
 326 587.333007812 316.333007812 611.166992188 297 631.5 c 0
 277.666992188 651.833007812 253.666992188 662 225 662 c 0
 196.333007812 662 172.333007812 651.833007812 153 631.5 c 0
 133.666992188 611.166992188 124 587.333007812 124 560 c 2
 124 558 l 2
 124 530.666992188 133.666992188 506.833007812 153 486.5 c 0
 172.333007812 466.166992188 196.333007812 456 225 456 c 0
EndSplineSet
EndChar

